<svg xmlns="http://www.w3.org/2000/svg" viewBox="0 0 256 256"><defs><style>.cls-1{fill:#fec72e;}.cls-2{fill:#d3d7da;}.cls-3,.cls-7{fill:none;stroke-miterlimit:10;}.cls-3{stroke:#205081;}.cls-4{fill:#fff;}.cls-5{fill:#56d0fc;}.cls-6,.cls-8{fill:#205081;}.cls-7{stroke:#fff;stroke-linecap:round;}.cls-8{font-size:19.15px;font-family:MyriadPro-Regular, Myriad Pro;}</style></defs><title>-</title><g id="Layer_1" data-name="Layer 1"><path class="cls-1" d="M76.21,97.22V92.05S75.71,90,78.27,90h54.36s2,0,2.2,2.87a19.3,19.3,0,0,1-.1,4.3l0,.17Z"/><path class="cls-2" d="M132.05,135.2v1.29a2.31,2.31,0,0,1-2.31,2.32H75.32A2.32,2.32,0,0,1,73,136.49V95.88a2.31,2.31,0,0,1,2.31-2.31H76v39.32a2.3,2.3,0,0,0,2.31,2.31Z"/><rect class="cls-3" x="75.96" y="89.97" width="59.04" height="45.24" rx="2.31" ry="2.31"/><line class="cls-3" x1="135" y1="97.55" x2="75.96" y2="97.55"/><circle class="cls-4" cx="79.78" cy="93.22" r="1.44"/><circle class="cls-4" cx="83.97" cy="93.22" r="1.44"/><path class="cls-5" d="M145.25,80.43v31.11a4.31,4.31,0,0,1-4.3,4.3H135.5l-9.56,8.84a1.3,1.3,0,0,1-2.19-1v-7.89H94.59a4.31,4.31,0,0,1-4.3-4.3V80.43a4.3,4.3,0,0,1,4.3-4.3H141A4.3,4.3,0,0,1,145.25,80.43Z"/><path class="cls-2" d="M142.08,115.75a4.31,4.31,0,0,1-4.13,3.08H132.5l-9.56,8.85a1.3,1.3,0,0,1-2.19-1v-7.89H91.59a4.3,4.3,0,0,1-4.3-4.3V83.42a4.32,4.32,0,0,1,3.17-4.15,4.49,4.49,0,0,0-.17,1.22V111.6a4.31,4.31,0,0,0,4.3,4.3h29.16v7.89a1.31,1.31,0,0,0,2.19,1l9.56-8.85H141A4.22,4.22,0,0,0,142.08,115.75Z"/><path class="cls-5" d="M145.25,80.49V111.6a4.32,4.32,0,0,1-3.17,4.15,4.22,4.22,0,0,1-1.13.15H135.5l-9.56,8.85a1.31,1.31,0,0,1-2.19-1V115.9H94.59a4.31,4.31,0,0,1-4.3-4.3V80.49a4.49,4.49,0,0,1,.17-1.22,4.31,4.31,0,0,1,4.13-3.08H141A4.3,4.3,0,0,1,145.25,80.49Z"/><path class="cls-3" d="M145.25,80.43v31.11a4.31,4.31,0,0,1-4.3,4.3H135.5l-9.56,8.84a1.3,1.3,0,0,1-2.19-1v-7.89H94.59a4.31,4.31,0,0,1-4.3-4.3V80.43a4.3,4.3,0,0,1,4.3-4.3H141A4.3,4.3,0,0,1,145.25,80.43Z"/><path class="cls-5" d="M125,95.28a7.19,7.19,0,1,1-7.19-7.19A7.19,7.19,0,0,1,125,95.28Zm2-2.48.94-3.39-3.41-.89-.89-3.41-3.4.94-2.47-2.51-2.47,2.51-3.4-.94L111,88.52l-3.41.89.94,3.39L106,95.28l2.51,2.47-.94,3.4L111,102l.89,3.41,3.4-.93,2.47,2.51,2.47-2.51,3.4.93.89-3.41,3.41-.88-.94-3.4,2.51-2.47Z"/><circle class="cls-1" cx="114.85" cy="92.24" r="1.74"/><circle class="cls-1" cx="120.73" cy="98.35" r="1.74"/><path class="cls-4" d="M127.1,95.28A9.33,9.33,0,1,1,117.77,86,9.33,9.33,0,0,1,127.1,95.28Zm2.65-3.21L131,87.66l-4.43-1.15-1.15-4.43L121,83.3,117.77,80l-3.21,3.26-4.41-1.22L109,86.51l-4.43,1.15,1.22,4.41-3.26,3.21,3.26,3.21-1.22,4.41,4.43,1.15,1.15,4.43,4.41-1.22,3.21,3.26,3.21-3.26,4.41,1.22,1.15-4.43L131,102.9l-1.22-4.41L133,95.28Z"/><path class="cls-3" d="M127.1,95.28A9.33,9.33,0,1,1,117.77,86,9.33,9.33,0,0,1,127.1,95.28Zm2.65-3.21L131,87.66l-4.43-1.15-1.15-4.43L121,83.3,117.77,80l-3.21,3.26-4.41-1.22L109,86.51l-4.43,1.15,1.22,4.41-3.26,3.21,3.26,3.21-1.22,4.41,4.43,1.15,1.15,4.43,4.41-1.22,3.21,3.26,3.21-3.26,4.41,1.22,1.15-4.43L131,102.9l-1.22-4.41L133,95.28Z"/><path class="cls-6" d="M114.85,89.94a2.3,2.3,0,0,0-2.46,2.31,2.48,2.48,0,0,0,4.94,0A2.31,2.31,0,0,0,114.85,89.94Zm0,3.63a1.34,1.34,0,1,1,1.42-1.32A1.32,1.32,0,0,1,114.87,93.57Z"/><path class="cls-6" d="M122.16,89.93l-7.64,10.62h-1.24c2.4-3.4,5.24-7.19,7.66-10.62Z"/><path class="cls-6" d="M120.72,96.07a2.28,2.28,0,0,0-2.46,2.29,2.48,2.48,0,0,0,4.94,0A2.29,2.29,0,0,0,120.72,96.07Zm0,3.66a1.38,1.38,0,0,1-1.47-1.4A1.35,1.35,0,0,1,120.72,97a1.37,1.37,0,0,1,1.46,1.39A1.35,1.35,0,0,1,120.74,99.73Z"/><rect class="cls-1" x="90.67" y="121.55" width="26.66" height="9.33" rx="2.19" ry="2.19"/><rect class="cls-3" x="90.67" y="121.55" width="26.66" height="9.33" rx="2.19" ry="2.19"/><line class="cls-7" x1="94.78" y1="125.8" x2="114.17" y2="125.8"/><text class="cls-8" transform="translate(85.41 201.95)">OFFERS</text></g></svg>