<svg xmlns="http://www.w3.org/2000/svg" viewBox="0 0 256 256"><defs><style>.cls-1{fill:#56d0fc;}.cls-2{fill:none;stroke:#205081;stroke-miterlimit:10;}.cls-3{fill:#d3d7da;}.cls-4{font-size:19.15px;fill:#205081;font-family:MyriadPro-Regular, Myriad Pro;}.cls-5{letter-spacing:0em;}</style></defs><title>-</title><g id="Layer_1" data-name="Layer 1"><path class="cls-1" d="M69.89,107.09l17-16.53a3.12,3.12,0,0,1,4.29,0l17.43,16.19a.53.53,0,0,0,.72,0l28.23-26.6-5.81-5.69a1.33,1.33,0,0,1,.93-2.27h16.5v16.5a1.32,1.32,0,0,1-2.25.94l-5.17-5.09-30.15,29.13a3.58,3.58,0,0,1-5,0L89.61,97.39a.42.42,0,0,0-.59,0L74.31,111.91a1.12,1.12,0,0,1-1.62-.06l-2.86-3.21A1.13,1.13,0,0,1,69.89,107.09Z"/><path class="cls-2" d="M69.89,107.09l17-16.53a3.12,3.12,0,0,1,4.29,0l17.43,16.19a.53.53,0,0,0,.72,0l28.23-26.6-5.81-5.69a1.33,1.33,0,0,1,.93-2.27h16.5v16.5a1.32,1.32,0,0,1-2.25.94l-5.17-5.09-30.15,29.13a3.58,3.58,0,0,1-5,0L89.61,97.39a.42.42,0,0,0-.59,0L74.31,111.91a1.12,1.12,0,0,1-1.62-.06l-2.86-3.21A1.13,1.13,0,0,1,69.89,107.09Z"/><path class="cls-3" d="M87.51,139.44a2.24,2.24,0,0,1-2.22,2h-8A2.23,2.23,0,0,1,75,139.22V118.08l2-2v21.12a2.23,2.23,0,0,0,2.23,2.23h8.24Z"/><path class="cls-3" d="M104.87,139.44a2.23,2.23,0,0,1-2.23,2h-8a2.23,2.23,0,0,1-2.23-2.23V110.75l2,1.87v24.6a2.23,2.23,0,0,0,2.23,2.23h8.17Z"/><path class="cls-3" d="M122.28,139.44a2.23,2.23,0,0,1-2.22,2h-8a2.23,2.23,0,0,1-2.23-2.23V121a5,5,0,0,0,2-.91v17.09a2.23,2.23,0,0,0,2.23,2.23h8.21Z"/><path class="cls-3" d="M139.7,139.44a2.23,2.23,0,0,1-2.22,2h-8a2.23,2.23,0,0,1-2.23-2.23v-33.8l2-1.93v33.73a2.23,2.23,0,0,0,2.23,2.23h8.17Z"/><path class="cls-3" d="M114.49,117.65l-2,2s-.26.21-.64.48V119A6.75,6.75,0,0,0,114.49,117.65Z"/><path class="cls-2" d="M89.31,104,77,116.08v21.14a2.23,2.23,0,0,0,2.23,2.23h8a2.23,2.23,0,0,0,2.23-2.24Z"/><path class="cls-2" d="M94.46,108.75v28.47a2.23,2.23,0,0,0,2.23,2.23h8a2.23,2.23,0,0,0,2.23-2.23V119.13a8.48,8.48,0,0,1-3.25-1.81C102.21,116,94.46,108.75,94.46,108.75Z"/><path class="cls-2" d="M111.83,119.05v18.17a2.23,2.23,0,0,0,2.23,2.23h8a2.23,2.23,0,0,0,2.23-2.23v-29.3l-9.81,9.73A6.86,6.86,0,0,1,111.83,119.05Z"/><path class="cls-2" d="M129.29,103.42v33.8a2.23,2.23,0,0,0,2.23,2.23h8a2.23,2.23,0,0,0,2.23-2.23V91.48Z"/><text class="cls-4" transform="translate(70.44 201.94)">K<tspan class="cls-5" x="10.38" y="0">E</tspan><tspan x="19.86" y="0">Y FIGURES</tspan></text></g></svg>