<svg xmlns="http://www.w3.org/2000/svg" viewBox="0 0 256 256"><defs><style>.cls-1{fill:#d3d7da;}.cls-2{fill:#56d0fc;}.cls-3{fill:none;stroke:#205081;stroke-miterlimit:10;}.cls-4{fill:#3ed6ca;}.cls-5,.cls-6{fill:#fec72e;}.cls-6{font-size:10.85px;font-family:Nunito-ExtraBold, Nunito;font-weight:700;}.cls-7{font-size:19.15px;fill:#205081;font-family:MyriadPro-Regular, Myriad Pro;}.cls-8{letter-spacing:0em;}.cls-9{letter-spacing:-0.06em;}.cls-10{letter-spacing:-0.02em;}.cls-11{letter-spacing:0em;}</style></defs><title>-</title><g id="Layer_1" data-name="Layer 1"><path class="cls-1" d="M143.09,125.74A3.22,3.22,0,0,1,140,128H79a3.21,3.21,0,0,1-3.21-3.21V86.09A3.2,3.2,0,0,1,78.29,83a3.31,3.31,0,0,0-.14,1v38.7a3.21,3.21,0,0,0,3.21,3.21h61A3.06,3.06,0,0,0,143.09,125.74Z"/><path class="cls-2" d="M110,125.77a.14.14,0,0,1,0,.06.28.28,0,0,1-.51-.07c-.16.15-.35,0-.42-.13L96,139.61a1.91,1.91,0,0,0,1.4,3.21h0a2,2,0,0,0,1.41-.62l11.94-13-.53-3.22A.24.24,0,0,1,110,125.77Z"/><path class="cls-2" d="M127.73,139.61l-12.67-13.82h-1.18a.25.25,0,0,1-.25.21h-.41l-.24,3.19,11.94,13a1.92,1.92,0,0,0,1.41.62h0A1.91,1.91,0,0,0,127.73,139.61Z"/><path class="cls-2" d="M111.81,73.52h0a1.77,1.77,0,0,1,1.77,1.77v5.42a0,0,0,0,1,0,0H110a0,0,0,0,1,0,0V75.3A1.77,1.77,0,0,1,111.81,73.52Z"/><path class="cls-3" d="M111.81,73.52h0a1.77,1.77,0,0,1,1.77,1.77v5.42a0,0,0,0,1,0,0H110a0,0,0,0,1,0,0V75.3A1.77,1.77,0,0,1,111.81,73.52Z"/><path class="cls-3" d="M108.78,125.83,96,139.61a1.91,1.91,0,0,0,1.4,3.21h0a2,2,0,0,0,1.41-.62l11.94-13"/><path class="cls-3" d="M114.94,125.83l12.79,13.78a1.91,1.91,0,0,1-1.4,3.21h0a1.92,1.92,0,0,1-1.41-.62l-11.94-13"/><path class="cls-2" d="M110.46,125.83v15.73a1.26,1.26,0,0,0,1.26,1.26h0a1.27,1.27,0,0,0,1.26-1.26V125.83"/><path class="cls-3" d="M110.46,125.83v15.73a1.26,1.26,0,0,0,1.26,1.26h0a1.27,1.27,0,0,0,1.26-1.26V125.83"/><path class="cls-2" d="M134.92,95.59a9.28,9.28,0,1,1-9.28-9.28v9.28Z"/><path class="cls-3" d="M134.92,95.59a9.28,9.28,0,1,1-9.28-9.28v9.28Z"/><path class="cls-4" d="M127.86,83.31V93.1h9.54S137.31,85.37,127.86,83.31Z"/><path class="cls-3" d="M127.86,83.31V93.1h9.54S137.31,85.37,127.86,83.31Z"/><rect class="cls-2" x="90.72" y="89.84" width="14.64" height="1.13"/><rect class="cls-5" x="84.09" y="88.54" width="4.46" height="4.05" rx="0.75" ry="0.75"/><rect class="cls-5" x="84.09" y="95.98" width="4.46" height="4.05" rx="0.75" ry="0.75"/><rect class="cls-5" x="84.09" y="103.42" width="4.46" height="4.05" rx="0.75" ry="0.75"/><rect class="cls-5" x="84.09" y="110.86" width="4.46" height="4.05" rx="0.75" ry="0.75"/><rect class="cls-3" x="84.09" y="88.54" width="4.46" height="4.05" rx="0.75" ry="0.75"/><rect class="cls-2" x="90.72" y="97.28" width="14.64" height="1.13"/><rect class="cls-3" x="84.09" y="95.98" width="4.46" height="4.05" rx="0.75" ry="0.75"/><rect class="cls-2" x="90.72" y="104.72" width="14.64" height="1.13"/><rect class="cls-3" x="84.09" y="103.42" width="4.46" height="4.05" rx="0.75" ry="0.75"/><rect class="cls-2" x="90.72" y="112.16" width="14.64" height="1.13"/><rect class="cls-3" x="84.09" y="110.86" width="4.46" height="4.05" rx="0.75" ry="0.75"/><path class="cls-3" d="M126.88,122.08h6.72a1.33,1.33,0,0,0,1.13-2l-7.4-12.15a.53.53,0,0,0-.91,0L119,120.07a1.32,1.32,0,0,0,1.12,2Z"/><text class="cls-6" transform="translate(124.81 119.9)">!</text><rect class="cls-3" x="78.15" y="80.72" width="67.42" height="45.12" rx="3.21" ry="3.21"/><text class="cls-7" transform="translate(9.4 202.27)">P<tspan class="cls-8" x="10.19" y="0">R</tspan><tspan x="20.55" y="0">OFI</tspan><tspan class="cls-9" x="47.65" y="0">T</tspan><tspan x="56.02" y="0">,RISK &amp; </tspan><tspan class="cls-10" x="114.4" y="0">C</tspan><tspan class="cls-11" x="125.1" y="0">OST PLANNER</tspan></text></g></svg>