<svg xmlns="http://www.w3.org/2000/svg" viewBox="0 0 256 256"><defs><style>.cls-1{fill:#ffd253;}.cls-2{fill:#d3d7da;}.cls-3,.cls-4{fill:none;stroke-miterlimit:10;}.cls-3{stroke:#205081;}.cls-4{stroke:#56d0fc;stroke-linecap:round;}.cls-5{fill:#56d0fc;}.cls-6{fill:#fff;}.cls-7{font-size:19.15px;fill:#205081;font-family:MyriadPro-Regular, Myriad Pro;}</style></defs><title>-</title><g id="Layer_1" data-name="Layer 1"><polygon class="cls-1" points="104.81 96.01 127.7 87.38 130.74 96.64 105.03 96.64 104.81 96.01"/><path class="cls-2" d="M98.14,125.93l-.6.12a6,6,0,0,0-1.59.55L89.49,89.43a3.2,3.2,0,0,0-3.14-2.65h-9.8a1.74,1.74,0,0,1,0-3.48h.26A1.73,1.73,0,0,0,78.55,85h9.8a3.2,3.2,0,0,1,3.14,2.65Z"/><path class="cls-2" d="M97.22,139a2.06,2.06,0,0,0,0,.35h-.58a5.34,5.34,0,0,1-1.21-.13,5.85,5.85,0,0,1-3.31-9.44,5.55,5.55,0,0,1,1.76-1.43,5.85,5.85,0,0,0,2.69,8.87,4.75,4.75,0,0,0,.86.25A5.15,5.15,0,0,0,97.22,139Z"/><path class="cls-2" d="M104.84,143.73a5.26,5.26,0,0,1-9.62-2.94,5.15,5.15,0,0,1,.23-1.53,5.24,5.24,0,0,1,1.14-2,4.75,4.75,0,0,0,.86.25,5.15,5.15,0,0,0-.23,1.53,2.06,2.06,0,0,0,0,.35,5.24,5.24,0,0,0,5.24,4.91A5.08,5.08,0,0,0,104.84,143.73Z"/><path class="cls-3" d="M78.55,81.3h13.2A3.19,3.19,0,0,1,94.9,84L97,96.64h46.45a1.77,1.77,0,0,1,1.78,1.77V117.7a3.13,3.13,0,0,1-2.52,3.07l-43.4,8.64A2.4,2.4,0,0,0,97.42,132h0a2.38,2.38,0,0,0,2.39,2.21h43.84a1.61,1.61,0,0,1,1.61,1.61h0a1.61,1.61,0,0,1-1.61,1.61h-45a5.84,5.84,0,0,1-5.85-5.84h0a5.84,5.84,0,0,1,4.73-5.74l.6-.12L91.49,87.42a3.2,3.2,0,0,0-3.14-2.64h-9.8A1.74,1.74,0,0,1,76.81,83h0A1.74,1.74,0,0,1,78.55,81.3Z"/><line class="cls-4" x1="100.82" y1="101.69" x2="104.45" y2="123.37"/><line class="cls-4" x1="107.03" y1="101.69" x2="109.91" y2="122.55"/><line class="cls-4" x1="113.31" y1="101.69" x2="115.6" y2="121.31"/><line class="cls-4" x1="119.33" y1="101.42" x2="121.09" y2="120.2"/><line class="cls-4" x1="125.41" y1="101.42" x2="126.72" y2="118.69"/><line class="cls-4" x1="131.89" y1="101.42" x2="132.54" y2="116.89"/><line class="cls-4" x1="137.77" y1="101.42" x2="137.77" y2="115.88"/><circle class="cls-5" cx="102.48" cy="138.79" r="5.26"/><path class="cls-6" d="M139.56,144.05a5.25,5.25,0,0,1-5.26-5.26"/><circle class="cls-3" cx="102.48" cy="138.79" r="5.26"/><circle class="cls-5" cx="139.56" cy="138.79" r="5.26"/><circle class="cls-3" cx="139.56" cy="138.79" r="5.26"/><polyline class="cls-3" points="101.92 96.64 127.7 87.08 131.04 96.64"/><text class="cls-7" transform="translate(84.4 201.66)">SUPPLIER</text></g></svg>