<svg xmlns="http://www.w3.org/2000/svg" viewBox="0 0 256 256"><defs><style>.cls-1{fill:#56d0fc;}.cls-2{fill:#d3d7da;}.cls-3,.cls-6,.cls-7,.cls-8{fill:none;stroke-miterlimit:10;}.cls-3{stroke:#205081;}.cls-4{fill:#fec72e;}.cls-5{fill:#4ebbf6;}.cls-6{stroke:#ffd253;stroke-linecap:round;}.cls-7{stroke:#56d0fc;}.cls-8{stroke:#3fa9f5;stroke-linecap:square;stroke-dasharray:1 3;}.cls-9{fill:#fff;}.cls-10{fill:#535463;}.cls-11{font-size:19.15px;fill:#205081;font-family:MyriadPro-Regular, Myriad Pro;}.cls-12{letter-spacing:-0.03em;}</style></defs><title>-</title><g id="Layer_1" data-name="Layer 1"><polyline class="cls-1" points="129.75 94.17 129.75 106.74 142.58 106.74"/><path class="cls-2" d="M139.41,169.24v2.33a1.61,1.61,0,0,1-1.61,1.61H84.51a1.61,1.61,0,0,1-1.62-1.61V99.67a1.61,1.61,0,0,1,1.62-1.61h2v69.57a1.61,1.61,0,0,0,1.61,1.61Z"/><path class="cls-3" d="M86.48,95.73v71.9a1.61,1.61,0,0,0,1.61,1.61h53.3a1.61,1.61,0,0,0,1.61-1.61V106.76a1.6,1.6,0,0,0-.52-1.19l-12-11a1.6,1.6,0,0,0-1.09-.42H88.09A1.61,1.61,0,0,0,86.48,95.73Z"/><polyline class="cls-3" points="129.75 94.17 129.75 106.74 142.58 106.74"/><circle class="cls-4" cx="118.44" cy="107.87" r="4.75"/><circle class="cls-3" cx="118.44" cy="107.87" r="4.75"/><line class="cls-3" x1="92.67" y1="100.46" x2="105" y2="100.46"/><line class="cls-3" x1="92.67" y1="106.74" x2="100.13" y2="106.74"/><path class="cls-5" d="M126.72,128.12a2.06,2.06,0,0,1-1.22.41,2,2,0,0,1-1.59-.78l-3.59-4.7c-.59,8.37-3.32,14.88-8.13,19.39a25.25,25.25,0,0,1-16.8,6.48c-.42,0-.67,0-.73,0a2,2,0,0,1-1.87-2.12,2,2,0,0,1,2.11-1.87c.15,0,8.44.39,14.59-5.42,4-3.81,6.33-9.43,6.84-16.77l-4.08,4.6a2,2,0,0,1-3-2.66l9.3-10.48,8.54,11.13A2,2,0,0,1,126.72,128.12Z"/><line class="cls-6" x1="123.19" y1="136.16" x2="132.17" y2="145.33"/><line class="cls-6" x1="123.19" y1="145.4" x2="132.17" y2="136.24"/><line class="cls-7" x1="97.97" y1="126.46" x2="106.95" y2="135.62"/><line class="cls-7" x1="97.97" y1="135.7" x2="106.95" y2="126.53"/><line class="cls-8" x1="94" y1="154.81" x2="136.17" y2="154.81"/><line class="cls-3" x1="94" y1="161.7" x2="136.17" y2="161.7"/><path class="cls-9" d="M81.47,125.4c10.65.14,15.7-6.33,17.14-8.62a1.37,1.37,0,0,0,0-1.55c-1.52-2.19-6.72-8.39-17.11-8.76-10.39.37-15.59,6.57-17.11,8.76a1.41,1.41,0,0,0,0,1.55C65.78,119.07,70.82,125.54,81.47,125.4Z"/><path class="cls-3" d="M81.47,125.4c10.65.14,15.7-6.33,17.14-8.62a1.37,1.37,0,0,0,0-1.55c-1.52-2.19-6.72-8.39-17.11-8.76-10.39.37-15.59,6.57-17.11,8.76a1.41,1.41,0,0,0,0,1.55C65.78,119.07,70.82,125.54,81.47,125.4Z"/><circle class="cls-5" cx="81.47" cy="115.93" r="7.17"/><circle class="cls-10" cx="81.47" cy="115.93" r="3.58"/><circle class="cls-9" cx="79.11" cy="118.53" r="1.2"/><circle class="cls-9" cx="83.27" cy="114.35" r="1.84"/><text class="cls-11" transform="translate(67.65 220.6)">VIS<tspan class="cls-12" x="24.71" y="0">U</tspan><tspan x="36.45" y="0">AL PLAN</tspan></text></g></svg>