<svg xmlns="http://www.w3.org/2000/svg" viewBox="0 0 256 256"><defs><style>.cls-1{fill:#fff;}.cls-2{fill:#d3d7da;}.cls-3{fill:none;stroke:#205081;stroke-miterlimit:10;}.cls-4{fill:#4ebbf6;}.cls-5{fill:#ffd253;}.cls-6{font-size:19.15px;fill:#205081;font-family:MyriadPro-Regular, Myriad Pro;}.cls-7{letter-spacing:-0.02em;}.cls-8{letter-spacing:0em;}.cls-9{letter-spacing:0em;}.cls-10{letter-spacing:-0.02em;}.cls-11{letter-spacing:0.03em;}.cls-12{letter-spacing:-0.03em;}.cls-13{letter-spacing:0em;}</style></defs><title>-</title><g id="Layer_1" data-name="Layer 1"><path class="cls-1" d="M122.47,133c6.05,0,7.55-6.84,7.55-6.84,1.91.41,2.21-4.82,1.46-5.16a1.14,1.14,0,0,0-.75-.08.44.44,0,0,1-.53-.4c-.21-2-2-7.86-7.92-7.86h-.19c-5.88,0-7,5.85-7.2,7.86a.45.45,0,0,1-.53.4,1.17,1.17,0,0,0-.76.08c-.74.34-.44,5.57,1.46,5.16,0,0,1.5,6.84,7.56,6.84Z"/><path class="cls-2" d="M91.38,124.52s.38-8.17,7.21-7.86,8.07,7.65,8.07,7.65-.65.67-1.56-.19-1.88-2.78-3.21-2.5-2.73,3.32-4.91,3.84S91.38,124.52,91.38,124.52Z"/><path class="cls-2" d="M114.84,120.65s.34-8,7.44-8,7.92,7.86,7.92,7.86-.36.29-1.19-.21-2-2.78-3.78-2.62-2.37,3.92-6.32,4S114.84,120.65,114.84,120.65Z"/><path class="cls-2" d="M136.92,124.52s.58-7.86,7.21-7.86,8.05,7.44,8.05,7.44a1.63,1.63,0,0,1-1.19.2c-.77-.13-2-2.76-3.57-2.62-1.76.17-2.31,4.48-6.89,4A18.45,18.45,0,0,1,136.92,124.52Z"/><path class="cls-1" d="M122.54,137.1a7.22,7.22,0,0,0,6.21-3.74s12,1.12,12,12H104.37c0-10.92,12-12,12-12A7.22,7.22,0,0,0,122.54,137.1Z"/><path class="cls-3" d="M122.54,137.1a7.22,7.22,0,0,0,6.21-3.74s12,1.12,12,12H104.37c0-10.92,12-12,12-12A7.22,7.22,0,0,0,122.54,137.1Z"/><path class="cls-2" d="M97.71,136.79A7.26,7.26,0,0,1,96,137c-6-.05-7.48-6.84-7.48-6.84-1.91.41-2.21-4.82-1.46-5.16a1.14,1.14,0,0,1,.75-.08.44.44,0,0,0,.53-.4c.21-2,1.32-7.86,7.21-7.86h.19a7.26,7.26,0,0,1,1.59.16c-4.52.93-5.45,5.88-5.64,7.7a.45.45,0,0,1-.53.4,1.17,1.17,0,0,0-.76.08c-.74.34-.44,5.57,1.46,5.16C91.9,130.16,93.1,135.65,97.71,136.79Z"/><path class="cls-2" d="M90.23,138c-3.54,1.11-9,4-9,11.4H77.87c0-10.92,12-12,12-12A5.42,5.42,0,0,0,90.23,138Z"/><path class="cls-2" d="M121.83,67.68c-6.63,1.12-6.63,8.6-6.63,8.6h-3.35s0-8.25,7.69-8.73A9.33,9.33,0,0,1,121.83,67.68Z"/><path class="cls-2" d="M122.86,88.44a7.24,7.24,0,0,1-1.61.48,9.17,9.17,0,0,1-1.63.14h0a8.39,8.39,0,0,1-3.31-.62c-3.8-1.63-4.09-5.91-4.09-5.91s-2.14,0-2.19-1.7,0-3.18,0-3.18.1-1.21,1.93-1.36a7.9,7.9,0,0,0,2.46.19,1.52,1.52,0,0,0-1,1.17s0,1.54,0,3.18,2.2,1.7,2.2,1.7.29,4.28,4.09,5.91Z"/><path class="cls-2" d="M123.08,88.44v.61h-.16a9.64,9.64,0,0,1-1.67-.14,9.17,9.17,0,0,1-1.63.14v2.6h-3.23a7.3,7.3,0,0,0-7.3,7.3v3.6a2.05,2.05,0,0,0,2,2H107.8a2,2,0,0,1-2-2V99a7.29,7.29,0,0,1,7.29-7.3h3.23V88.44Z"/><path class="cls-3" d="M99,137c6.06,0,7.55-6.84,7.55-6.84,1.91.41,2.21-4.82,1.46-5.16a1.14,1.14,0,0,0-.75-.08.45.45,0,0,1-.53-.4c-.21-2-2-7.86-7.92-7.86h-.18c-5.89,0-7,5.85-7.21,7.86a.45.45,0,0,1-.53.4,1.14,1.14,0,0,0-.75.08c-.75.34-.45,5.57,1.46,5.16,0,0,1.49,6.84,7.55,6.84Z"/><path class="cls-3" d="M91.38,124.52a6.75,6.75,0,0,0,5.19,1c3.36-.5,3.36-4,5.49-3.92s1.69,2.89,4.63,2.9"/><path class="cls-4" d="M99,141.12a7.22,7.22,0,0,0,6.2-3.74s12,1.12,12,12H80.86c0-10.92,12-12,12-12A7.22,7.22,0,0,0,99,141.12Z"/><path class="cls-3" d="M99,141.12a7.22,7.22,0,0,0,6.2-3.74s12,1.12,12,12H80.86c0-10.92,12-12,12-12A7.22,7.22,0,0,0,99,141.12Z"/><path class="cls-3" d="M144.5,137c6.06,0,7.56-6.84,7.56-6.84,1.9.41,2.2-4.82,1.46-5.16a1.17,1.17,0,0,0-.76-.08.45.45,0,0,1-.53-.4c-.2-2-2-7.86-7.91-7.86h-.19c-5.88,0-7,5.85-7.21,7.86a.44.44,0,0,1-.53.4,1.14,1.14,0,0,0-.75.08c-.74.34-.45,5.57,1.46,5.16,0,0,1.5,6.84,7.55,6.84Z"/><path class="cls-3" d="M136.92,124.52a6.77,6.77,0,0,0,5.19,1c3.37-.5,3.37-4,5.5-3.92s1.68,2.89,4.62,2.9"/><path class="cls-5" d="M144.58,141.12a7.22,7.22,0,0,0,6.21-3.74s12,1.12,12,12H126.41c0-10.92,12-12,12-12A7.22,7.22,0,0,0,144.58,141.12Z"/><path class="cls-3" d="M144.58,141.12a7.22,7.22,0,0,0,6.21-3.74s12,1.12,12,12H126.41c0-10.92,12-12,12-12A7.22,7.22,0,0,0,144.58,141.12Z"/><path class="cls-3" d="M122.47,133c6.05,0,7.55-6.84,7.55-6.84,1.91.41,2.21-4.82,1.46-5.16a1.14,1.14,0,0,0-.75-.08.44.44,0,0,1-.53-.4c-.21-2-2-7.86-7.92-7.86h-.19c-5.88,0-7,5.85-7.2,7.86a.45.45,0,0,1-.53.4,1.17,1.17,0,0,0-.76.08c-.74.34-.44,5.57,1.46,5.16,0,0,1.5,6.84,7.56,6.84Z"/><path class="cls-3" d="M114.89,120.5a6.74,6.74,0,0,0,5.18,1c3.37-.5,3.37-4,5.5-3.92s1.68,2.89,4.63,2.9"/><line class="cls-3" x1="111.79" y1="101.94" x2="98.77" y2="116.66"/><line class="cls-3" x1="122.54" y1="101.97" x2="122.54" y2="112.64"/><line class="cls-3" x1="133.29" y1="101.94" x2="146.31" y2="116.66"/><path class="cls-2" d="M117.8,76.31a12.57,12.57,0,0,0,3.56-1,7.9,7.9,0,0,0,2.94-2.53c.29-.4.7-1.14,1.28-1.15s.71.41.89.76a13,13,0,0,1,.43,1.34,4.77,4.77,0,0,0,1.26,1.63,2.92,2.92,0,0,0,2.06.85l.08-2s-.31-6.8-7.77-6.62c-6.73.17-7.51,7.14-7.6,8.5A7.28,7.28,0,0,0,117.8,76.31Z"/><path class="cls-3" d="M130.21,76.28c.55-4-1.43-9.11-7.68-8.73-7.68.48-7.68,8.73-7.68,8.73"/><path class="cls-3" d="M114.91,76.29c.63.17,6,1.39,10.75-4.77,0,0,1.29,4.83,4.64,5,1.28,0,1.69,0,1.76.25s0,4.69,0,4.69-.26,1.31-2.18,1c0,0-.35,6.57-7.3,6.57a7.08,7.08,0,0,1-7.4-6.53s-2.14,0-2.19-1.7,0-3.18,0-3.18.09-1.21,1.92-1.36h-.06"/><path class="cls-4" d="M117.93,91.66l5.39,5.3,4.08-5.3,2.9.07s6,1.13,6.27,6.8v4a2.05,2.05,0,0,1-2,2H110.79a2.05,2.05,0,0,1-2.05-2V98.35s.72-5.35,5.54-6.48Z"/><path class="cls-3" d="M119.27,88.44v3.22H116a7.3,7.3,0,0,0-7.3,7.3v3.6a2.05,2.05,0,0,0,2.05,2h23.74a2.05,2.05,0,0,0,2.05-2V99a7.3,7.3,0,0,0-7.3-7.3h-3.2V88.44"/><text class="cls-6" transform="translate(50.88 201.35)">SUB<tspan class="cls-7" x="32.21" y="0">C</tspan><tspan class="cls-8" x="42.92" y="0">ONT</tspan><tspan class="cls-9" x="78.24" y="0">R</tspan><tspan class="cls-10" x="88.64" y="0">A</tspan><tspan class="cls-11" x="100.07" y="0">C</tspan><tspan class="cls-12" x="111.71" y="0">T</tspan><tspan class="cls-13" x="120.72" y="0">ORS</tspan></text></g></svg>