<svg xmlns="http://www.w3.org/2000/svg" viewBox="0 0 256 256"><defs><style>.cls-1{fill:#fec72e;}.cls-2{fill:#d3d7da;}.cls-3,.cls-6{fill:none;stroke-miterlimit:10;}.cls-3{stroke:#205081;}.cls-4{fill:#56d0fc;}.cls-5{fill:#fff;}.cls-6{stroke:#ffd253;stroke-linecap:square;stroke-dasharray:1 3;}.cls-7{font-size:16.78px;font-family:NexaHeavy, Nexa Heavy;}.cls-7,.cls-8{fill:#205081;}.cls-8{font-size:19.15px;font-family:MyriadPro-Regular, Myriad Pro;}.cls-9{letter-spacing:0.02em;}</style></defs><title>-</title><g id="Layer_1" data-name="Layer 1"><path class="cls-1" d="M126.42,76.22v9.84a3.25,3.25,0,0,0,3.25,3.25h9.58"/><path class="cls-2" d="M113.33,142.82v5H90a3.29,3.29,0,0,1-3.3-3.29v-60a3.3,3.3,0,0,1,3.3-3.3h.53v58.31a3.29,3.29,0,0,0,3.3,3.29Z"/><path class="cls-2" d="M145.5,151.06v1.86a3.15,3.15,0,0,1-3.14,3.14H112.64a3.15,3.15,0,0,1-3.14-3.14v-10.1h3.83v5.1a3.15,3.15,0,0,0,3.15,3.14Z"/><path class="cls-3" d="M139.25,88.81v54H94a3.29,3.29,0,0,1-3.3-3.29v-60a3.3,3.3,0,0,1,3.3-3.3h32.86Z"/><path class="cls-3" d="M126.42,76.22v9.84a3.25,3.25,0,0,0,3.25,3.25h9.58"/><rect class="cls-4" x="113.5" y="109.52" width="36" height="41.54" rx="3.14" ry="3.14"/><rect class="cls-3" x="113.5" y="109.52" width="36" height="41.54" rx="3.14" ry="3.14"/><rect class="cls-5" x="118.67" y="115.06" width="25.67" height="7.38" rx="1.42" ry="1.42"/><rect class="cls-5" x="118.67" y="128.81" width="5.5" height="5.75" rx="0.9" ry="0.9"/><rect class="cls-5" x="129.25" y="128.81" width="5.5" height="5.75" rx="0.9" ry="0.9"/><rect class="cls-5" x="139.83" y="128.81" width="5.5" height="5.75" rx="0.9" ry="0.9"/><rect class="cls-5" x="118.67" y="139.37" width="5.5" height="5.75" rx="0.9" ry="0.9"/><rect class="cls-5" x="129.25" y="139.37" width="5.5" height="5.75" rx="0.9" ry="0.9"/><rect class="cls-5" x="139.83" y="139.37" width="5.5" height="5.75" rx="0.9" ry="0.9"/><rect class="cls-3" x="118.67" y="115.06" width="25.67" height="7.38" rx="1.42" ry="1.42"/><rect class="cls-3" x="118.67" y="128.81" width="5.5" height="5.75" rx="0.9" ry="0.9"/><rect class="cls-3" x="129.25" y="128.81" width="5.5" height="5.75" rx="0.9" ry="0.9"/><rect class="cls-3" x="139.83" y="128.81" width="5.5" height="5.75" rx="0.9" ry="0.9"/><rect class="cls-3" x="118.67" y="139.37" width="5.5" height="5.75" rx="0.9" ry="0.9"/><rect class="cls-3" x="129.25" y="139.37" width="5.5" height="5.75" rx="0.9" ry="0.9"/><rect class="cls-3" x="139.83" y="139.37" width="5.5" height="5.75" rx="0.9" ry="0.9"/><line class="cls-3" x1="109.56" y1="85.73" x2="121.38" y2="85.73"/><line class="cls-3" x1="109.56" y1="90.43" x2="123.38" y2="90.43"/><line class="cls-6" x1="95.88" y1="104.56" x2="133.38" y2="104.56"/><line class="cls-3" x1="97.13" y1="112.68" x2="108.75" y2="112.68"/><line class="cls-3" x1="97.13" y1="117.81" x2="108.75" y2="117.81"/><line class="cls-3" x1="97.13" y1="122.93" x2="108.75" y2="122.93"/><line class="cls-3" x1="97.13" y1="128.06" x2="108.75" y2="128.06"/><line class="cls-3" x1="97.13" y1="133.18" x2="108.75" y2="133.18"/><text class="cls-7" transform="translate(95.88 97.03) scale(0.79 1)">$</text><line class="cls-3" x1="109.56" y1="95.64" x2="131" y2="95.64"/><text class="cls-8" transform="translate(88.89 201.86)">BUDG<tspan class="cls-9" x="47.9" y="0">E</tspan><tspan x="57.63" y="0">T</tspan></text></g></svg>