<svg xmlns="http://www.w3.org/2000/svg" viewBox="0 0 256 256"><defs><style>.cls-1,.cls-6{fill:none;stroke-miterlimit:10;}.cls-1{stroke:#205081;}.cls-2{fill:#fff;}.cls-3{fill:#56d0fc;}.cls-4{fill:#d3d7da;}.cls-5{fill:#fec72e;}.cls-6{stroke:#fff;stroke-linecap:round;}.cls-7{font-size:19.15px;fill:#205081;font-family:MyriadPro-Regular, Myriad Pro;}.cls-8{letter-spacing:-0.01em;}.cls-9{letter-spacing:0em;}</style></defs><title>-</title><g id="Layer_1" data-name="Layer 1"><line class="cls-1" x1="74.89" y1="114.77" x2="82.8" y2="106.44"/><polyline class="cls-2" points="82.8 114.02 82.8 86.51 111.34 86.51 131.09 86.51 131.09 114.77"/><polyline class="cls-1" points="135.91 114.78 135.91 82.53 116.16 82.53 91.38 82.53 87.61 82.53 87.61 86.52"/><polyline class="cls-1" points="91.38 82.53 91.38 78.99 119.92 78.99 139.67 78.99 139.67 114.78"/><path class="cls-3" d="M82.8,115V86.51h48.29v28.26m-5.76,0v-23H87.83v23"/><path class="cls-1" d="M82.8,114.77V86.51h48.29v28.26m-5.76,0v-23H87.83v23"/><line class="cls-1" x1="93.67" y1="95.94" x2="119.92" y2="95.94"/><line class="cls-1" x1="93.67" y1="100.69" x2="119.92" y2="100.69"/><line class="cls-1" x1="93.67" y1="105.44" x2="119.92" y2="105.44"/><line class="cls-1" x1="93.67" y1="110.19" x2="119.92" y2="110.19"/><line class="cls-1" x1="147.03" y1="114.87" x2="139.67" y2="106.88"/><path class="cls-4" d="M143.17,152.8v1.3a2.5,2.5,0,0,1-2.5,2.5H73.17a2.5,2.5,0,0,1-2.5-2.5V119.67a1.6,1.6,0,0,1,.48-1.15l3.74-3.75V150.3a2.5,2.5,0,0,0,2.5,2.5Z"/><path class="cls-1" d="M74.89,114.77h71.89a.39.39,0,0,1,.39.39v34.94a2.5,2.5,0,0,1-2.5,2.5H77.17a2.5,2.5,0,0,1-2.5-2.5V115A.22.22,0,0,1,74.89,114.77Z"/><rect class="cls-5" x="93.67" y="123.36" width="35.83" height="20.75" rx="1.96" ry="1.96"/><rect class="cls-1" x="93.67" y="123.36" width="35.83" height="20.75" rx="1.96" ry="1.96"/><line class="cls-6" x1="103.67" y1="130.02" x2="119.25" y2="130.02"/><line class="cls-6" x1="103.58" y1="133.69" x2="119.17" y2="133.69"/><line class="cls-6" x1="103.5" y1="137.36" x2="119.08" y2="137.36"/><text class="cls-7" transform="translate(70.29 202.59)">EQUI<tspan class="cls-8" x="39.59" y="0">P</tspan><tspan class="cls-9" x="49.55" y="0">MENT</tspan></text></g></svg>