<svg xmlns="http://www.w3.org/2000/svg" viewBox="0 0 256 256"><defs><style>.cls-1{fill:#56d0fc;}.cls-2{fill:none;stroke:#205081;stroke-miterlimit:10;}.cls-3{fill:#d3d7da;}.cls-4{fill:#fec72e;}.cls-5{fill:#fff;}.cls-6{font-size:19.15px;fill:#205081;font-family:MyriadPro-Regular, Myriad Pro;}</style></defs><title>-</title><g id="Layer_1" data-name="Layer 1"><path class="cls-1" d="M81,95.71h65.75V85.88s-.46-2.26-3.79-2.26H84.13s-2.84.46-3.13,3.13A87.73,87.73,0,0,0,81,95.71Z"/><line class="cls-2" x1="85.13" y1="117.81" x2="142.75" y2="117.81"/><line class="cls-2" x1="85.13" y1="129.98" x2="142.75" y2="129.98"/><path class="cls-3" d="M141.75,140.33v1.87a3.13,3.13,0,0,1-3.13,3.13H79.13A3.13,3.13,0,0,1,76,142.2V91.75a3.13,3.13,0,0,1,3.13-3.13h1.93V137.2a3.13,3.13,0,0,0,3.13,3.13Z"/><rect class="cls-2" x="81" y="83.62" width="65.75" height="56.71" rx="3.13" ry="3.13"/><line class="cls-2" x1="81" y1="96.04" x2="146.75" y2="96.04"/><line class="cls-2" x1="85.13" y1="105.64" x2="142.75" y2="105.64"/><rect class="cls-4" x="95.5" y="102.54" width="17.08" height="5.67" rx="2.83" ry="2.83"/><rect class="cls-1" x="102.5" y="114.71" width="22.67" height="5.67" rx="2.83" ry="2.83"/><rect class="cls-4" x="115.5" y="126.87" width="21.42" height="5.67" rx="2.83" ry="2.83"/><rect class="cls-2" x="95.5" y="102.54" width="17.08" height="5.67" rx="2.83" ry="2.83"/><rect class="cls-2" x="102.5" y="114.71" width="22.67" height="5.67" rx="2.83" ry="2.83"/><rect class="cls-2" x="115.5" y="126.87" width="21.42" height="5.67" rx="2.83" ry="2.83"/><rect class="cls-5" x="86.42" y="88.14" width="3.95" height="3.95"/><rect class="cls-5" x="93.53" y="88.14" width="3.95" height="3.95"/><rect class="cls-5" x="100.63" y="88.14" width="3.95" height="3.95"/><text class="cls-6" transform="translate(80.36 201.71)">TIMELINE</text></g></svg>