<svg xmlns="http://www.w3.org/2000/svg" viewBox="0 0 256 256"><defs><style>.cls-1{fill:#d3d7da;}.cls-2{fill:#56d0fc;}.cls-3,.cls-7{fill:#fff;}.cls-4{fill:#fec72e;}.cls-5,.cls-6{fill:none;stroke-miterlimit:10;}.cls-5{stroke:#205081;}.cls-6{stroke:#fff;stroke-linecap:round;stroke-width:1.5px;}.cls-7{font-size:9.94px;font-family:NexaHeavy, Nexa Heavy;}.cls-8{letter-spacing:-0.02em;}.cls-9{font-size:19.15px;fill:#205081;font-family:MyriadPro-Regular, Myriad Pro;}.cls-10{letter-spacing:-0.01em;}.cls-11{letter-spacing:-0.08em;}</style></defs><title>-</title><g id="Layer_1" data-name="Layer 1"><path class="cls-1" d="M148.05,103.39l-2.78,41.9a4.54,4.54,0,0,1-4.53,4.24H91.49A4.55,4.55,0,0,1,87,145.28l-2.07-32.17a3.78,3.78,0,0,1,3.78-4H115.4a2.54,2.54,0,0,0,2.44-1.82l1.56-5.33A3.73,3.73,0,0,1,123,99.25h21.21A3.88,3.88,0,0,1,148.05,103.39Z"/><path class="cls-2" d="M89.26,104.7V86.17a2.38,2.38,0,0,1,2.37-2.38h39.85a1.2,1.2,0,0,1,1.2,1.21v9.88H119.26a3.64,3.64,0,0,0-3.55,3.4l-1.35,4.59s-.06,1.83-3.66,1.83Z"/><path class="cls-3" d="M81.87,106.14a15.29,15.29,0,0,1,0-4.68c.45-1.58,3.6-2.44,5.18-2.12a6.86,6.86,0,0,0,2.07.22l.36,4.78-3.33.36Z"/><path class="cls-3" d="M93.58,83.49l1.26-4.38a1,1,0,0,1,1.15-.7l23.27,4.77-.51.73Z"/><path class="cls-3" d="M133,86.14l3.61.75a1.27,1.27,0,0,1,1,1.57l-1.7,6.42-3.07-.27Z"/><path class="cls-3" d="M144.57,99l-2.77,41.89a4.54,4.54,0,0,1-4.53,4.24H88a4.52,4.52,0,0,1-4.52-4.24l-2.08-32.18a3.79,3.79,0,0,1,3.78-4h26.73a2.54,2.54,0,0,0,2.44-1.83l1.56-5.33a3.72,3.72,0,0,1,3.57-2.66H140.7A3.88,3.88,0,0,1,144.57,99Z"/><circle class="cls-4" cx="110.88" cy="124.39" r="15.78"/><path class="cls-3" d="M126.66,124.39a15.77,15.77,0,0,1-24,13.49,15.55,15.55,0,0,0,5.22.89,15.78,15.78,0,0,0,8.2-29.27A15.77,15.77,0,0,1,126.66,124.39Z"/><circle class="cls-5" cx="110.88" cy="124.39" r="15.78"/><path class="cls-5" d="M81.64,107.16h0l-.23-3.64a3.78,3.78,0,0,1,3.78-4h4.07"/><path class="cls-5" d="M89.26,104.7V86.17a2.38,2.38,0,0,1,2.37-2.38h39.85a1.2,1.2,0,0,1,1.2,1.21v9.88"/><path class="cls-5" d="M132.68,85.93l4.08.83a1.28,1.28,0,0,1,1,1.59l-1.8,6.53"/><path class="cls-5" d="M93.58,83.79l1.21-4.67A1,1,0,0,1,96,78.4l26.32,5.39"/><line class="cls-6" x1="97.12" y1="89.68" x2="113.94" y2="89.68"/><line class="cls-6" x1="97.12" y1="95.75" x2="116.47" y2="95.75"/><line class="cls-6" x1="97.12" y1="101.81" x2="114.39" y2="101.81"/><path class="cls-5" d="M144.57,99l-2.77,41.89a4.54,4.54,0,0,1-4.53,4.24H88a4.52,4.52,0,0,1-4.52-4.24l-2.08-32.18a3.79,3.79,0,0,1,3.78-4h26.73a2.54,2.54,0,0,0,2.44-1.83l1.56-5.33a3.72,3.72,0,0,1,3.57-2.66H140.7A3.88,3.88,0,0,1,144.57,99Z"/><text class="cls-7" transform="translate(100.67 127.68)">DC<tspan class="cls-8" x="14.4" y="0">P</tspan></text><text class="cls-9" transform="translate(70.44 202.18)"><tspan class="cls-10">M</tspan><tspan class="cls-11" x="15.21" y="0">A</tspan><tspan x="25.45" y="0">TERIALS</tspan></text></g></svg>