<svg xmlns="http://www.w3.org/2000/svg" xmlns:xlink="http://www.w3.org/1999/xlink" viewBox="0 0 85.14 125.65"><defs><style>.cls-1{fill:#ffd253;}.cls-2{fill:#d3d7da;}.cls-3,.cls-4{fill:none;stroke-miterlimit:10;}.cls-3{stroke:#205081;}.cls-4{stroke:#56d0fc;stroke-linecap:round;}.cls-5{fill:#56d0fc;}.cls-6{fill:#fff;}.cls-7{isolation:isolate;font-size:19.15px;fill:#205081;font-family:MyriadPro-Regular, Myriad Pro;}</style><symbol id="New_Symbol" data-name="New Symbol" viewBox="0 0 85.14 125.65"><polygon class="cls-1" points="30 15.21 52.89 6.58 55.93 15.84 30.22 15.84 30 15.21"/><path class="cls-2" d="M23.33,45.13l-.6.12a6,6,0,0,0-1.59.55L14.68,8.63A3.2,3.2,0,0,0,11.54,6H1.74a1.74,1.74,0,0,1,0-3.48H2A1.73,1.73,0,0,0,3.74,4.2h9.8a3.2,3.2,0,0,1,3.14,2.65Z"/><path class="cls-2" d="M22.41,58.2a2,2,0,0,0,0,.35h-.58a5.47,5.47,0,0,1-1.21-.13,5.86,5.86,0,0,1-4.52-6.93A5.93,5.93,0,0,1,17.31,49a5.55,5.55,0,0,1,1.76-1.43,5.85,5.85,0,0,0,1.36,8.16,6.07,6.07,0,0,0,1.33.71,5.27,5.27,0,0,0,.86.25A5,5,0,0,0,22.41,58.2Z"/><path class="cls-2" d="M30,62.93a5.26,5.26,0,0,1-9.39-4.47,5.32,5.32,0,0,1,1.14-2,5.27,5.27,0,0,0,.86.25,5.3,5.3,0,0,0-.23,1.53,2,2,0,0,0,0,.35,5.24,5.24,0,0,0,5.24,4.91A5.06,5.06,0,0,0,30,62.93Z"/><path class="cls-3" d="M3.74.5h13.2a3.19,3.19,0,0,1,3.15,2.7l2.1,12.64H68.64a1.77,1.77,0,0,1,1.78,1.76h0V36.9A3.14,3.14,0,0,1,67.9,40L24.5,48.61a2.4,2.4,0,0,0-1.89,2.59h0A2.38,2.38,0,0,0,25,53.41H68.84A1.61,1.61,0,0,1,70.45,55h0a1.61,1.61,0,0,1-1.61,1.61h-45A5.83,5.83,0,0,1,18,50.8h0a5.84,5.84,0,0,1,4.73-5.74l.6-.12L16.68,6.62A3.21,3.21,0,0,0,13.54,4H3.74A1.74,1.74,0,0,1,2,2.24v0H2A1.73,1.73,0,0,1,3.74.5Z"/><line class="cls-4" x1="26.01" y1="20.89" x2="29.64" y2="42.57"/><line class="cls-4" x1="32.22" y1="20.89" x2="35.1" y2="41.75"/><line class="cls-4" x1="38.5" y1="20.89" x2="40.79" y2="40.51"/><line class="cls-4" x1="44.52" y1="20.62" x2="46.28" y2="39.4"/><line class="cls-4" x1="50.6" y1="20.62" x2="51.91" y2="37.89"/><line class="cls-4" x1="57.08" y1="20.62" x2="57.73" y2="36.09"/><line class="cls-4" x1="62.96" y1="20.62" x2="62.96" y2="35.08"/><circle class="cls-5" cx="27.67" cy="57.99" r="5.26"/><path class="cls-6" d="M64.75,63.25A5.25,5.25,0,0,1,59.49,58v0"/><circle class="cls-3" cx="27.67" cy="57.99" r="5.26"/><circle class="cls-5" cx="64.75" cy="57.99" r="5.26"/><circle class="cls-3" cx="64.75" cy="57.99" r="5.26"/><polyline class="cls-3" points="27.11 15.84 52.89 6.28 56.23 15.84"/><text class="cls-7" transform="translate(9.59 120.86)">SUPPLIER</text></symbol></defs><title>Asset 1</title><g id="Layer_2" data-name="Layer 2"><g id="Layer_1-2" data-name="Layer 1"><use width="85.14" height="125.65" xlink:href="#New_Symbol"/></g></g></svg>