<svg xmlns="http://www.w3.org/2000/svg" viewBox="0 0 189.28 88.54"><defs><style>.cls-1{opacity:0.67;}.cls-2{fill:#d3d7da;}.cls-3{fill:#fff;}.cls-4{fill:#fec72e;}.cls-5,.cls-8{fill:none;stroke-miterlimit:10;}.cls-5{stroke:#205081;}.cls-6{fill:#c9cdd0;}.cls-7{fill:#56d0fc;}.cls-8{stroke:#56d0fc;stroke-width:2px;}</style></defs><title>ar</title><g id="Layer_2" data-name="Layer 2"><g id="Layer_1-2" data-name="Layer 1"><g class="cls-1"><path class="cls-2" d="M108.79,33.35a12.75,12.75,0,0,1-6.16,1.26L94.9,38.22V53.88l15.25-7.12a.72.72,0,0,0,.41-.65V32.43a1,1,0,0,0-.1-.43A6.35,6.35,0,0,1,108.79,33.35Z"/><path class="cls-2" d="M81.7,32.06l1.41-.12a17.42,17.42,0,0,0-2.48-1.15,1.49,1.49,0,0,1-.65-.45,6.55,6.55,0,0,0-.72,1.88.43.43,0,0,1,0,.05s0,.1,0,.16V46.11a.72.72,0,0,0,.41.65L94.9,53.88V38.22Z"/><path class="cls-2" d="M108.79,33.35a12.75,12.75,0,0,1-6.16,1.26L94.9,38.22V53.88l15.25-7.12a.72.72,0,0,0,.41-.65V32.43a1,1,0,0,0-.1-.43A6.35,6.35,0,0,1,108.79,33.35Z"/><line class="cls-2" x1="99.36" y1="51.79" x2="94.9" y2="47.42"/><line class="cls-2" x1="102.08" y1="50.52" x2="94.9" y2="43.49"/><line class="cls-2" x1="104.79" y1="49.26" x2="94.9" y2="39.58"/><line class="cls-2" x1="107.5" y1="47.99" x2="96.67" y2="37.39"/><line class="cls-2" x1="110.22" y1="46.72" x2="99.38" y2="36.12"/><line class="cls-2" x1="110.56" y1="43.13" x2="102.1" y2="34.85"/><path class="cls-2" d="M110.56,39.24,106,34.78"/></g><path class="cls-3" d="M95,36.36a.17.17,0,0,1,0-.12L80.9,29.63a1,1,0,0,0-1.38.88V44.19a.72.72,0,0,0,.41.65l15.08,7Z"/><path class="cls-4" d="M109.47,29.63,95.3,36.24a.17.17,0,0,1,0,.12V51.88l15.08-7a.72.72,0,0,0,.41-.65V30.51A1,1,0,0,0,109.47,29.63Z"/><path class="cls-5" d="M95.19,52V36.3l14.28-6.67a1,1,0,0,1,1.37.88V44.19a.72.72,0,0,1-.41.65L95.19,52h0L79.93,44.84a.72.72,0,0,1-.41-.65V30.51a1,1,0,0,1,1.38-.88L95.18,36.3V52"/><path class="cls-5" d="M80,29.66a3.86,3.86,0,0,1,2.09-2.39l12.59-5.89a1.16,1.16,0,0,1,.93,0l12.59,5.89a3.89,3.89,0,0,1,2.09,2.39"/><line class="cls-5" x1="95.18" y1="21.28" x2="95.18" y2="14.29"/><line class="cls-5" x1="73.07" y1="36.66" x2="79.52" y2="36.66"/><line class="cls-5" x1="110.84" y1="36.66" x2="116.83" y2="36.66"/><line class="cls-5" x1="95.18" y1="51.96" x2="95.18" y2="58.76"/><line class="cls-5" x1="99.65" y1="49.87" x2="95.18" y2="45.5"/><line class="cls-5" x1="102.36" y1="48.6" x2="95.18" y2="41.57"/><line class="cls-5" x1="105.08" y1="47.34" x2="95.18" y2="37.66"/><line class="cls-5" x1="107.78" y1="46.07" x2="96.95" y2="35.47"/><line class="cls-5" x1="110.5" y1="44.8" x2="99.67" y2="34.2"/><line class="cls-5" x1="110.84" y1="41.21" x2="102.38" y2="32.93"/><line class="cls-5" x1="110.84" y1="37.33" x2="105.06" y2="31.69"/><path class="cls-6" d="M19.21,38c-5.35,6.51-3.3,14.14-6.65,22.57A43.85,43.85,0,0,1,2.19,75.33,6.94,6.94,0,0,0,0,80.11v0l.58.23.08-.07-.33-.14s10.42-7.37,14.9-18.66c3.35-8.43,1.3-16.06,6.66-22.57C26,34,37.37,26.21,42.58,22.78v-2.7S24.57,31.46,19.21,38Z"/><path class="cls-6" d="M48.24,21.27V4h-4.5A4.63,4.63,0,0,0,39.11,8.6V25.53c.3-.43.63-.85,1-1.27,0-.06.09-.1.13-.16.73-1.65,3.62-1.45,3.46.64s-.39,4.35-.53,6.53A1.63,1.63,0,0,1,44,32.36,19.91,19.91,0,0,1,48.46,29a3.08,3.08,0,0,1,.54-.16,1.7,1.7,0,0,1,1-1.49,1.73,1.73,0,0,1,1.84-1.6V21.27Z"/><path class="cls-6" d="M131.19,69.88V74.5H51.87V37.22a16.6,16.6,0,0,1-6.06,10.13,1.83,1.83,0,0,1-1.55.39,10.18,10.18,0,0,1-1.59.51,2.64,2.64,0,0,0-.3.1c0,.06,0,.12,0,.19,0,1.57-.07,3.13-.08,4.7a1.86,1.86,0,0,1-.25.95c.09,2.24.24,4.47.25,6.72a1.54,1.54,0,0,1-.07.54,2.67,2.67,0,0,1,.15.62c.07.81.14,1.63.14,2.46a2.11,2.11,0,0,1,0,.25,2,2,0,0,1,.09.54v1a1.7,1.7,0,0,1-.38,1.09,1.78,1.78,0,0,1,.24.87v.21a1.8,1.8,0,0,1-1,1.58c0,.15,0,.3,0,.45a1.73,1.73,0,0,1-.66,1.37A1.87,1.87,0,0,1,40,73.76,1.7,1.7,0,0,1,39.12,75a4.62,4.62,0,0,0,4.62,4.5h95.58A4.63,4.63,0,0,0,144,74.86v-5Z"/><path class="cls-7" d="M134.91,30.71c-.17-2.13.11-6.39,3.41-5.37,1.27.39,2.33,1.88,3.24,2.77,1.84,1.77,3.86,3.66,5.87,5.3V5.13A4.63,4.63,0,0,0,142.8.5H47.21a4.63,4.63,0,0,0-4.63,4.63V33.68a21.32,21.32,0,0,1,4.29-4.3c1.62-1.39,3.1-3,5.07-3.9a1.85,1.85,0,0,1,2.48.65,13.48,13.48,0,0,1,.93,3.13V5.49h79.31V71H55.35V33.74a16.72,16.72,0,0,1-6.06,10.14,1.86,1.86,0,0,1-1.56.39,8.93,8.93,0,0,1-1.59.5,5.64,5.64,0,0,0-1.13.48,1.83,1.83,0,0,1-.43.36,10.72,10.72,0,0,1-2,.94V71.39A4.63,4.63,0,0,0,47.21,76H142.8a4.63,4.63,0,0,0,4.63-4.63V46.77C140.38,44.77,135.52,38.26,134.91,30.71Z"/><path class="cls-5" d="M42.58,33.46V5.13A4.63,4.63,0,0,1,47.21.5H142.8a4.62,4.62,0,0,1,4.62,4.63V33.55"/><path class="cls-5" d="M147.42,48.67V71.39A4.62,4.62,0,0,1,142.8,76H47.21a4.63,4.63,0,0,1-4.63-4.63V47"/><polygon class="cls-5" points="95 71.03 134.66 71.03 134.66 5.49 95 5.49 55.35 5.49 55.35 71.03 95 71.03"/><path class="cls-5" d="M.91,79.49s10.42-7.38,14.9-18.66c3.35-8.42,1.31-16.06,6.66-22.57S42.58,22.64,42.58,22.64"/><path class="cls-5" d="M22.79,88.28s5.32-9,9-9.87,9.08-1.74,10.78-11.07"/><path class="cls-5" d="M28.55,65.49s13.2.66,14-18.44c0,0,10.81-3.26,12.22-13.56S52,25.13,52,25.13,41.13,35.22,36.36,38.26a35.05,35.05,0,0,0-8.47,8.35"/><path class="cls-5" d="M147.32,22.64s14.76,9.11,20.11,15.62,3.31,14.15,6.66,22.57C178.57,72.11,189,79.49,189,79.49"/><path class="cls-5" d="M167.11,88.28s-5.32-9-9-9.87S149,76.67,147.32,67.34"/><path class="cls-5" d="M161.36,65.49s-13.21.66-14-18.44c0,0-10.81-3.26-12.22-13.56s2.82-8.36,2.82-8.36,10.85,10.09,15.62,13.13A35.05,35.05,0,0,1,162,46.61"/><path class="cls-8" d="M65.64,24.23v-9.3a1.43,1.43,0,0,1,1.43-1.43H76"/><path class="cls-8" d="M75.52,61.53H67.07a1.43,1.43,0,0,1-1.43-1.43v-9"/><path class="cls-8" d="M124.33,50.8v9.3a1.43,1.43,0,0,1-1.43,1.43H114"/><path class="cls-8" d="M114.45,13.5h8.45a1.43,1.43,0,0,1,1.43,1.43v9"/></g></g></svg>