{"accessors":[{"bufferView":0,"componentType":5125,"count":36,"max":[23.0],"min":[0.0],"type":"SCALAR"},{"bufferView":1,"componentType":5126,"count":24,"max":[12.0,12.0,0.800000011920929],"min":[0.0,0.0,0.0],"type":"VEC3"},{"bufferView":2,"componentType":5126,"count":24,"max":[1.0,1.0,1.0],"min":[-1.0,-1.0,-1.0],"type":"VEC3"},{"bufferView":3,"componentType":5126,"count":24,"max":[0.6006006002426148,1.0],"min":[-0.6006006002426148,0.4234234094619751],"type":"VEC2"}],"asset":{"generator":"SimLab GLTF","version":"2.0"},"bufferViews":[{"buffer":0,"byteLength":144,"target":34963},{"buffer":0,"byteLength":288,"byteOffset":144,"byteStride":12,"target":34962},{"buffer":0,"byteLength":288,"byteOffset":432,"byteStride":12,"target":34962},{"buffer":0,"byteLength":192,"byteOffset":720,"byteStride":8,"target":34962}],"buffers":[{"byteLength":912,"uri":"scene.bin"}],"images":[{"mimeType":"image/png","uri":"Textures/Square Glass Tile 01.jpg"}],"materials":[{"alphaMode":"MASK","doubleSided":true,"pbrMetallicRoughness":{"baseColorTexture":{"index":0},"metallicFactor":0.0}}],"meshes":[{"primitives":[{"attributes":{"NORMAL":2,"POSITION":1,"TEXCOORD_0":3},"indices":0,"material":0,"mode":4}]},{"primitives":[{"attributes":{"NORMAL":2,"POSITION":1,"TEXCOORD_0":3},"indices":0,"material":0,"mode":4}]},{"primitives":[{"attributes":{"NORMAL":2,"POSITION":1,"TEXCOORD_0":3},"indices":0,"material":0,"mode":4}]},{"primitives":[{"attributes":{"NORMAL":2,"POSITION":1,"TEXCOORD_0":3},"indices":0,"material":0,"mode":4}]},{"primitives":[{"attributes":{"NORMAL":2,"POSITION":1,"TEXCOORD_0":3},"indices":0,"material":0,"mode":4}]},{"primitives":[{"attributes":{"NORMAL":2,"POSITION":1,"TEXCOORD_0":3},"indices":0,"material":0,"mode":4}]}],"nodes":[{"children":[1,2],"matrix":[1.0,0.0,0.0,0.0,0.0,4.4896593387466768e-11,-1.0,0.0,0.0,1.0,4.4896593387466768e-11,0.0,0.0,0.0,0.0,1.0]},{"name":"Camera~2","rotation":[-0.7071067690849304,0.0,0.0,-0.7071067690849304],"translation":[0.45719999074935915,-3.352799892425537,0.01269999984651804]},{"name":"Assembly~7","children":[3,5,7,9,11,13],"rotation":[0.0,0.0,0.0,-1.0],"scale":[0.02539999969303608,0.02539999969303608,0.02539999969303608]},{"name":"Grid instance","children":[4],"rotation":[0.0,0.0,0.0,-1.0],"scale":[1.0,1.0,1.25]},{"name":"3DGeom~1","mesh":0,"rotation":[0.0,0.0,0.0,-1.0]},{"name":"Grid instance","children":[6],"rotation":[0.0,0.0,0.0,-1.0],"scale":[1.0,1.0,1.25],"translation":[12.0,0.0,0.0]},{"name":"3DGeom~1","mesh":1,"rotation":[0.0,0.0,0.0,-1.0]},{"name":"Grid instance","children":[8],"rotation":[0.0,0.0,0.0,-1.0],"scale":[1.0,1.0,1.25],"translation":[24.0,0.0,0.0]},{"name":"3DGeom~1","mesh":2,"rotation":[0.0,0.0,0.0,-1.0]},{"name":"Grid instance","children":[10],"rotation":[0.0,0.0,0.0,-1.0],"scale":[1.0,1.0,1.25],"translation":[0.0,12.0,0.0]},{"name":"3DGeom~1","mesh":3,"rotation":[0.0,0.0,0.0,-1.0]},{"name":"Grid instance","children":[12],"rotation":[0.0,0.0,0.0,-1.0],"scale":[1.0,1.0,1.25],"translation":[12.0,12.0,0.0]},{"name":"3DGeom~1","mesh":4,"rotation":[0.0,0.0,0.0,-1.0]},{"name":"Grid instance","children":[14],"rotation":[0.0,0.0,0.0,-1.0],"scale":[1.0,1.0,1.25],"translation":[24.0,12.0,0.0]},{"name":"3DGeom~1","mesh":5,"rotation":[0.0,0.0,0.0,-1.0]}],"samplers":[{"wrapS":10497,"wrapT":10497}],"scene":0,"scenes":[{"nodes":[0]}],"textures":[{"source":0}]}