# Alias OBJ Model File
# Exported from SketchUp, (c) 2000-2012 Trimble Navigation Limited
# File units = inches

mtllib scene.mtl

g Mesh1 mcGrid Model

usemtl Aluminum
v 12 0 -12
vt -0.2 0.2
vn 0 -1 -0
v 0 0 -0
vt 0 0
v 0 0 -12
vt 0 0.2
f 1/1/1 2/2/1 3/3/1

v 12 0 -0
vt -0.2 0
f 2/2/1 1/1/1 4/4/1

vn -0 1 0
f 3/3/2 2/2/2 1/1/2

vn -1 0 -0
v 0 1 -12
vt -0.2 0.0133333
f 2/2/3 5/5/3 3/4/3

v 0 1 -0
vt 0 0.0133333
f 5/5/3 2/2/3 6/6/3

vn 1 -0 0
f 6/6/4 2/2/4 5/5/4

vn 0 0 1
v 12 1 -0
vt 0.2 0.0133333
f 2/2/5 7/7/5 6/6/5

vt 0.2 0
f 7/7/5 2/2/5 4/8/5

vn -0 -0 -1
f 4/8/6 2/2/6 7/7/6

f 4/4/2 1/1/2 2/2/2

vn 1 0 -0
f 1/8/7 7/6/7 4/2/7

v 12 1 -12
f 7/6/7 1/8/7 8/7/7

vn -1 -0 0
f 4/2/8 7/6/8 1/8/8

f 8/7/8 1/8/8 7/6/8

vn 0 0 -1
f 1/4/9 5/6/9 8/5/9

f 5/6/9 1/4/9 3/2/9

vn -0 -0 1
f 3/2/10 1/4/10 5/6/10

f 8/5/10 5/6/10 1/4/10

vn 0 1 -0
vt 0.2 0.2
f 5/3/11 7/8/11 8/9/11

f 7/8/11 5/3/11 6/2/11

vn -0 -1 0
f 6/2/12 5/3/12 7/8/12

f 8/9/12 7/8/12 5/3/12

f 6/6/6 7/7/6 2/2/6

f 3/4/4 5/5/4 2/2/4

g Mesh2 mcGrid Model

l 3 2

l 1 3

l 4 1

l 2 4

l 2 6

l 5 6

l 3 5

l 8 5

l 1 8

l 7 8

l 4 7

l 6 7

g Mesh3 Grid_copy_001 Model

v 24 0 -12
f 9/1/1 4/2/1 1/3/1

v 24 0 -0
f 4/2/1 9/1/1 10/4/1

f 1/3/2 4/2/2 9/1/2

v 12 1 -12
f 4/2/3 11/5/3 1/4/3

v 12 1 -0
f 11/5/3 4/2/3 12/6/3

f 12/6/4 4/2/4 11/5/4

v 24 1 -0
f 4/2/5 13/7/5 12/6/5

f 13/7/5 4/2/5 10/8/5

f 10/8/6 4/2/6 13/7/6

f 10/4/2 9/1/2 4/2/2

f 9/8/7 13/6/7 10/2/7

v 24 1 -12
f 13/6/7 9/8/7 14/7/7

f 10/2/8 13/6/8 9/8/8

f 14/7/8 9/8/8 13/6/8

f 9/4/9 11/6/9 14/5/9

f 11/6/9 9/4/9 1/2/9

f 1/2/10 9/4/10 11/6/10

f 14/5/10 11/6/10 9/4/10

f 11/3/11 13/8/11 14/9/11

f 13/8/11 11/3/11 12/2/11

f 12/2/12 11/3/12 13/8/12

f 14/9/12 13/8/12 11/3/12

f 12/6/6 13/7/6 4/2/6

f 1/4/4 11/5/4 4/2/4

g Mesh4 Grid_copy_001 Model

l 1 4

l 9 1

l 10 9

l 4 10

l 4 12

l 11 12

l 1 11

l 14 11

l 9 14

l 13 14

l 10 13

l 12 13

g Mesh5 Grid_copy_002 Model

v 36 0 -12
f 15/1/1 10/2/1 9/3/1

v 36 0 -0
f 10/2/1 15/1/1 16/4/1

f 9/3/2 10/2/2 15/1/2

f 10/2/3 14/5/3 9/4/3

f 14/5/3 10/2/3 13/6/3

f 13/6/4 10/2/4 14/5/4

v 36 1 -0
f 10/2/5 17/7/5 13/6/5

f 17/7/5 10/2/5 16/8/5

f 16/8/6 10/2/6 17/7/6

f 16/4/2 15/1/2 10/2/2

f 15/8/7 17/6/7 16/2/7

v 36 1 -12
f 17/6/7 15/8/7 18/7/7

f 16/2/8 17/6/8 15/8/8

f 18/7/8 15/8/8 17/6/8

f 15/4/9 14/6/9 18/5/9

f 14/6/9 15/4/9 9/2/9

f 9/2/10 15/4/10 14/6/10

f 18/5/10 14/6/10 15/4/10

f 14/3/11 17/8/11 18/9/11

f 17/8/11 14/3/11 13/2/11

f 13/2/12 14/3/12 17/8/12

f 18/9/12 17/8/12 14/3/12

f 13/6/6 17/7/6 10/2/6

f 9/4/4 14/5/4 10/2/4

g Mesh6 Grid_copy_002 Model

l 9 10

l 15 9

l 16 15

l 10 16

l 10 13

l 14 13

l 9 14

l 18 14

l 15 18

l 17 18

l 16 17

l 13 17

g Mesh7 Grid_copy_003 Model

v 12 0 -24
v 0 0 -24
f 19/1/1 3/2/1 20/3/1

f 3/2/1 19/1/1 1/4/1

f 20/3/2 3/2/2 19/1/2

v 0 1 -24
f 3/2/3 21/5/3 20/4/3

v 0 1 -12
f 21/5/3 3/2/3 22/6/3

f 22/6/4 3/2/4 21/5/4

f 3/2/5 11/7/5 22/6/5

f 11/7/5 3/2/5 1/8/5

f 1/8/6 3/2/6 11/7/6

f 1/4/2 19/1/2 3/2/2

f 19/8/7 11/6/7 1/2/7

v 12 1 -24
f 11/6/7 19/8/7 23/7/7

f 1/2/8 11/6/8 19/8/8

f 23/7/8 19/8/8 11/6/8

f 19/4/9 21/6/9 23/5/9

f 21/6/9 19/4/9 20/2/9

f 20/2/10 19/4/10 21/6/10

f 23/5/10 21/6/10 19/4/10

f 21/3/11 11/8/11 23/9/11

f 11/8/11 21/3/11 22/2/11

f 22/2/12 21/3/12 11/8/12

f 23/9/12 11/8/12 21/3/12

f 22/6/6 11/7/6 3/2/6

f 20/4/4 21/5/4 3/2/4

g Mesh8 Grid_copy_003 Model

l 20 3

l 19 20

l 1 19

l 3 1

l 3 22

l 21 22

l 20 21

l 23 21

l 19 23

l 11 23

l 1 11

l 22 11

g Mesh9 Grid_copy_004 Model

v 24 0 -24
f 24/1/1 1/2/1 19/3/1

f 1/2/1 24/1/1 9/4/1

f 19/3/2 1/2/2 24/1/2

f 1/2/3 23/5/3 19/4/3

f 23/5/3 1/2/3 11/6/3

f 11/6/4 1/2/4 23/5/4

f 1/2/5 14/7/5 11/6/5

f 14/7/5 1/2/5 9/8/5

f 9/8/6 1/2/6 14/7/6

f 9/4/2 24/1/2 1/2/2

f 24/8/7 14/6/7 9/2/7

v 24 1 -24
f 14/6/7 24/8/7 25/7/7

f 9/2/8 14/6/8 24/8/8

f 25/7/8 24/8/8 14/6/8

f 24/4/9 23/6/9 25/5/9

f 23/6/9 24/4/9 19/2/9

f 19/2/10 24/4/10 23/6/10

f 25/5/10 23/6/10 24/4/10

f 23/3/11 14/8/11 25/9/11

f 14/8/11 23/3/11 11/2/11

f 11/2/12 23/3/12 14/8/12

f 25/9/12 14/8/12 23/3/12

f 11/6/6 14/7/6 1/2/6

f 19/4/4 23/5/4 1/2/4

g Mesh10 Grid_copy_004 Model

l 19 1

l 24 19

l 9 24

l 1 9

l 1 11

l 23 11

l 19 23

l 25 23

l 24 25

l 14 25

l 9 14

l 11 14

g Mesh11 Grid_copy_005 Model

v 36 0 -24
f 26/1/1 9/2/1 24/3/1

f 9/2/1 26/1/1 15/4/1

f 24/3/2 9/2/2 26/1/2

f 9/2/3 25/5/3 24/4/3

f 25/5/3 9/2/3 14/6/3

f 14/6/4 9/2/4 25/5/4

f 9/2/5 18/7/5 14/6/5

f 18/7/5 9/2/5 15/8/5

f 15/8/6 9/2/6 18/7/6

f 15/4/2 26/1/2 9/2/2

f 26/8/7 18/6/7 15/2/7

v 36 1 -24
f 18/6/7 26/8/7 27/7/7

f 15/2/8 18/6/8 26/8/8

f 27/7/8 26/8/8 18/6/8

f 26/4/9 25/6/9 27/5/9

f 25/6/9 26/4/9 24/2/9

f 24/2/10 26/4/10 25/6/10

f 27/5/10 25/6/10 26/4/10

f 25/3/11 18/8/11 27/9/11

f 18/8/11 25/3/11 14/2/11

f 14/2/12 25/3/12 18/8/12

f 27/9/12 18/8/12 25/3/12

f 14/6/6 18/7/6 9/2/6

f 24/4/4 25/5/4 9/2/4

g Mesh12 Grid_copy_005 Model

l 24 9

l 26 24

l 15 26

l 9 15

l 9 14

l 25 14

l 24 25

l 27 25

l 26 27

l 18 27

l 15 18

l 14 18

