{"accessors":[{"bufferView":0,"componentType":5125,"count":180,"max":[63.0],"min":[0.0],"type":"SCALAR"},{"bufferView":1,"componentType":5126,"count":64,"max":[17.659648895263673,17.659648895263673,1.5],"min":[-17.659648895263673,-17.659648895263673,0.0],"type":"VEC3"},{"bufferView":2,"componentType":5126,"count":64,"max":[1.1754943508222876e-38,1.1754943508222876e-38,1.0],"min":[0.0,0.0,-1.0],"type":"VEC3"},{"bufferView":3,"componentType":5126,"count":64,"max":[0.7358187437057495,1.7358187437057496],"min":[-0.7358187437057495,0.2641812562942505],"type":"VEC2"},{"bufferView":4,"componentType":5125,"count":192,"max":[127.0],"min":[0.0],"type":"SCALAR"},{"bufferView":5,"componentType":5126,"count":128,"max":[17.659648895263673,17.659648895263673,1.5],"min":[-17.659648895263673,-17.659648895263673,0.0],"type":"VEC3"},{"bufferView":6,"componentType":5126,"count":128,"max":[1.0,1.0,1.1754943508222876e-38],"min":[-1.0,-1.0,0.0],"type":"VEC3"},{"bufferView":7,"componentType":5126,"count":128,"max":[0.080123171210289,1.0],"min":[-0.080123171210289,-0.5],"type":"VEC2"},{"bufferView":8,"componentType":5125,"count":144,"max":[95.0],"min":[0.0],"type":"SCALAR"},{"bufferView":9,"componentType":5126,"count":96,"max":[18.0,18.0,1.5],"min":[-18.0,-18.0,0.0],"type":"VEC3"},{"bufferView":10,"componentType":5126,"count":96,"max":[1.0,1.0,1.1754943508222876e-38],"min":[-1.0,-1.0,0.0],"type":"VEC3"},{"bufferView":11,"componentType":5126,"count":96,"max":[0.019578928127884866,1.0],"min":[-0.019578928127884866,-0.5],"type":"VEC2"},{"bufferView":12,"componentType":5125,"count":132,"max":[47.0],"min":[0.0],"type":"SCALAR"},{"bufferView":13,"componentType":5126,"count":48,"max":[18.0,18.0,1.5],"min":[-18.0,-18.0,0.0],"type":"VEC3"},{"bufferView":14,"componentType":5126,"count":48,"max":[1.1754943508222876e-38,1.1754943508222876e-38,1.0],"min":[0.0,0.0,-1.0],"type":"VEC3"},{"bufferView":15,"componentType":5126,"count":48,"max":[0.75,1.75],"min":[-0.75,0.25],"type":"VEC2"},{"bufferView":16,"componentType":5125,"count":60,"max":[39.0],"min":[0.0],"type":"SCALAR"},{"bufferView":17,"componentType":5126,"count":40,"max":[13.44444465637207,13.44444465637207,29.0],"min":[-13.44444465637207,-13.44444465637207,-1.5509990518671443e-17],"type":"VEC3"},{"bufferView":18,"componentType":5126,"count":40,"max":[1.0,1.0,1.0],"min":[-1.0,-1.0,-1.0],"type":"VEC3"},{"bufferView":19,"componentType":5126,"count":40,"max":[1.0,1.0],"min":[0.0,0.0],"type":"VEC2"},{"bufferView":20,"componentType":5125,"count":420,"max":[251.0],"min":[0.0],"type":"SCALAR"},{"bufferView":21,"componentType":5126,"count":252,"max":[12.75,12.75,29.0],"min":[-12.75,-12.75,0.0],"type":"VEC3"},{"bufferView":22,"componentType":5126,"count":252,"max":[1.0,1.0,1.0],"min":[-1.0,-1.0,-1.0],"type":"VEC3"},{"bufferView":23,"componentType":5126,"count":252,"max":[1.0,1.0],"min":[0.0,0.0],"type":"VEC2"},{"bufferView":24,"componentType":5125,"count":24,"max":[15.0],"min":[0.0],"type":"SCALAR"},{"bufferView":25,"componentType":5126,"count":16,"max":[18.0,18.0,1.5],"min":[-18.0,-18.0,0.0],"type":"VEC3"},{"bufferView":26,"componentType":5126,"count":16,"max":[1.0,1.0,1.1754943508222876e-38],"min":[-1.0,-1.0,0.0],"type":"VEC3"},{"bufferView":27,"componentType":5126,"count":16,"max":[0.15000000596046449,1.0],"min":[-0.15000000596046449,-0.5],"type":"VEC2"},{"bufferView":28,"componentType":5125,"count":12,"max":[7.0],"min":[0.0],"type":"SCALAR"},{"bufferView":29,"componentType":5126,"count":8,"max":[18.0,18.0,1.5],"min":[-18.0,-18.0,0.0],"type":"VEC3"},{"bufferView":30,"componentType":5126,"count":8,"max":[1.1754943508222876e-38,1.1754943508222876e-38,1.0],"min":[0.0,0.0,-1.0],"type":"VEC3"},{"bufferView":31,"componentType":5126,"count":8,"max":[0.75,1.75],"min":[-0.75,0.25],"type":"VEC2"},{"bufferView":32,"componentType":5125,"count":6,"max":[3.0],"min":[0.0],"type":"SCALAR"},{"bufferView":33,"componentType":5126,"count":4,"max":[3.0,3.0,1.1754943508222876e-38],"min":[2.0,2.0,0.0],"type":"VEC3"},{"bufferView":34,"componentType":5126,"count":4,"max":[1.1754943508222876e-38,1.1754943508222876e-38,1.1754943508222876e-38],"min":[0.0,0.0,-1.0],"type":"VEC3"},{"bufferView":35,"componentType":5126,"count":4,"max":[1.1754943508222876e-38,0.9166666865348816],"min":[-0.125,0.875],"type":"VEC2"},{"bufferView":36,"componentType":5125,"count":6,"max":[3.0],"min":[0.0],"type":"SCALAR"},{"bufferView":37,"componentType":5126,"count":4,"max":[1.0,2.0,1.1754943508222876e-38],"min":[0.0,1.0,0.0],"type":"VEC3"},{"bufferView":38,"componentType":5126,"count":4,"max":[1.1754943508222876e-38,1.1754943508222876e-38,1.1754943508222876e-38],"min":[0.0,0.0,-1.0],"type":"VEC3"},{"bufferView":39,"componentType":5126,"count":4,"max":[1.1754943508222876e-38,1.1754943508222876e-38],"min":[-0.008333333767950535,-1.0],"type":"VEC2"},{"bufferView":40,"componentType":5125,"count":6,"max":[3.0],"min":[0.0],"type":"SCALAR"},{"bufferView":41,"componentType":5126,"count":4,"max":[2.0,1.0,1.1754943508222876e-38],"min":[1.0,0.0,0.0],"type":"VEC3"},{"bufferView":42,"componentType":5126,"count":4,"max":[1.1754943508222876e-38,1.1754943508222876e-38,1.1754943508222876e-38],"min":[0.0,0.0,-1.0],"type":"VEC3"},{"bufferView":43,"componentType":5126,"count":4,"max":[1.0,1.0],"min":[0.0,0.0],"type":"VEC2"},{"bufferView":44,"componentType":5125,"count":6,"max":[3.0],"min":[0.0],"type":"SCALAR"},{"bufferView":45,"componentType":5126,"count":4,"max":[3.0,1.0,1.1754943508222876e-38],"min":[2.0,0.0,0.0],"type":"VEC3"},{"bufferView":46,"componentType":5126,"count":4,"max":[1.1754943508222876e-38,1.1754943508222876e-38,1.1754943508222876e-38],"min":[0.0,0.0,-1.0],"type":"VEC3"},{"bufferView":47,"componentType":5126,"count":4,"max":[1.0,1.0],"min":[0.0,0.0],"type":"VEC2"},{"bufferView":48,"componentType":5125,"count":6,"max":[3.0],"min":[0.0],"type":"SCALAR"},{"bufferView":49,"componentType":5126,"count":4,"max":[3.0,2.0,1.1754943508222876e-38],"min":[2.0,1.0,0.0],"type":"VEC3"},{"bufferView":50,"componentType":5126,"count":4,"max":[1.1754943508222876e-38,1.1754943508222876e-38,1.1754943508222876e-38],"min":[0.0,0.0,-1.0],"type":"VEC3"},{"bufferView":51,"componentType":5126,"count":4,"max":[1.0,1.0],"min":[0.0,0.0],"type":"VEC2"},{"bufferView":52,"componentType":5125,"count":6,"max":[3.0],"min":[0.0],"type":"SCALAR"},{"bufferView":53,"componentType":5126,"count":4,"max":[2.0,3.0,1.1754943508222876e-38],"min":[1.0,2.0,0.0],"type":"VEC3"},{"bufferView":54,"componentType":5126,"count":4,"max":[1.1754943508222876e-38,1.1754943508222876e-38,1.1754943508222876e-38],"min":[0.0,0.0,-1.0],"type":"VEC3"},{"bufferView":55,"componentType":5126,"count":4,"max":[1.1754943508222876e-38,0.9166666865348816],"min":[-0.0833333358168602,0.875],"type":"VEC2"},{"bufferView":56,"componentType":5125,"count":6,"max":[3.0],"min":[0.0],"type":"SCALAR"},{"bufferView":57,"componentType":5126,"count":4,"max":[1.0,3.0,1.1754943508222876e-38],"min":[0.0,2.0,0.0],"type":"VEC3"},{"bufferView":58,"componentType":5126,"count":4,"max":[1.1754943508222876e-38,1.1754943508222876e-38,1.1754943508222876e-38],"min":[0.0,0.0,-1.0],"type":"VEC3"},{"bufferView":59,"componentType":5126,"count":4,"max":[1.1754943508222876e-38,0.9166666865348816],"min":[-0.0416666679084301,0.875],"type":"VEC2"},{"bufferView":60,"componentType":5125,"count":6,"max":[3.0],"min":[0.0],"type":"SCALAR"},{"bufferView":61,"componentType":5126,"count":4,"max":[1.0,1.0,1.1754943508222876e-38],"min":[0.0,0.0,0.0],"type":"VEC3"},{"bufferView":62,"componentType":5126,"count":4,"max":[1.1754943508222876e-38,1.1754943508222876e-38,1.1754943508222876e-38],"min":[0.0,0.0,-1.0],"type":"VEC3"},{"bufferView":63,"componentType":5126,"count":4,"max":[1.0,1.0],"min":[0.0,0.0],"type":"VEC2"},{"bufferView":64,"componentType":5125,"count":6,"max":[3.0],"min":[0.0],"type":"SCALAR"},{"bufferView":65,"componentType":5126,"count":4,"max":[2.0,2.0,1.1754943508222876e-38],"min":[1.0,1.0,0.0],"type":"VEC3"},{"bufferView":66,"componentType":5126,"count":4,"max":[1.1754943508222876e-38,1.1754943508222876e-38,1.1754943508222876e-38],"min":[0.0,0.0,-1.0],"type":"VEC3"},{"bufferView":67,"componentType":5126,"count":4,"max":[1.0,1.0],"min":[0.0,0.0],"type":"VEC2"}],"asset":{"generator":"SimLab GLTF","version":"2.0"},"bufferViews":[{"buffer":0,"byteLength":720,"target":34963},{"buffer":0,"byteLength":768,"byteOffset":720,"byteStride":12,"target":34962},{"buffer":0,"byteLength":768,"byteOffset":1488,"byteStride":12,"target":34962},{"buffer":0,"byteLength":512,"byteOffset":2256,"byteStride":8,"target":34962},{"buffer":0,"byteLength":768,"byteOffset":2768,"target":34963},{"buffer":0,"byteLength":1536,"byteOffset":3536,"byteStride":12,"target":34962},{"buffer":0,"byteLength":1536,"byteOffset":5072,"byteStride":12,"target":34962},{"buffer":0,"byteLength":1024,"byteOffset":6608,"byteStride":8,"target":34962},{"buffer":0,"byteLength":576,"byteOffset":7632,"target":34963},{"buffer":0,"byteLength":1152,"byteOffset":8208,"byteStride":12,"target":34962},{"buffer":0,"byteLength":1152,"byteOffset":9360,"byteStride":12,"target":34962},{"buffer":0,"byteLength":768,"byteOffset":10512,"byteStride":8,"target":34962},{"buffer":0,"byteLength":528,"byteOffset":11280,"target":34963},{"buffer":0,"byteLength":576,"byteOffset":11808,"byteStride":12,"target":34962},{"buffer":0,"byteLength":576,"byteOffset":12384,"byteStride":12,"target":34962},{"buffer":0,"byteLength":384,"byteOffset":12960,"byteStride":8,"target":34962},{"buffer":0,"byteLength":240,"byteOffset":13344,"target":34963},{"buffer":0,"byteLength":480,"byteOffset":13584,"byteStride":12,"target":34962},{"buffer":0,"byteLength":480,"byteOffset":14064,"byteStride":12,"target":34962},{"buffer":0,"byteLength":320,"byteOffset":14544,"byteStride":8,"target":34962},{"buffer":0,"byteLength":1680,"byteOffset":14864,"target":34963},{"buffer":0,"byteLength":3024,"byteOffset":16544,"byteStride":12,"target":34962},{"buffer":0,"byteLength":3024,"byteOffset":19568,"byteStride":12,"target":34962},{"buffer":0,"byteLength":2016,"byteOffset":22592,"byteStride":8,"target":34962},{"buffer":0,"byteLength":96,"byteOffset":24608,"target":34963},{"buffer":0,"byteLength":192,"byteOffset":24704,"byteStride":12,"target":34962},{"buffer":0,"byteLength":192,"byteOffset":24896,"byteStride":12,"target":34962},{"buffer":0,"byteLength":128,"byteOffset":25088,"byteStride":8,"target":34962},{"buffer":0,"byteLength":48,"byteOffset":25216,"target":34963},{"buffer":0,"byteLength":96,"byteOffset":25264,"byteStride":12,"target":34962},{"buffer":0,"byteLength":96,"byteOffset":25360,"byteStride":12,"target":34962},{"buffer":0,"byteLength":64,"byteOffset":25456,"byteStride":8,"target":34962},{"buffer":0,"byteLength":24,"byteOffset":25520,"target":34963},{"buffer":0,"byteLength":48,"byteOffset":25544,"byteStride":12,"target":34962},{"buffer":0,"byteLength":48,"byteOffset":25592,"byteStride":12,"target":34962},{"buffer":0,"byteLength":32,"byteOffset":25640,"byteStride":8,"target":34962},{"buffer":0,"byteLength":24,"byteOffset":25672,"target":34963},{"buffer":0,"byteLength":48,"byteOffset":25696,"byteStride":12,"target":34962},{"buffer":0,"byteLength":48,"byteOffset":25744,"byteStride":12,"target":34962},{"buffer":0,"byteLength":32,"byteOffset":25792,"byteStride":8,"target":34962},{"buffer":0,"byteLength":24,"byteOffset":25824,"target":34963},{"buffer":0,"byteLength":48,"byteOffset":25848,"byteStride":12,"target":34962},{"buffer":0,"byteLength":48,"byteOffset":25896,"byteStride":12,"target":34962},{"buffer":0,"byteLength":32,"byteOffset":25944,"byteStride":8,"target":34962},{"buffer":0,"byteLength":24,"byteOffset":25976,"target":34963},{"buffer":0,"byteLength":48,"byteOffset":26000,"byteStride":12,"target":34962},{"buffer":0,"byteLength":48,"byteOffset":26048,"byteStride":12,"target":34962},{"buffer":0,"byteLength":32,"byteOffset":26096,"byteStride":8,"target":34962},{"buffer":0,"byteLength":24,"byteOffset":26128,"target":34963},{"buffer":0,"byteLength":48,"byteOffset":26152,"byteStride":12,"target":34962},{"buffer":0,"byteLength":48,"byteOffset":26200,"byteStride":12,"target":34962},{"buffer":0,"byteLength":32,"byteOffset":26248,"byteStride":8,"target":34962},{"buffer":0,"byteLength":24,"byteOffset":26280,"target":34963},{"buffer":0,"byteLength":48,"byteOffset":26304,"byteStride":12,"target":34962},{"buffer":0,"byteLength":48,"byteOffset":26352,"byteStride":12,"target":34962},{"buffer":0,"byteLength":32,"byteOffset":26400,"byteStride":8,"target":34962},{"buffer":0,"byteLength":24,"byteOffset":26432,"target":34963},{"buffer":0,"byteLength":48,"byteOffset":26456,"byteStride":12,"target":34962},{"buffer":0,"byteLength":48,"byteOffset":26504,"byteStride":12,"target":34962},{"buffer":0,"byteLength":32,"byteOffset":26552,"byteStride":8,"target":34962},{"buffer":0,"byteLength":24,"byteOffset":26584,"target":34963},{"buffer":0,"byteLength":48,"byteOffset":26608,"byteStride":12,"target":34962},{"buffer":0,"byteLength":48,"byteOffset":26656,"byteStride":12,"target":34962},{"buffer":0,"byteLength":32,"byteOffset":26704,"byteStride":8,"target":34962},{"buffer":0,"byteLength":24,"byteOffset":26736,"target":34963},{"buffer":0,"byteLength":48,"byteOffset":26760,"byteStride":12,"target":34962},{"buffer":0,"byteLength":48,"byteOffset":26808,"byteStride":12,"target":34962},{"buffer":0,"byteLength":32,"byteOffset":26856,"byteStride":8,"target":34962}],"buffers":[{"byteLength":26888,"uri":"scene.bin"}],"images":[{"mimeType":"image/png","uri":"Textures/Wood_Cherry_Original.jpg"},{"mimeType":"image/png","uri":"Textures/Wood_Floor_Dark.jpg"},{"mimeType":"image/png","uri":"Textures/Wood_Cherry_Original1.jpg"},{"mimeType":"image/png","uri":"Textures/Wood_Cherry_Original2.jpg"}],"materials":[{"alphaMode":"MASK","doubleSided":true,"pbrMetallicRoughness":{"baseColorTexture":{"index":0},"metallicFactor":0.0}},{"alphaMode":"MASK","doubleSided":true,"pbrMetallicRoughness":{"baseColorTexture":{"index":1},"metallicFactor":0.0}},{"alphaMode":"MASK","doubleSided":true,"pbrMetallicRoughness":{"baseColorFactor":[0.21960784494876862,0.4941176474094391,0.24705882370471955,1.0],"metallicFactor":0.0}},{"alphaMode":"MASK","doubleSided":true,"pbrMetallicRoughness":{"baseColorFactor":[0.6509804129600525,0.21960784494876862,0.13333334028720857,1.0],"metallicFactor":0.0}},{"alphaMode":"MASK","doubleSided":true,"pbrMetallicRoughness":{"baseColorFactor":[0.3019607961177826,0.42352941632270815,0.5411764979362488,1.0],"metallicFactor":0.0}},{"alphaMode":"MASK","doubleSided":true,"pbrMetallicRoughness":{"baseColorFactor":[1.0,0.9647058844566345,0.47058823704719546,1.0],"metallicFactor":0.0}},{"alphaMode":"MASK","doubleSided":true,"pbrMetallicRoughness":{"baseColorTexture":{"index":2},"metallicFactor":0.0}},{"alphaMode":"MASK","doubleSided":true,"pbrMetallicRoughness":{"baseColorTexture":{"index":3},"metallicFactor":0.0}},{"alphaMode":"MASK","doubleSided":true,"pbrMetallicRoughness":{"baseColorFactor":[0.8999999761581421,0.8999999761581421,0.8999999761581421,1.0],"metallicFactor":0.0}}],"meshes":[{"primitives":[{"attributes":{"NORMAL":2,"POSITION":1,"TEXCOORD_0":3},"indices":0,"material":0,"mode":4}]},{"primitives":[{"attributes":{"NORMAL":6,"POSITION":5,"TEXCOORD_0":7},"indices":4,"material":1,"mode":4}]},{"primitives":[{"attributes":{"NORMAL":10,"POSITION":9,"TEXCOORD_0":11},"indices":8,"material":1,"mode":4}]},{"primitives":[{"attributes":{"NORMAL":14,"POSITION":13,"TEXCOORD_0":15},"indices":12,"material":0,"mode":4}]},{"primitives":[{"attributes":{"NORMAL":18,"POSITION":17,"TEXCOORD_0":19},"indices":16,"material":2,"mode":4}]},{"primitives":[{"attributes":{"NORMAL":22,"POSITION":21,"TEXCOORD_0":23},"indices":20,"material":2,"mode":4}]},{"primitives":[{"attributes":{"NORMAL":26,"POSITION":25,"TEXCOORD_0":27},"indices":24,"material":1,"mode":4}]},{"primitives":[{"attributes":{"NORMAL":30,"POSITION":29,"TEXCOORD_0":31},"indices":28,"material":0,"mode":4}]},{"primitives":[{"attributes":{"NORMAL":34,"POSITION":33,"TEXCOORD_0":35},"indices":32,"material":0,"mode":4}]},{"primitives":[{"attributes":{"NORMAL":38,"POSITION":37,"TEXCOORD_0":39},"indices":36,"material":1,"mode":4}]},{"primitives":[{"attributes":{"NORMAL":42,"POSITION":41,"TEXCOORD_0":43},"indices":40,"material":3,"mode":4}]},{"primitives":[{"attributes":{"NORMAL":46,"POSITION":45,"TEXCOORD_0":47},"indices":44,"material":4,"mode":4}]},{"primitives":[{"attributes":{"NORMAL":50,"POSITION":49,"TEXCOORD_0":51},"indices":48,"material":5,"mode":4}]},{"primitives":[{"attributes":{"NORMAL":54,"POSITION":53,"TEXCOORD_0":55},"indices":52,"material":6,"mode":4}]},{"primitives":[{"attributes":{"NORMAL":58,"POSITION":57,"TEXCOORD_0":59},"indices":56,"material":7,"mode":4}]},{"primitives":[{"attributes":{"NORMAL":62,"POSITION":61,"TEXCOORD_0":63},"indices":60,"material":8,"mode":4}]},{"primitives":[{"attributes":{"NORMAL":66,"POSITION":65,"TEXCOORD_0":67},"indices":64,"material":2,"mode":4}]}],"nodes":[{"children":[1,2],"matrix":[1.0,0.0,0.0,0.0,0.0,4.4896593387466768e-11,-1.0,0.0,0.0,1.0,4.4896593387466768e-11,0.0,0.0,0.0,0.0,1.0]},{"name":"Camera~2","rotation":[-0.7071067690849304,0.0,0.0,-0.7071067690849304],"translation":[0.0,-3.333749771118164,0.3873499929904938]},{"name":"Assembly~7","children":[3,6,9,11,13,16],"rotation":[0.0,0.0,0.0,-1.0],"scale":[0.02539999969303608,0.02539999969303608,0.02539999969303608]},{"name":"Top Flower instance","children":[4,5],"rotation":[0.0,0.0,0.0,-1.0],"scale":[1.019272804260254,1.019272804260254,1.0],"translation":[8.881784197001253e-16,12.75,29.0]},{"name":"3DGeom~1","mesh":0,"rotation":[0.0,0.0,0.0,-1.0]},{"name":"3DGeom~2","mesh":1,"rotation":[0.0,0.0,0.0,-1.0]},{"name":"Top round instance","children":[7,8],"rotation":[0.0,0.0,0.0,-1.0],"translation":[2.6229018956769324e-14,12.75,29.0]},{"name":"3DGeom~3","mesh":2,"rotation":[0.0,0.0,0.0,-1.0]},{"name":"3DGeom~4","mesh":3,"rotation":[0.0,0.0,0.0,-1.0]},{"name":"Base Square instance","children":[10],"rotation":[0.0,0.0,0.0,-1.0],"scale":[0.8181818127632141,0.8181818127632141,1.0],"translation":[2.6229018956769324e-14,12.75,0.0]},{"name":"3DGeom~5","mesh":4,"rotation":[0.0,0.0,0.0,-1.0]},{"name":"Base Round instance","children":[12],"rotation":[0.0,0.0,0.0,-1.0],"translation":[1.7763568394002506e-15,12.75,0.0]},{"name":"3DGeom~6","mesh":5,"rotation":[0.0,0.0,0.0,-1.0]},{"name":"Top Square instance","children":[14,15],"rotation":[0.0,0.0,0.0,-1.0],"translation":[2.6229018956769324e-14,12.75,29.0]},{"name":"3DGeom~7","mesh":6,"rotation":[0.0,0.0,0.0,-1.0]},{"name":"3DGeom~8","mesh":7,"rotation":[0.0,0.0,0.0,-1.0]},{"name":"Material Swatches instance","children":[17,18,19,20,21,22,23,24,25],"rotation":[0.0,0.0,0.0,-1.0]},{"name":"3DGeom~9","mesh":8,"rotation":[0.0,0.0,0.0,-1.0]},{"name":"3DGeom~10","mesh":9,"rotation":[0.0,0.0,0.0,-1.0]},{"name":"3DGeom~11","mesh":10,"rotation":[0.0,0.0,0.0,-1.0]},{"name":"3DGeom~12","mesh":11,"rotation":[0.0,0.0,0.0,-1.0]},{"name":"3DGeom~13","mesh":12,"rotation":[0.0,0.0,0.0,-1.0]},{"name":"3DGeom~14","mesh":13,"rotation":[0.0,0.0,0.0,-1.0]},{"name":"3DGeom~15","mesh":14,"rotation":[0.0,0.0,0.0,-1.0]},{"name":"3DGeom~16","mesh":15,"rotation":[0.0,0.0,0.0,-1.0]},{"name":"3DGeom~17","mesh":16,"rotation":[0.0,0.0,0.0,-1.0]}],"samplers":[{"wrapS":10497,"wrapT":10497}],"scene":0,"scenes":[{"nodes":[0]}],"textures":[{"source":0},{"source":1},{"source":2},{"source":3}]}