{"accessors":[{"bufferView":0,"componentType":5125,"count":60,"max":[39.0],"min":[0.0],"type":"SCALAR"},{"bufferView":1,"componentType":5126,"count":40,"max":[4.0,4.0,37.0],"min":[0.0,0.0,0.0],"type":"VEC3"},{"bufferView":2,"componentType":5126,"count":40,"max":[1.0,1.0,1.0],"min":[-1.0,-1.0,-1.0],"type":"VEC3"},{"bufferView":3,"componentType":5126,"count":40,"max":[1.0,1.0],"min":[0.0,0.0],"type":"VEC2"},{"bufferView":4,"componentType":5125,"count":30,"max":[19.0],"min":[0.0],"type":"SCALAR"},{"bufferView":5,"componentType":5126,"count":20,"max":[56.0,1.5,3.5],"min":[0.0,0.0,0.0],"type":"VEC3"},{"bufferView":6,"componentType":5126,"count":20,"max":[1.0,1.0,1.0],"min":[0.0,-1.0,-1.0],"type":"VEC3"},{"bufferView":7,"componentType":5126,"count":20,"max":[1.0,1.0],"min":[0.0,0.0],"type":"VEC2"},{"bufferView":8,"componentType":5125,"count":30,"max":[19.0],"min":[0.0],"type":"SCALAR"},{"bufferView":9,"componentType":5126,"count":20,"max":[56.0,1.5,3.5],"min":[0.0,0.0,0.0],"type":"VEC3"},{"bufferView":10,"componentType":5126,"count":20,"max":[1.0,1.0,1.0],"min":[0.0,-1.0,-1.0],"type":"VEC3"},{"bufferView":11,"componentType":5126,"count":20,"max":[1.0,1.0],"min":[0.0,0.0],"type":"VEC2"},{"bufferView":12,"componentType":5125,"count":48,"max":[29.0],"min":[0.0],"type":"SCALAR"},{"bufferView":13,"componentType":5126,"count":30,"max":[2.5,0.75,32.0],"min":[0.0,0.0,0.0],"type":"VEC3"},{"bufferView":14,"componentType":5126,"count":30,"max":[1.0,1.0,0.5299989581108093],"min":[-1.0,-1.0,-1.0],"type":"VEC3"},{"bufferView":15,"componentType":5126,"count":30,"max":[1.0,1.0],"min":[0.0,0.0],"type":"VEC2"},{"bufferView":16,"componentType":5125,"count":48,"max":[29.0],"min":[0.0],"type":"SCALAR"},{"bufferView":17,"componentType":5126,"count":30,"max":[2.5,0.75,32.0],"min":[0.0,0.0,0.0],"type":"VEC3"},{"bufferView":18,"componentType":5126,"count":30,"max":[1.0,1.0,0.5299989581108093],"min":[-1.0,-1.0,-1.0],"type":"VEC3"},{"bufferView":19,"componentType":5126,"count":30,"max":[1.0,1.0],"min":[0.0,0.0],"type":"VEC2"},{"bufferView":20,"componentType":5125,"count":48,"max":[29.0],"min":[0.0],"type":"SCALAR"},{"bufferView":21,"componentType":5126,"count":30,"max":[2.5,0.75,32.0],"min":[0.0,0.0,0.0],"type":"VEC3"},{"bufferView":22,"componentType":5126,"count":30,"max":[1.0,1.0,0.5299989581108093],"min":[-1.0,-1.0,-1.0],"type":"VEC3"},{"bufferView":23,"componentType":5126,"count":30,"max":[1.0,1.0],"min":[0.0,0.0],"type":"VEC2"},{"bufferView":24,"componentType":5125,"count":48,"max":[29.0],"min":[0.0],"type":"SCALAR"},{"bufferView":25,"componentType":5126,"count":30,"max":[2.5,0.75,32.0],"min":[0.0,0.0,0.0],"type":"VEC3"},{"bufferView":26,"componentType":5126,"count":30,"max":[1.0,1.0,0.5299989581108093],"min":[-1.0,-1.0,-1.0],"type":"VEC3"},{"bufferView":27,"componentType":5126,"count":30,"max":[1.0,1.0],"min":[0.0,0.0],"type":"VEC2"}],"asset":{"generator":"SimLab GLTF","version":"2.0"},"bufferViews":[{"buffer":0,"byteLength":240,"target":34963},{"buffer":0,"byteLength":480,"byteOffset":240,"byteStride":12,"target":34962},{"buffer":0,"byteLength":480,"byteOffset":720,"byteStride":12,"target":34962},{"buffer":0,"byteLength":320,"byteOffset":1200,"byteStride":8,"target":34962},{"buffer":0,"byteLength":120,"byteOffset":1520,"target":34963},{"buffer":0,"byteLength":240,"byteOffset":1640,"byteStride":12,"target":34962},{"buffer":0,"byteLength":240,"byteOffset":1880,"byteStride":12,"target":34962},{"buffer":0,"byteLength":160,"byteOffset":2120,"byteStride":8,"target":34962},{"buffer":0,"byteLength":120,"byteOffset":2280,"target":34963},{"buffer":0,"byteLength":240,"byteOffset":2400,"byteStride":12,"target":34962},{"buffer":0,"byteLength":240,"byteOffset":2640,"byteStride":12,"target":34962},{"buffer":0,"byteLength":160,"byteOffset":2880,"byteStride":8,"target":34962},{"buffer":0,"byteLength":192,"byteOffset":3040,"target":34963},{"buffer":0,"byteLength":360,"byteOffset":3232,"byteStride":12,"target":34962},{"buffer":0,"byteLength":360,"byteOffset":3592,"byteStride":12,"target":34962},{"buffer":0,"byteLength":240,"byteOffset":3952,"byteStride":8,"target":34962},{"buffer":0,"byteLength":192,"byteOffset":4192,"target":34963},{"buffer":0,"byteLength":360,"byteOffset":4384,"byteStride":12,"target":34962},{"buffer":0,"byteLength":360,"byteOffset":4744,"byteStride":12,"target":34962},{"buffer":0,"byteLength":240,"byteOffset":5104,"byteStride":8,"target":34962},{"buffer":0,"byteLength":192,"byteOffset":5344,"target":34963},{"buffer":0,"byteLength":360,"byteOffset":5536,"byteStride":12,"target":34962},{"buffer":0,"byteLength":360,"byteOffset":5896,"byteStride":12,"target":34962},{"buffer":0,"byteLength":240,"byteOffset":6256,"byteStride":8,"target":34962},{"buffer":0,"byteLength":192,"byteOffset":6496,"target":34963},{"buffer":0,"byteLength":360,"byteOffset":6688,"byteStride":12,"target":34962},{"buffer":0,"byteLength":360,"byteOffset":7048,"byteStride":12,"target":34962},{"buffer":0,"byteLength":240,"byteOffset":7408,"byteStride":8,"target":34962}],"buffers":[{"byteLength":7648,"uri":"scene.bin"}],"materials":[{"alphaMode":"MASK","doubleSided":true,"pbrMetallicRoughness":{"baseColorFactor":[0.8999999761581421,0.8999999761581421,0.8999999761581421,1.0],"metallicFactor":0.0}}],"meshes":[{"primitives":[{"attributes":{"NORMAL":2,"POSITION":1,"TEXCOORD_0":3},"indices":0,"material":0,"mode":4}]},{"primitives":[{"attributes":{"NORMAL":6,"POSITION":5,"TEXCOORD_0":7},"indices":4,"material":0,"mode":4}]},{"primitives":[{"attributes":{"NORMAL":10,"POSITION":9,"TEXCOORD_0":11},"indices":8,"material":0,"mode":4}]},{"primitives":[{"attributes":{"NORMAL":14,"POSITION":13,"TEXCOORD_0":15},"indices":12,"material":0,"mode":4}]},{"primitives":[{"attributes":{"NORMAL":18,"POSITION":17,"TEXCOORD_0":19},"indices":16,"material":0,"mode":4}]},{"primitives":[{"attributes":{"NORMAL":22,"POSITION":21,"TEXCOORD_0":23},"indices":20,"material":0,"mode":4}]},{"primitives":[{"attributes":{"NORMAL":26,"POSITION":25,"TEXCOORD_0":27},"indices":24,"material":0,"mode":4}]}],"nodes":[{"children":[1,2],"matrix":[1.0,0.0,0.0,0.0,0.0,4.4896593387466768e-11,-1.0,0.0,0.0,1.0,4.4896593387466768e-11,0.0,0.0,0.0,0.0,1.0]},{"name":"Camera~2","rotation":[-0.7071067690849304,0.0,0.0,-0.7071067690849304],"translation":[0.3311867415904999,-4.552971363067627,0.5754714012145996]},{"name":"Assembly~8","children":[3,5,7,9,11,13,15],"rotation":[0.0,0.0,0.0,-1.0],"scale":[0.02539999969303608,0.02539999969303608,0.02539999969303608]},{"name":"Pole","children":[4],"rotation":[0.0,0.0,0.0,-1.0],"scale":[1.0,1.0,1.2246677875518799]},{"name":"3DGeom~1","mesh":0,"rotation":[0.0,0.0,0.0,-1.0]},{"name":"TopRail","children":[6],"rotation":[0.0,0.0,0.0,-1.0],"scale":[0.39424455165863039,1.0,1.0],"translation":[4.0,1.25,36.31270980834961]},{"name":"3DGeom~2","mesh":1,"rotation":[0.0,0.0,0.0,-1.0]},{"name":"BottomRail","children":[8],"rotation":[0.0,0.0,0.0,-1.0],"scale":[0.39424455165863039,1.0,1.2857142686843873],"translation":[4.0,1.25,6.0]},{"name":"3DGeom~3","mesh":2,"rotation":[0.0,0.0,0.0,-1.0]},{"name":"Picket","children":[10],"rotation":[0.0,0.0,0.0,-1.0],"scale":[1.0,1.0,1.2597721815109254],"translation":[6.0,0.5,3.0]},{"name":"3DGeom~4","mesh":3,"rotation":[0.0,0.0,0.0,-1.0]},{"name":"Picket copy 001","children":[12],"rotation":[0.0,0.0,0.0,-1.0],"scale":[1.0,1.0,1.2597721815109254],"translation":[11.0,0.5,3.0]},{"name":"3DGeom~5","mesh":4,"rotation":[0.0,0.0,0.0,-1.0]},{"name":"Picket copy 002","children":[14],"rotation":[0.0,0.0,0.0,-1.0],"scale":[1.0,1.0,1.2597721815109254],"translation":[16.0,0.5,3.0]},{"name":"3DGeom~6","mesh":5,"rotation":[0.0,0.0,0.0,-1.0]},{"name":"Picket copy 003","children":[16],"rotation":[0.0,0.0,0.0,-1.0],"scale":[1.0,1.0,1.2597721815109254],"translation":[21.0,0.5,3.0]},{"name":"3DGeom~7","mesh":6,"rotation":[0.0,0.0,0.0,-1.0]}],"samplers":[{"wrapS":10497,"wrapT":10497}],"scene":0,"scenes":[{"nodes":[0]}]}