<svg xmlns="http://www.w3.org/2000/svg" viewBox="0 0 79.74 49.72"><defs><style>.cls-1{fill:#d3d7da;}.cls-2{fill:#fec72e;}.cls-3,.cls-4,.cls-5,.cls-6{fill:none;stroke:#205081;stroke-miterlimit:10;}.cls-3{stroke-linecap:round;}.cls-4,.cls-5,.cls-6{stroke-linecap:square;}.cls-5{stroke-dasharray:2.04 3.06;}.cls-6{stroke-dasharray:2.08 3.12;}.cls-7{fill:#56d0fc;}</style></defs><title>40.angle.measure</title><g id="Layer_2" data-name="Layer 2"><g id="Layer_1-2" data-name="Layer 1"><path class="cls-1" d="M70.5,43.44a19.34,19.34,0,0,1-14.26,6.28H19.33A19.34,19.34,0,0,1,0,30.4V22.92A19.28,19.28,0,0,1,8.71,6.78a19.22,19.22,0,0,0-5.06,13v7.47A19.34,19.34,0,0,0,23,46.58h37A19.19,19.19,0,0,0,70.5,43.44Z"/><path class="cls-2" d="M37.11,37.48l6.25-6.11s3.6,2.29,2.77,6.34Z"/><rect class="cls-3" x="3.65" y="0.5" width="75.59" height="46.12" rx="19.33"/><line class="cls-4" x1="11.17" y1="37.82" x2="12.17" y2="37.82"/><line class="cls-5" x1="15.23" y1="37.82" x2="34.09" y2="37.82"/><polyline class="cls-4" points="35.62 37.82 36.62 37.82 36.62 36.82"/><line class="cls-6" x1="36.62" y1="33.7" x2="36.62" y2="9.25"/><line class="cls-4" x1="36.62" y1="7.69" x2="36.62" y2="6.69"/><line class="cls-3" x1="36.62" y1="37.82" x2="65.34" y2="37.82"/><line class="cls-3" x1="36.62" y1="37.71" x2="62.13" y2="12.52"/><path class="cls-7" d="M57.2,12.52,66,8.74l-3.85,8.71s.58-4.1-.17-4.76S57.2,12.52,57.2,12.52Z"/><path class="cls-7" d="M61.59,34.33l8.88,3.54-8.88,3.44s3.31-2.49,3.24-3.49S61.59,34.33,61.59,34.33Z"/><path class="cls-3" d="M43.36,31.06s3.3,1.86,3.11,6.76"/></g></g></svg>