<svg xmlns="http://www.w3.org/2000/svg" viewBox="0 0 74.05 76.07"><defs><style>.cls-1{fill:#ffd253;}.cls-10,.cls-2,.cls-4,.cls-5{fill:none;stroke-miterlimit:10;}.cls-2,.cls-5{stroke:#205081;}.cls-3{fill:#d3d7da;}.cls-10,.cls-4{stroke:#fff;}.cls-10,.cls-4,.cls-5{stroke-linecap:round;}.cls-6{fill:#3ed6ca;}.cls-7{isolation:isolate;font-size:5.5px;font-family:ArialMT, Arial;}.cls-7,.cls-8{fill:#fff;}.cls-9{fill:#56d0fc;}.cls-10{stroke-width:2px;}</style></defs><title>20.approve.bill</title><g id="Layer_2" data-name="Layer 2"><g id="Layer_1-2" data-name="Layer 1"><path class="cls-1" d="M59.12,1.67V7.38a1.51,1.51,0,0,1-1.49,1.5H32.29a1.5,1.5,0,0,1-1.5-1.5V1.67a1.5,1.5,0,0,1,1.5-1.5H57.63A1.51,1.51,0,0,1,59.12,1.67Z"/><path class="cls-1" d="M59.12,1.59V7.38a1.51,1.51,0,0,1-1.49,1.5H32.29a1.47,1.47,0,0,1-1.43-1.12V2a1.5,1.5,0,0,1,1.5-1.5H57.7A1.48,1.48,0,0,1,59.12,1.59Z"/><rect class="cls-2" x="31.09" y="0.5" width="28.33" height="11.09" rx="1.5"/><path class="cls-3" d="M69.55,72.76v1.31a2,2,0,0,1-2,2h-52a2,2,0,0,1-2-2V7.67a1.17,1.17,0,0,1,1.15-1.15h2.85V38.35a13.56,13.56,0,0,1,6.48,25.41,13.63,13.63,0,0,1-6.52,4.41v2.59a2,2,0,0,0,2,2Z"/><path class="cls-3" d="M27.08,55.25a13.54,13.54,0,1,1-9.55-13A13.54,13.54,0,0,1,27.08,55.25Z"/><path class="cls-2" d="M59.13,3.52H72.4a1.14,1.14,0,0,1,1.15,1.13V71.08a2,2,0,0,1-2,2h-52a2,2,0,0,1-2-2V4.67a1.14,1.14,0,0,1,1.15-1.15H30.77"/><path class="cls-2" d="M59.13,7.92h9.38a1.14,1.14,0,0,1,1.15,1.15V66a2,2,0,0,1-2,2H23.46a2,2,0,0,1-2-2V9.07a1.14,1.14,0,0,1,1.13-1.15h8.18"/><polyline class="cls-4" points="36.42 3.34 36.42 6.47 53.63 6.47 53.63 3.34"/><line class="cls-5" x1="26.28" y1="29.26" x2="63.37" y2="29.26"/><line class="cls-5" x1="26.3" y1="22.1" x2="39.68" y2="22.1"/><line class="cls-5" x1="26.28" y1="34.09" x2="63.37" y2="34.09"/><line class="cls-5" x1="26.28" y1="38.92" x2="63.37" y2="38.92"/><line class="cls-5" x1="26.28" y1="43.76" x2="63.37" y2="43.76"/><line class="cls-5" x1="26.28" y1="48.59" x2="63.37" y2="48.59"/><line class="cls-5" x1="26.28" y1="53.42" x2="63.37" y2="53.42"/><line class="cls-5" x1="50.8" y1="61.02" x2="60.72" y2="61.02"/><circle class="cls-6" cx="58.55" cy="21.01" r="5.66"/><circle class="cls-2" cx="58.55" cy="21.01" r="5.66"/><text class="cls-7" transform="translate(54.73 22.87)">S</text><rect class="cls-8" x="56.15" y="18.35" width="0.88" height="1.1"/><rect class="cls-8" x="56.15" y="22.54" width="0.88" height="1.1"/><text class="cls-7" transform="translate(58.75 22.89)">S</text><rect class="cls-8" x="60.18" y="18.37" width="0.88" height="1.1"/><rect class="cls-8" x="60.18" y="22.55" width="0.88" height="1.1"/><circle class="cls-9" cx="17.53" cy="52.25" r="13.55"/><path class="cls-8" d="M31.09,52.25A13.56,13.56,0,0,1,17.53,65.76a8.72,8.72,0,0,1-1.26-.06,13.56,13.56,0,0,0,0-27q.61-.06,1.26-.06A13.56,13.56,0,0,1,31.09,52.2Z"/><circle class="cls-2" cx="17.53" cy="52.25" r="13.55"/><polyline class="cls-10" points="10.93 52.88 14.3 57.01 24.43 47.88"/></g></g></svg>