<svg xmlns="http://www.w3.org/2000/svg" viewBox="0 0 65.98 83.45"><defs><style>.cls-1{fill:#fec72e;}.cls-2{fill:none;stroke:#205081;stroke-miterlimit:10;}.cls-3{isolation:isolate;font-size:10.08px;fill:#fff;font-family:Roboto-Bold, Roboto;font-weight:700;}.cls-4{fill:#d3d7da;}.cls-5{fill:#56d0fc;}</style></defs><title>22.billing.archive</title><g id="Layer_2" data-name="Layer 2"><g id="Layer_1-2" data-name="Layer 1"><circle class="cls-1" cx="16.58" cy="13.06" r="7.23"/><circle class="cls-2" cx="16.58" cy="13.06" r="7.23"/><text class="cls-3" transform="translate(13.49 16.43) scale(1.23 1)">$</text><path class="cls-4" d="M4,77l1.78,2.81L3.49,83.4,0,78V4.89A3.35,3.35,0,0,1,3.35,1.54H5A3.36,3.36,0,0,0,4,3.89V77Z"/><polygon class="cls-4" points="11.84 75.67 14.49 79.79 12.17 83.4 9.52 79.28 11.84 75.67"/><polygon class="cls-4" points="20.49 75.67 23.14 79.79 20.82 83.4 18.17 79.28 20.49 75.67"/><polygon class="cls-4" points="29.14 75.67 31.79 79.79 29.47 83.4 26.82 79.28 29.14 75.67"/><polygon class="cls-4" points="37.8 75.67 39.58 79.08 37.32 83.4 35.31 79.55 37.8 75.67"/><polygon class="cls-4" points="44.84 75.67 46.61 79.07 44.35 83.4 42.58 80 44.84 75.67"/><polygon class="cls-4" points="51.87 75.67 53.65 79.07 51.39 83.4 49.61 79.99 51.87 75.67"/><path class="cls-4" d="M60.69,79.08,58.43,83.4,56.64,80l2.26-4.33Z"/><path class="cls-2" d="M4,31.85v-28A3.35,3.35,0,0,1,7.38.5H62.12a3.35,3.35,0,0,1,3.36,3.34h0V76.53l-3,5.83L58.9,75.63l-3.51,6.74-3.52-6.74-3.52,6.74-3.54-6.74-3.52,6.74-3.48-6.74-4.33,6.74-4.34-6.74L24.81,82.4l-4.32-6.77-4.32,6.74-4.36-6.74L7.49,82.37,4,76.94V31.85Z"/><rect class="cls-5" x="11.77" y="25.76" width="8.95" height="7.48" rx="0.81"/><rect class="cls-5" x="11.77" y="37.22" width="8.95" height="7.48" rx="0.81"/><rect class="cls-5" x="11.77" y="48.67" width="8.95" height="7.48" rx="0.81"/><rect class="cls-5" x="11.77" y="60.13" width="8.95" height="7.48" rx="0.81"/><rect class="cls-2" x="11.77" y="25.76" width="8.95" height="7.48" rx="0.81"/><rect class="cls-2" x="11.77" y="37.22" width="8.95" height="7.48" rx="0.81"/><rect class="cls-2" x="11.77" y="48.67" width="8.95" height="7.48" rx="0.81"/><rect class="cls-2" x="11.77" y="60.13" width="8.95" height="7.48" rx="0.81"/><line class="cls-2" x1="27.06" y1="28.75" x2="55.81" y2="28.75"/><line class="cls-2" x1="27.06" y1="40.96" x2="55.81" y2="40.96"/><line class="cls-2" x1="27.06" y1="52.41" x2="55.81" y2="52.41"/><line class="cls-2" x1="27.06" y1="63.87" x2="55.81" y2="63.87"/></g></g></svg>