<svg xmlns="http://www.w3.org/2000/svg" viewBox="0 0 63.3 80.34"><defs><style>.cls-1{fill:#fec72e;}.cls-2{fill:#d3d7da;}.cls-3,.cls-6{fill:none;stroke-miterlimit:10;}.cls-3{stroke:#205081;}.cls-4{fill:#56d0fc;}.cls-5{fill:#fff;}.cls-6{stroke:#ffd253;stroke-linecap:square;stroke-dasharray:1 3;}.cls-7{isolation:isolate;font-size:16.78px;fill:#205081;font-family:ArialMT, Arial;}</style></defs><title>06.budget</title><g id="Layer_2" data-name="Layer 2"><g id="Layer_1-2" data-name="Layer 1"><path class="cls-1" d="M39.72.5v9.84A3.26,3.26,0,0,0,43,13.59h9.58"/><path class="cls-2" d="M26.63,67.1v5H3.3A3.29,3.29,0,0,1,0,68.82H0v-60a3.3,3.3,0,0,1,3.3-3.3h.53V63.82a3.29,3.29,0,0,0,3.29,3.29H26.63Z"/><path class="cls-2" d="M58.8,75.34V77.2a3.16,3.16,0,0,1-3.14,3.14H25.94A3.16,3.16,0,0,1,22.8,77.2V67.1h3.83v5.1a3.15,3.15,0,0,0,3.15,3.14Z"/><path class="cls-3" d="M52.55,13.09v54H7.3A3.29,3.29,0,0,1,4,63.81H4V3.8A3.3,3.3,0,0,1,7.3.5H40.16Z"/><path class="cls-3" d="M39.72.5v9.84A3.26,3.26,0,0,0,43,13.59h9.58"/><rect class="cls-4" x="26.8" y="33.8" width="36" height="41.54" rx="3.14"/><rect class="cls-3" x="26.8" y="33.8" width="36" height="41.54" rx="3.14"/><rect class="cls-5" x="31.97" y="39.34" width="25.67" height="7.38" rx="1.42"/><rect class="cls-5" x="31.97" y="53.09" width="5.5" height="5.75" rx="0.9"/><rect class="cls-5" x="42.55" y="53.09" width="5.5" height="5.75" rx="0.9"/><rect class="cls-5" x="53.13" y="53.09" width="5.5" height="5.75" rx="0.9"/><rect class="cls-5" x="31.97" y="63.65" width="5.5" height="5.75" rx="0.9"/><rect class="cls-5" x="42.55" y="63.65" width="5.5" height="5.75" rx="0.9"/><rect class="cls-5" x="53.13" y="63.65" width="5.5" height="5.75" rx="0.9"/><rect class="cls-3" x="31.97" y="39.34" width="25.67" height="7.38" rx="1.42"/><rect class="cls-3" x="31.97" y="53.09" width="5.5" height="5.75" rx="0.9"/><rect class="cls-3" x="42.55" y="53.09" width="5.5" height="5.75" rx="0.9"/><rect class="cls-3" x="53.13" y="53.09" width="5.5" height="5.75" rx="0.9"/><rect class="cls-3" x="31.97" y="63.65" width="5.5" height="5.75" rx="0.9"/><rect class="cls-3" x="42.55" y="63.65" width="5.5" height="5.75" rx="0.9"/><rect class="cls-3" x="53.13" y="63.65" width="5.5" height="5.75" rx="0.9"/><line class="cls-3" x1="22.86" y1="10.01" x2="34.68" y2="10.01"/><line class="cls-3" x1="22.86" y1="14.71" x2="36.68" y2="14.71"/><line class="cls-6" x1="9.18" y1="28.84" x2="46.68" y2="28.84"/><line class="cls-3" x1="10.43" y1="36.96" x2="22.05" y2="36.96"/><line class="cls-3" x1="10.43" y1="42.09" x2="22.05" y2="42.09"/><line class="cls-3" x1="10.43" y1="47.21" x2="22.05" y2="47.21"/><line class="cls-3" x1="10.43" y1="52.34" x2="22.05" y2="52.34"/><line class="cls-3" x1="10.43" y1="57.46" x2="22.05" y2="57.46"/><text class="cls-7" transform="translate(9.18 21.31) scale(0.79 1)">$</text><line class="cls-3" x1="22.86" y1="19.92" x2="44.3" y2="19.92"/></g></g></svg>