<svg xmlns="http://www.w3.org/2000/svg" viewBox="0 0 66.32 70.67"><defs><style>.cls-1{fill:#56d0fc;}.cls-2,.cls-4{fill:#fff;}.cls-3{fill:#fec72e;}.cls-4,.cls-5{opacity:0.31;}.cls-4{isolation:isolate;}.cls-6{fill:#d3d7da;}.cls-7{fill:none;stroke:#205081;stroke-miterlimit:10;}</style></defs><title>28.calendar</title><g id="Layer_2" data-name="Layer 2"><g id="Layer_1-2" data-name="Layer 1"><path class="cls-1" d="M65.82,20.05v-7.2a5,5,0,0,0-5-5H10a5,5,0,0,0-5,5v7.2Z"/><path class="cls-2" d="M60.63,7.89H10.19A5.2,5.2,0,0,0,5,13.07V60.52a5.71,5.71,0,0,0,.16,1.3V15.57a5.19,5.19,0,0,1,5.19-5.19H60.8a5.19,5.19,0,0,1,5,3.89v-1.2A5.2,5.2,0,0,0,60.63,7.89Z"/><circle class="cls-2" cx="19.9" cy="13.63" r="4.35"/><circle class="cls-2" cx="50.36" cy="13.63" r="4.08"/><rect class="cls-3" x="17.59" y="0.5" width="4.62" height="15.64" rx="2.21"/><rect class="cls-3" x="48.05" y="0.5" width="4.62" height="15.64" rx="2.21"/><path class="cls-4" d="M21.94,53.3v5.6a1.16,1.16,0,0,1-1.15,1.17H15.17A1.16,1.16,0,0,1,14,58.91h0v-.54h4.64a1.16,1.16,0,0,0,1.16-1.16h0V52.13h1A1.16,1.16,0,0,1,21.94,53.3Z"/><path class="cls-4" d="M33.53,53.3v5.6a1.16,1.16,0,0,1-1.15,1.17H26.76a1.16,1.16,0,0,1-1.15-1.17h0v-.54h4.63A1.16,1.16,0,0,0,31.4,57.2h0V52.13h1A1.16,1.16,0,0,1,33.53,53.3Z"/><path class="cls-2" d="M22.21,5V8.61a7.18,7.18,0,0,0-.68-3.19c-.42-.82-1-1.33-1.63-1.33-1.28,0-2.31,2-2.31,4.52V5c0-2.5,1-4.51,2.31-4.51.64,0,1.21.5,1.63,1.31A7.23,7.23,0,0,1,22.21,5Z"/><path class="cls-2" d="M52.71,5V8.61A7.18,7.18,0,0,0,52,5.42c-.42-.82-1-1.33-1.63-1.33-1.28,0-2.31,2-2.31,4.52V5c0-2.5,1-4.51,2.31-4.51C51,.51,51.61,1,52,1.82A7.23,7.23,0,0,1,52.71,5Z"/><path class="cls-4" d="M50.56,46.18v-5.6a1.16,1.16,0,0,1,1.15-1.17h5.62a1.14,1.14,0,0,1,1.15,1.15v.57H53.85a1.16,1.16,0,0,0-1.16,1.15v5.07h-1A1.16,1.16,0,0,1,50.56,46.18Z"/><path class="cls-4" d="M38.36,46.46V40.85a1.14,1.14,0,0,1,1.14-1.16h5.63a1.16,1.16,0,0,1,1.15,1.16v.55H41.65a1.16,1.16,0,0,0-1.16,1.16h0v5.06h-1A1.15,1.15,0,0,1,38.36,46.46Z"/><path class="cls-4" d="M26.15,46.46V40.85a1.16,1.16,0,0,1,1.16-1.16h5.61a1.16,1.16,0,0,1,1.17,1.15h0v.55H29.44a1.16,1.16,0,0,0-1.15,1.16v5.06h-1A1.16,1.16,0,0,1,26.15,46.46Z"/><path class="cls-4" d="M14,46.46V40.85a1.16,1.16,0,0,1,1.16-1.16h5.61a1.16,1.16,0,0,1,1.16,1.16h0v.55H17.31a1.16,1.16,0,0,0-1.17,1.15h0v5.06h-1A1.16,1.16,0,0,1,14,46.46Z"/><path class="cls-4" d="M46.35,53.3v5.6a1.16,1.16,0,0,1-1.15,1.17H39.58a1.17,1.17,0,0,1-1.17-1.17v-.54h4.65a1.16,1.16,0,0,0,1.15-1.16V52.13h1A1.15,1.15,0,0,1,46.35,53.3Z"/><g class="cls-5"><path class="cls-2" d="M21.33,28.4V34a1.16,1.16,0,0,1-1.15,1.17H14.56A1.16,1.16,0,0,1,13.4,34h0v-.55H18a1.16,1.16,0,0,0,1.16-1.15V27.24h1A1.16,1.16,0,0,1,21.33,28.4Z"/><path class="cls-2" d="M33.53,28.4V34a1.16,1.16,0,0,1-1.15,1.17H26.76A1.16,1.16,0,0,1,25.61,34h0v-.55h4.63a1.16,1.16,0,0,0,1.16-1.15V27.24h1A1.16,1.16,0,0,1,33.53,28.4Z"/><path class="cls-2" d="M45.71,28.4V34a1.17,1.17,0,0,1-1.17,1.17h-5.6A1.17,1.17,0,0,1,37.77,34v-.55h4.64a1.16,1.16,0,0,0,1.16-1.15V27.24h1A1.16,1.16,0,0,1,45.71,28.4Z"/><path class="cls-2" d="M57.93,28.4V34a1.16,1.16,0,0,1-1.15,1.17H51.16A1.16,1.16,0,0,1,50,34h0v-.55h4.63a1.16,1.16,0,0,0,1.16-1.15V27.24h1A1.16,1.16,0,0,1,57.93,28.4Z"/></g><path class="cls-3" d="M17.59,13.83v-1h4.62v1a2.31,2.31,0,0,1-4.62,0Z"/><path class="cls-3" d="M48.05,13.83v-1h4.66v1a2.31,2.31,0,0,1-4.62,0Z"/><path class="cls-6" d="M60.81,65.67a5.18,5.18,0,0,1-5.18,5H5.19A5.2,5.2,0,0,1,0,65.52V18.07a5.18,5.18,0,0,1,5-5.18V60.52a5.21,5.21,0,0,0,5.19,5.19H60.81Z"/><path class="cls-7" d="M60.63,7.89h-8v5.94a2.31,2.31,0,0,1-4.62,0V7.89H22.21v5.94a2.31,2.31,0,0,1-4.62,0V7.89h-7.4A5.2,5.2,0,0,0,5,13.07V60.52a5.19,5.19,0,0,0,5.19,5.19H60.63a5.19,5.19,0,0,0,5.19-5.19h0V13.07A5.2,5.2,0,0,0,60.63,7.89Z"/><rect class="cls-7" x="13.95" y="27.24" width="7.93" height="7.93" rx="1.16"/><rect class="cls-7" x="26.15" y="27.24" width="7.93" height="7.93" rx="1.16"/><rect class="cls-7" x="38.35" y="27.24" width="7.93" height="7.93" rx="1.16"/><rect class="cls-7" x="50.56" y="27.24" width="7.93" height="7.93" rx="1.16"/><rect class="cls-7" x="13.95" y="39.69" width="7.93" height="7.93" rx="1.16"/><rect class="cls-7" x="26.15" y="39.69" width="7.93" height="7.93" rx="1.16"/><rect class="cls-7" x="38.35" y="39.69" width="7.93" height="7.93" rx="1.16"/><rect class="cls-7" x="50.56" y="39.69" width="7.93" height="7.93" rx="1.16"/><rect class="cls-7" x="13.95" y="52.14" width="7.93" height="7.93" rx="1.16"/><rect class="cls-7" x="26.15" y="52.14" width="7.93" height="7.93" rx="1.16"/><rect class="cls-7" x="38.35" y="52.14" width="7.93" height="7.93" rx="1.16"/><path class="cls-7" d="M22.21,2.81v11a2.31,2.31,0,0,1-4.62,0v-11a2.31,2.31,0,0,1,4.62,0Z"/><path class="cls-7" d="M52.71,2.81v11a2.31,2.31,0,0,1-4.62,0v-11a2.31,2.31,0,0,1,4.62,0Z"/><line class="cls-7" x1="5" y1="20.05" x2="65.82" y2="20.05"/></g></g></svg>