<svg xmlns="http://www.w3.org/2000/svg" viewBox="0 0 90.91 57.04"><defs><style>.cls-1{fill:#56d0fc;}.cls-2,.cls-4{fill:none;stroke-miterlimit:10;}.cls-2{stroke:#fff;stroke-linecap:round;stroke-width:2px;}.cls-3{fill:#d3d7da;}.cls-4{stroke:#205081;}.cls-5{fill:#fec72e;}.cls-6{isolation:isolate;font-size:9.91px;fill:#fff;font-family:ArialMT, Arial;}</style></defs><title>45.calibrations</title><g id="Layer_2" data-name="Layer 2"><g id="Layer_1-2" data-name="Layer 1"><rect class="cls-1" x="6.9" y="3.79" width="80.6" height="45.87" rx="22.39" transform="translate(-0.56 1.01) rotate(-1.22)"/><line class="cls-2" x1="21.73" y1="30.87" x2="67.93" y2="14.37"/><line class="cls-2" x1="18.48" y1="21.83" x2="21.47" y2="30.11"/><line class="cls-2" x1="64.64" y1="5.74" x2="67.64" y2="14.03"/><path class="cls-3" d="M81.1,46.92a24.59,24.59,0,0,1-18.78,9.33L25.2,57A24.63,24.63,0,0,1,.06,32.94l0-2.51A24.49,24.49,0,0,1,9.38,10.61,24.37,24.37,0,0,0,4,26.43l0,2.51A24.63,24.63,0,0,0,29.2,53l37.12-.79A24.56,24.56,0,0,0,81.1,46.92Z"/><rect class="cls-4" x="4.01" y="0.9" width="86.38" height="51.76" rx="24.62" transform="translate(-0.56 1.01) rotate(-1.22)"/><circle class="cls-5" cx="21.73" cy="30.87" r="2.49"/><circle class="cls-5" cx="67.93" cy="14.37" r="2.49"/><circle class="cls-4" cx="21.73" cy="30.87" r="2.49"/><circle class="cls-4" cx="67.93" cy="14.37" r="2.49"/><line class="cls-2" x1="26.96" y1="45.52" x2="73.17" y2="29.01"/><text class="cls-6" transform="translate(24.31 43.85) rotate(-19.25)">1</text><text class="cls-6" transform="translate(33.99 40.29) rotate(-19.25)">2</text><text class="cls-6" transform="translate(44.49 36.42) rotate(-19.25)">3</text><text class="cls-6" transform="translate(55.58 32.67) rotate(-19.25)">4</text><text class="cls-6" transform="translate(66.48 28.79) rotate(-19.25)">5</text></g></g></svg>