<svg xmlns="http://www.w3.org/2000/svg" viewBox="0 0 78.75 66.58"><defs><style>.cls-1,.cls-3{fill:#d3d7da;}.cls-1{opacity:0.4;isolation:isolate;}.cls-2,.cls-4{fill:none;stroke-miterlimit:10;}.cls-2{stroke:#ffd253;stroke-linecap:round;}.cls-4{stroke:#205081;}.cls-5{fill:#56d0fc;}</style></defs><title>42.circumference</title><g id="Layer_2" data-name="Layer 2"><g id="Layer_1-2" data-name="Layer 1"><circle class="cls-1" cx="36.39" cy="31.47" r="26.94"/><line class="cls-2" x1="6.6" y1="66.08" x2="66.18" y2="66.08"/><path class="cls-3" d="M34.38,64.07c-.66,0-1.33.06-2,.06A31.82,31.82,0,0,1,31.26.5c.37,0,.75,0,1.12,0,.67,0,1.34,0,2,.06a31.82,31.82,0,0,0,0,63.51Z"/><circle class="cls-4" cx="36.39" cy="32.32" r="31.82"/><path class="cls-5" d="M58.36,31.31h0a2.32,2.32,0,0,1-1.3-3h0L62.69,14l13.9,4a2.29,2.29,0,0,1,1.57,2.84h0a2.29,2.29,0,0,1-2.84,1.57l-9.88-2.88L61.34,29.94a2.31,2.31,0,0,1-3,1.38Z"/><path class="cls-4" d="M58.36,31.31h0a2.32,2.32,0,0,1-1.3-3h0L62.69,14l13.9,4a2.29,2.29,0,0,1,1.57,2.84h0a2.29,2.29,0,0,1-2.84,1.57l-9.88-2.88L61.34,29.94a2.31,2.31,0,0,1-3,1.38Z"/></g></g></svg>