<svg xmlns="http://www.w3.org/2000/svg" viewBox="0 0 80.2 76.06"><defs><style>.cls-1{fill:#d3d7da;}.cls-2,.cls-4{fill:none;stroke:#205081;stroke-miterlimit:10;}.cls-2{stroke-linecap:round;}.cls-3{fill:#56d0fc;}.cls-5{fill:#fec72e;}.cls-6{fill:#3ed6ca;}</style></defs><title>31.clients</title><g id="Layer_2" data-name="Layer 2"><g id="Layer_1-2" data-name="Layer 1"><circle class="cls-1" cx="14.25" cy="8.67" r="8.17"/><path class="cls-2" d="M33,24.68a57.63,57.63,0,0,1,16.17-.21"/><path class="cls-2" d="M9.2,41a10.64,10.64,0,0,0-.12,1.59c0,6.81,6.49,12.78,16.15,16"/><path class="cls-2" d="M74.15,39.56a10.92,10.92,0,0,1,.42,3c0,7-6.77,13-16.79,16.21"/><circle class="cls-3" cx="17.25" cy="8.67" r="8.17"/><path class="cls-1" d="M15.59,37.67H14.25A56.32,56.32,0,0,1,0,35.56v-8a11.57,11.57,0,0,1,1.77-6.32,11.92,11.92,0,0,1,5.44-4.56,12.89,12.89,0,0,0,1.1.85,12.09,12.09,0,0,0-3.79,3.71A11.55,11.55,0,0,0,2.77,27.5v8A58.09,58.09,0,0,0,15.59,37.67Z"/><circle class="cls-1" cx="62.46" cy="8.67" r="8.17"/><path class="cls-1" d="M63.81,37.67H62.47a56.64,56.64,0,0,1-14.23-2.13v-8A11.55,11.55,0,0,1,50,21.2a11.92,11.92,0,0,1,5.44-4.56c.35.3.71.58,1.09.85a12.09,12.09,0,0,0-3.79,3.71A11.59,11.59,0,0,0,51,27.5v8A58,58,0,0,0,63.81,37.67Z"/><circle class="cls-1" cx="38.7" cy="46.58" r="8.17"/><path class="cls-1" d="M40,75.58H38.66A56.73,56.73,0,0,1,24.47,73.5v-8a11.58,11.58,0,0,1,1.77-6.33,11.9,11.9,0,0,1,5.44-4.55,12.64,12.64,0,0,0,1.09.84A12.06,12.06,0,0,0,29,59.17a11.58,11.58,0,0,0-1.77,6.33v8A58.89,58.89,0,0,0,40,75.58Z"/><circle class="cls-4" cx="17.25" cy="8.67" r="8.17"/><path class="cls-4" d="M31.48,27.5v8a56.57,56.57,0,0,1-14.23,2.13A56.73,56.73,0,0,1,3,35.56v-8a11.57,11.57,0,0,1,1.77-6.32,11.92,11.92,0,0,1,5.44-4.56,10.6,10.6,0,0,0,14,0,11.82,11.82,0,0,1,5.44,4.56A11.49,11.49,0,0,1,31.48,27.5Z"/><circle class="cls-5" cx="65.46" cy="8.67" r="8.17"/><circle class="cls-4" cx="65.46" cy="8.67" r="8.17"/><path class="cls-4" d="M79.7,27.5v8a56.57,56.57,0,0,1-14.23,2.13A56.64,56.64,0,0,1,51.24,35.5v-8A11.58,11.58,0,0,1,53,21.2a11.92,11.92,0,0,1,5.44-4.56,10.6,10.6,0,0,0,14,0,11.82,11.82,0,0,1,5.44,4.56A11.53,11.53,0,0,1,79.7,27.5Z"/><circle class="cls-6" cx="41.7" cy="46.58" r="8.17"/><circle class="cls-4" cx="41.7" cy="46.58" r="8.17"/><path class="cls-4" d="M55.93,65.43v8A56.57,56.57,0,0,1,41.7,75.56,56.63,56.63,0,0,1,27.47,73.5v-8a11.57,11.57,0,0,1,1.77-6.32,11.92,11.92,0,0,1,5.44-4.56,10.6,10.6,0,0,0,14,0,11.82,11.82,0,0,1,5.44,4.56A11.55,11.55,0,0,1,55.93,65.43Z"/></g></g></svg>