<svg xmlns="http://www.w3.org/2000/svg" viewBox="0 0 90.39 61.89"><defs><style>.cls-1{fill:#d3d7da;}.cls-2{fill:none;stroke:#205081;stroke-miterlimit:10;}.cls-3{fill:#56d0fc;}.cls-4{fill:#fec72e;}</style></defs><title>30.clients</title><g id="Layer_2" data-name="Layer 2"><g id="Layer_1-2" data-name="Layer 1"><path class="cls-1" d="M1.42,41.87V54.14a2.71,2.71,0,0,0,2.46,2.71A2.72,2.72,0,0,1,0,54.39H0V42.12A6.09,6.09,0,0,1,5.7,36,6.11,6.11,0,0,0,1.42,41.87Z"/><path class="cls-1" d="M21.84,61.64v.25H6.67V55a2.83,2.83,0,0,0,.14-.87V43.35a.64.64,0,0,1,.64-.64.63.63,0,0,1,.63.63h0V61.64Z"/><path class="cls-2" d="M45.67,24H57.45a8.78,8.78,0,0,1,8.79,8.77V50.46a3.92,3.92,0,0,1-3.91,3.92h0a3.93,3.93,0,0,1-3.92-3.92V34.9a.92.92,0,0,0-.92-.92h0a.93.93,0,0,0-.91.92V61.23H34.75V34.9a.92.92,0,0,0-.92-.92h0a.93.93,0,0,0-.91.92V50.46A3.94,3.94,0,0,1,29,54.38h0a3.94,3.94,0,0,1-3.92-3.92V32.77A8.8,8.8,0,0,1,33.87,24h11.8Z"/><circle class="cls-1" cx="43.65" cy="11.82" r="10.32"/><circle class="cls-3" cx="45.65" cy="10.82" r="10.32"/><circle class="cls-2" cx="45.65" cy="10.82" r="10.32"/><path class="cls-2" d="M23.25,35.39H7.52a6.11,6.11,0,0,0-6.1,6.1V53.77a2.71,2.71,0,0,0,2.7,2.72h0a2.72,2.72,0,0,0,2.72-2.72h0V43a.64.64,0,0,1,.64-.64h0a.64.64,0,0,1,.63.64V61.23H23.25Z"/><circle class="cls-1" cx="14.69" cy="27.08" r="7.4"/><circle class="cls-4" cx="15.69" cy="26.08" r="7.4"/><circle class="cls-4" cx="75.62" cy="26.08" r="7.4"/><circle class="cls-2" cx="15.69" cy="26.08" r="7.4"/><path class="cls-2" d="M68.05,35.39H83.79a6.11,6.11,0,0,1,6.1,6.1V53.77a2.72,2.72,0,0,1-2.72,2.72h0a2.71,2.71,0,0,1-2.71-2.71h0V43a.64.64,0,0,0-.64-.64h0a.64.64,0,0,0-.64.64V61.23H68.05Z"/><circle class="cls-2" cx="75.62" cy="26.08" r="7.4"/></g></g></svg>