<svg xmlns="http://www.w3.org/2000/svg" viewBox="0 0 69.08 71.78"><defs><style>.cls-1{fill:#fec72e;}.cls-2,.cls-4{fill:none;stroke-miterlimit:10;}.cls-2{stroke:#f2f2f2;stroke-linecap:round;stroke-width:2px;}.cls-3{fill:#d3d7da;}.cls-4{stroke:#205081;}.cls-5{fill:#3ed6ca;}.cls-6{fill:#56d0fc;}.cls-7{fill:#fff;}</style></defs><title>50.color</title><g id="Layer_2" data-name="Layer 2"><g id="Layer_1-2" data-name="Layer 1"><rect class="cls-1" x="3.99" y="0.5" width="17.23" height="52.55"/><line class="cls-2" x1="8.36" y1="5.54" x2="16.95" y2="5.48"/><line class="cls-2" x1="8.65" y1="13.1" x2="17.25" y2="13.03"/><line class="cls-2" x1="8.95" y1="20.66" x2="17.54" y2="20.59"/><line class="cls-2" x1="9.24" y1="28.21" x2="17.84" y2="28.15"/><line class="cls-2" x1="9.54" y1="35.77" x2="18.14" y2="35.71"/><rect class="cls-3" y="5.5" width="4" height="52.55"/><polygon class="cls-3" points="64.59 66.78 64.59 71.78 0 71.78 0 58.05 4 58.05 4 66.78 64.59 66.78"/><rect class="cls-4" x="3.99" y="0.5" width="17.23" height="52.55"/><polyline class="cls-5" points="8.18 66.78 6.13 66.31 6.96 62.71 8.12 57.58 9.16 53.05 20.47 3.53 21.23 3.71 36.64 7.22 33.24 22.14 26.18 53.05 23.56 64.49 23.04 66.78"/><polyline class="cls-4" points="8.18 66.78 6.13 66.31 6.96 62.71 8.12 57.58 9.16 53.05 20.47 3.53 21.23 3.71 36.64 7.22 33.24 22.14 26.18 53.05 23.56 64.49 23.04 66.78"/><line class="cls-2" x1="23.05" y1="10.02" x2="31.38" y2="12.15"/><line class="cls-2" x1="21.41" y1="17.41" x2="29.74" y2="19.54"/><line class="cls-2" x1="19.77" y1="24.79" x2="28.1" y2="26.92"/><line class="cls-2" x1="18.14" y1="32.18" x2="26.46" y2="34.31"/><line class="cls-2" x1="16.5" y1="39.56" x2="24.83" y2="41.69"/><polygon class="cls-6" points="56.08 18.6 31.66 53.05 23.56 64.49 21.94 66.78 12.7 66.78 6.96 62.71 5.32 61.55 8.12 57.59 11.33 53.05 21.23 39.1 33.24 22.14 42.54 9 56.08 18.6"/><polygon class="cls-4" points="56.08 18.6 31.66 53.05 23.56 64.49 21.94 66.78 12.7 66.78 6.96 62.71 5.32 61.55 8.12 57.59 11.33 53.05 21.23 39.1 33.24 22.14 42.54 9 56.08 18.6"/><rect class="cls-7" x="3.99" y="53.05" width="64.59" height="13.72"/><rect class="cls-4" x="3.99" y="53.05" width="64.59" height="13.72"/><line class="cls-4" x1="18.57" y1="53.36" x2="18.57" y2="66.34"/><rect class="cls-5" x="8.87" y="57.56" width="5.24" height="5.18"/><rect class="cls-4" x="8.87" y="57.56" width="5.24" height="5.18"/><line class="cls-2" x1="41.05" y1="18.01" x2="47.87" y2="23.24"/><line class="cls-2" x1="36.64" y1="24.17" x2="43.47" y2="29.39"/><line class="cls-2" x1="32.24" y1="30.32" x2="39.07" y2="35.54"/><line class="cls-2" x1="27.84" y1="36.47" x2="34.67" y2="41.69"/><line class="cls-2" x1="23.44" y1="42.62" x2="30.27" y2="47.84"/></g></g></svg>