<svg xmlns="http://www.w3.org/2000/svg" viewBox="0 0 62.79 68.75"><defs><style>.cls-1{fill:#fec72e;}.cls-2{fill:none;stroke:#205081;stroke-miterlimit:10;}.cls-3{fill:#d3d7da;}.cls-4{fill:#56d0fc;}</style></defs><title>01.copy_1</title><g id="Layer_2" data-name="Layer 2"><g id="Layer_1-2" data-name="Layer 1"><polyline class="cls-1" points="34.29 0.5 34.29 10.25 25.29 10.25"/><polygon class="cls-2" points="25.29 10 25.29 49.59 62.29 49.59 62.29 0.5 34.29 0.5 25.29 10"/><polyline class="cls-2" points="34.29 0.5 34.29 10.25 25.29 10.25"/><line class="cls-2" x1="37.69" y1="6.12" x2="57.94" y2="6.12"/><line class="cls-2" x1="37.69" y1="11.37" x2="57.94" y2="11.37"/><line class="cls-2" x1="29.19" y1="16.62" x2="57.94" y2="16.62"/><line class="cls-2" x1="29.19" y1="21.87" x2="57.94" y2="21.87"/><line class="cls-2" x1="29.19" y1="27.12" x2="57.94" y2="27.12"/><line class="cls-2" x1="29.19" y1="32.37" x2="57.94" y2="32.37"/><line class="cls-2" x1="29.19" y1="37.62" x2="57.94" y2="37.62"/><line class="cls-2" x1="29.19" y1="42.87" x2="57.94" y2="42.87"/><polygon class="cls-3" points="0 25.15 0.2 68.75 35 68.75 35 16.62 8.66 16.62 0 25.15"/><polygon class="cls-2" points="4.13 25.87 4.13 65.47 41.13 65.47 41.13 16.37 13.13 16.37 4.13 25.87"/><path class="cls-4" d="M13.46,16.37v2.91h0c0,1.71.11,3.41.11,5.12a.25.25,0,0,1-.08.18v1.47h0a.2.2,0,0,1-.2.22h0c-3-.31-6.1.16-9.14.16v39h37V16.37Z"/><path class="cls-1" d="M13,25.81V24.35a.18.18,0,0,1,.08-.18c0-1.51-.09-3-.09-4.53V16.55L4.18,25.87V26C7.09,26,10.06,25.57,13,25.81Z"/><polygon class="cls-2" points="4.13 25.87 4.13 65.47 41.13 65.47 41.13 16.37 13.13 16.37 4.13 25.87"/><polyline class="cls-2" points="13.13 16.37 13.13 26.12 4.13 26.12"/><line class="cls-2" x1="16.52" y1="21.99" x2="36.77" y2="21.99"/><line class="cls-2" x1="16.52" y1="27.24" x2="36.77" y2="27.24"/><line class="cls-2" x1="8.02" y1="32.49" x2="36.77" y2="32.49"/><line class="cls-2" x1="8.02" y1="37.74" x2="36.77" y2="37.74"/><line class="cls-2" x1="8.02" y1="42.99" x2="36.77" y2="42.99"/><line class="cls-2" x1="8.02" y1="48.24" x2="36.77" y2="48.24"/><line class="cls-2" x1="8.02" y1="53.49" x2="36.77" y2="53.49"/><line class="cls-2" x1="8.02" y1="58.74" x2="36.77" y2="58.74"/></g></g></svg>