<svg xmlns="http://www.w3.org/2000/svg" viewBox="0 0 75.31 79.47"><defs><style>.cls-1{fill:#d3d7da;}.cls-2{fill:#56d0fc;}.cls-3,.cls-9{fill:#fff;}.cls-4{fill:#fec72e;}.cls-5,.cls-6,.cls-7,.cls-8{fill:none;stroke-miterlimit:10;}.cls-5,.cls-8{stroke:#205081;}.cls-6{stroke:#56d0fc;}.cls-6,.cls-7,.cls-8{stroke-linecap:round;}.cls-7{stroke:#ffd253;}.cls-9{isolation:isolate;font-size:4.55px;font-family:Roboto-Bold, Roboto;font-weight:700;}</style></defs><title>19.create.variations.order</title><g id="Layer_2" data-name="Layer 2"><g id="Layer_1-2" data-name="Layer 1"><path class="cls-1" d="M53.76,75.51l-.6.85s-4.47.31-4.7.31.35-1-.45-.92c-.45-1-3.66.16-3.66-1.52L40.51,70h-39s-.41,9.5,9.39,9.5H49.31c1.72,0,3.46-1.65,4.92-3.57Z"/><path class="cls-2" d="M58,68.54h4.08a2.83,2.83,0,0,0,2.83-2.83h0v-52L51,.5H16.81a1.07,1.07,0,0,0-1.07,1.07h0V8.27l28.09.16L57.77,21.61,58,68.54"/><path class="cls-3" d="M44,67H.5s-.4,9.5,9.18,9.5H50.17s-6.28-1.14-6.28-6.59Z"/><polygon class="cls-4" points="51.09 0.77 51.09 14.31 64.9 14.31 64.74 13.41 51.09 0.77"/><polyline class="cls-4" points="43.83 8.43 43.83 22.24 57.77 22.24"/><polyline class="cls-5" points="43.83 8.43 43.83 22.24 57.77 22.24"/><path class="cls-1" d="M11.08,67H4.71V11.39c0-.59.68-1.07,1.5-1.07H8.13V66.47Z"/><path class="cls-1" d="M15.46,8.39v-6H14A1.07,1.07,0,0,0,13,3.45h0V8.39Z"/><path class="cls-5" d="M8.61,66.46V9.51a1.07,1.07,0,0,1,1-1.12h34.2L57.77,21.57v48a6.9,6.9,0,0,1-6.9,6.9h0a6.9,6.9,0,0,1-6.9-6.9V67H.5v.32a9.18,9.18,0,0,0,9.18,9.18H50.31"/><polyline class="cls-5" points="50.96 0.5 50.96 14.31 64.9 14.31"/><path class="cls-5" d="M15.74,8.27V1.58A1.07,1.07,0,0,1,16.8.5H51L64.9,13.68v52a2.83,2.83,0,0,1-2.83,2.83H58"/><line class="cls-6" x1="14.06" y1="30.6" x2="45.73" y2="30.6"/><line class="cls-6" x1="14.06" y1="43.53" x2="45.73" y2="43.53"/><line class="cls-6" x1="14.06" y1="49.74" x2="45.73" y2="49.74"/><line class="cls-6" x1="14.06" y1="55.25" x2="45.73" y2="55.25"/><line class="cls-6" x1="14.06" y1="34.06" x2="22.64" y2="34.06"/><polyline class="cls-7" points="31.97 21.48 33.4 23 34.83 21.48 36.26 23 37.69 21.48 39.12 23 40.56 21.48"/><line class="cls-6" x1="14.06" y1="40.36" x2="22.64" y2="40.36"/><line class="cls-6" x1="14.06" y1="46.38" x2="22.64" y2="46.38"/><line class="cls-6" x1="14.06" y1="52.46" x2="22.64" y2="52.46"/><line class="cls-6" x1="14.06" y1="37.19" x2="44.97" y2="37.19"/><path class="cls-6" d="M31,30.6s.13,24.65,0,24.65"/><path class="cls-6" d="M38.23,30.6s.12,24.65,0,24.65"/><line class="cls-6" x1="40.93" y1="33.73" x2="44.35" y2="33.73"/><line class="cls-6" x1="40.93" y1="40.14" x2="44.35" y2="40.14"/><line class="cls-6" x1="33.63" y1="33.73" x2="35.72" y2="33.73"/><line class="cls-6" x1="33.63" y1="40.36" x2="35.72" y2="40.36"/><line class="cls-6" x1="33.63" y1="46.63" x2="35.72" y2="46.63"/><line class="cls-6" x1="33.63" y1="52.9" x2="35.72" y2="52.9"/><line class="cls-7" x1="40.32" y1="60.38" x2="48.01" y2="60.38"/><line class="cls-7" x1="40.51" y1="63.55" x2="48.2" y2="63.55"/><circle class="cls-4" cx="62.49" cy="49.74" r="12.32"/><path class="cls-3" d="M74.81,49.74A12.34,12.34,0,0,1,62.49,62.06,11.07,11.07,0,0,1,61.34,62a12.32,12.32,0,0,0,0-24.53h1.15A12.33,12.33,0,0,1,74.81,49.74Z"/><circle class="cls-5" cx="62.49" cy="49.74" r="12.32"/><path class="cls-3" d="M63.94,52.61a1.81,1.81,0,0,0-.36-1.19,3.54,3.54,0,0,0-1.26-.86,10,10,0,0,1-3.12-1.64,3.14,3.14,0,0,1-1-2.5,3.22,3.22,0,0,1,1-2.45,4.54,4.54,0,0,1,2.73-1.13v-1.9H63.5v1.92a4.21,4.21,0,0,1,2.59,1.33A4.05,4.05,0,0,1,67,47h-3.1a2.93,2.93,0,0,0-.38-1.61,1.17,1.17,0,0,0-1-.57,1.09,1.09,0,0,0-1,.45,2,2,0,0,0-.25,1.12,1.74,1.74,0,0,0,.35,1.12,3.73,3.73,0,0,0,1.28.87A10.74,10.74,0,0,1,66,50.07a3.1,3.1,0,0,1,1,2.48A3.19,3.19,0,0,1,66,55a4.53,4.53,0,0,1-2.71,1.1v1.79H61.74V56.12a5,5,0,0,1-2.9-1.2,3.86,3.86,0,0,1-1.15-3h3.1a2.49,2.49,0,0,0,.48,1.73,1.61,1.61,0,0,0,1.26.52,1.26,1.26,0,0,0,1-.43A1.76,1.76,0,0,0,63.94,52.61Z"/><circle class="cls-4" cx="18.35" cy="22.24" r="5.39"/><circle class="cls-8" cx="18.35" cy="22.24" r="5.39"/><text class="cls-9" transform="translate(14.99 23.69) scale(1.45 1)">$</text><text class="cls-9" transform="translate(18.74 23.69) scale(1.45 1)">$</text></g></g></svg>