<svg xmlns="http://www.w3.org/2000/svg" viewBox="0 0 68.04 83.69"><defs><style>.cls-1{fill:#56d0fc;}.cls-2{fill:#d3d7da;}.cls-3,.cls-4,.cls-5{fill:none;stroke-miterlimit:10;}.cls-3{stroke:#205081;}.cls-4{stroke:#56d0fc;}.cls-4,.cls-5{stroke-linecap:round;stroke-width:1.5px;}.cls-5{stroke:#ffd253;}.cls-6,.cls-8{fill:#fff;}.cls-7{fill:#fec72e;}.cls-8{isolation:isolate;font-size:9.18px;font-family:Roboto-Bold, Roboto;font-weight:700;}</style></defs><title>81.create.invoice</title><g id="Layer_2" data-name="Layer 2"><g id="Layer_1-2" data-name="Layer 1"><path class="cls-1" d="M64.49.45H14.63a3.06,3.06,0,0,0-3.06,3.06V8h47a.22.22,0,0,1,.16,0,3,3,0,0,1,2.41,3.49v0h0V31.9a.15.15,0,0,1-.1.15V48.14a.18.18,0,0,1,0,.12c0,7.09.08,14.19.12,21.28l.34-.64L64.75,75l2.77-5.31V3.51A3.06,3.06,0,0,0,64.49.45Z"/><path class="cls-2" d="M14.63.45a3.06,3.06,0,0,0-3.06,3.06V8.08H8.06a3.09,3.09,0,0,0-1.27.28l-.22-.28V3.51A3.06,3.06,0,0,1,9.63.45Z"/><path class="cls-2" d="M8.06,8.08a3.08,3.08,0,0,0-3.06,3V77.65c.2.31.44.67.67,1l-2.5,3.89S1.17,79.38,0,77.6V11.08a3.05,3.05,0,0,1,3.06-3Z"/><path class="cls-3" d="M11.57,8.08V3.5a3.05,3.05,0,0,1,3.06-3H64.49a3,3,0,0,1,3.05,3V69.71L64.82,75,61.6,68.89,61,70"/><line class="cls-4" x1="9.84" y1="30.52" x2="55.24" y2="30.52"/><polyline class="cls-4" points="18.49 30.52 18.49 37.74 18.49 44.95 18.49 69.54"/><line class="cls-4" x1="9.84" y1="37.74" x2="55.24" y2="37.74"/><line class="cls-4" x1="9.84" y1="44.95" x2="55.24" y2="44.95"/><line class="cls-4" x1="55.24" y1="52.16" x2="9.99" y2="52.16"/><line class="cls-4" x1="9.84" y1="59.38" x2="55.24" y2="59.38"/><line class="cls-5" x1="42.41" y1="14.5" x2="55.24" y2="14.5"/><line class="cls-5" x1="42.41" y1="17.69" x2="51" y2="17.69"/><line class="cls-5" x1="42.41" y1="20.87" x2="55.24" y2="20.87"/><circle class="cls-6" cx="17.53" cy="17.69" r="5.62"/><circle class="cls-7" cx="16.43" cy="19.44" r="6.59"/><circle class="cls-3" cx="16.43" cy="19.44" r="6.59"/><text class="cls-8" transform="translate(13.61 22.51) scale(1.23 1)">$</text><path class="cls-3" d="M5,36.56V11.08a3.05,3.05,0,0,1,3.06-3H57.92a3.07,3.07,0,0,1,3,3v66.2l-2.78,5.31L55,76.46,51.82,82.6l-3.2-6.13-3.2,6.13-3.21-6.13L39,82.6,35.8,76.47l-4,6.13-4-6.13L23.88,82.6l-3.94-6.13L16,82.6l-3.94-6.13L8.12,82.6,5,77.66V36.56Z"/><line class="cls-4" x1="9.99" y1="66.1" x2="55.24" y2="66.1"/></g></g></svg>