<svg xmlns="http://www.w3.org/2000/svg" viewBox="0 0 100.29 64.09"><defs><style>.cls-1,.cls-10,.cls-4,.cls-5,.cls-6,.cls-7,.cls-9{fill:none;stroke-miterlimit:10;}.cls-1,.cls-6{stroke:#ffd253;}.cls-1{opacity:0.34;}.cls-1,.cls-10{isolation:isolate;}.cls-2{fill:#56d0fc;}.cls-3{fill:#d3d7da;}.cls-4{stroke:#205081;}.cls-5{stroke:#3fa9f5;}.cls-7{stroke:#3ed6ca;}.cls-8{fill:#3ed6ca;}.cls-10,.cls-9{stroke:#56d0fc;stroke-linecap:round;}.cls-10{opacity:0.36;}</style></defs><title>17.dashboard</title><g id="Layer_2" data-name="Layer 2"><g id="Layer_1-2" data-name="Layer 1"><rect class="cls-1" x="44.29" y="17.73" width="4.57" height="4.57" rx="0.65"/><polyline class="cls-2" points="26.76 44.88 26.76 35.91 30.53 35.91 30.53 44.88"/><polyline class="cls-2" points="34.45 44.55 34.45 34.09 38.22 34.09 38.22 44.55"/><polyline class="cls-2" points="42.4 44.55 42.4 31.06 46.18 31.06 46.18 44.55"/><polyline class="cls-2" points="50.29 44.55 50.29 34.09 54.07 34.09 54.07 44.55"/><polyline class="cls-2" points="58.25 44.55 58.25 29.17 62.03 29.17 62.03 44.55"/><path class="cls-3" d="M12.85,4a5.66,5.66,0,0,0-.41,2.11V53.35H9.56V9.1A5.62,5.62,0,0,1,12.85,4Z"/><polygon class="cls-3" points="96.79 58.48 96.79 59.36 90.33 64.09 6.59 64.09 0 59.36 0 56.35 2.88 56.35 2.88 56.36 9.48 61.09 93.22 61.09 96.79 58.48"/><path class="cls-4" d="M12.56,53.35V6.1A5.6,5.6,0,0,1,18.16.5H84.51a5.6,5.6,0,0,1,5.6,5.6h0V53.35"/><polygon class="cls-2" points="99.79 53.35 99.79 56.36 93.33 61.09 9.59 61.09 2.99 56.36 2.99 53.83 9 58.15 92.74 58.15 99.2 53.41 99.2 53.35 99.79 53.35"/><polygon class="cls-4" points="51.89 61.1 93.33 61.1 99.79 56.36 99.79 53.35 63.18 53.35 59.95 56.36 51.89 56.36 43.66 56.36 40.36 53.35 3 53.35 3 56.36 9.59 61.1 51.89 61.1"/><rect class="cls-4" x="17.5" y="5.7" width="67.55" height="43.08"/><rect class="cls-4" x="24.6" y="12.92" width="11.13" height="11.13" rx="1.21"/><rect class="cls-4" x="40.21" y="12.92" width="11.13" height="11.13" rx="1.21"/><rect class="cls-4" x="55.81" y="12.92" width="11.13" height="11.13" rx="1.21"/><polyline class="cls-4" points="24.6 29.71 24.6 44.61 65.49 44.61"/><polyline class="cls-4" points="26.76 44.88 26.76 35.91 30.53 35.91 30.53 44.88"/><polyline class="cls-4" points="34.45 44.55 34.45 34.09 38.22 34.09 38.22 44.55"/><polyline class="cls-4" points="42.4 44.55 42.4 31.06 46.18 31.06 46.18 44.55"/><polyline class="cls-4" points="50.29 44.55 50.29 34.09 54.07 34.09 54.07 44.55"/><polyline class="cls-4" points="58.25 44.55 58.25 29.17 62.03 29.17 62.03 44.55"/><path class="cls-4" d="M74.74,20.05a3.6,3.6,0,1,1,4.34-4.38"/><path class="cls-5" d="M79.15,16.69A3.6,3.6,0,0,1,76.51,20"/><path class="cls-6" d="M76.08,24.08a3.59,3.59,0,0,1,3,4.07,3.55,3.55,0,0,1-.39,1.19"/><path class="cls-4" d="M77.83,30.43a3.6,3.6,0,1,1-4.56-5.57A3.55,3.55,0,0,1,75,24.08"/><path class="cls-4" d="M74,42a3.6,3.6,0,1,1,5-4.3"/><path class="cls-7" d="M79.16,38.73a3.6,3.6,0,0,1-3.6,3.6h0"/><path id="_Compound_Path_" data-name=" Compound Path " class="cls-8" d="M34,17.66h-.69a3.35,3.35,0,0,0-.41-1l.49-.49a.45.45,0,0,0,0-.63L33,15.22a.44.44,0,0,0-.61,0l0,0-.49.48a3.35,3.35,0,0,0-1-.41V14.6a.46.46,0,0,0-.45-.44H29.9a.46.46,0,0,0-.45.44v.62a3.35,3.35,0,0,0-1,.41L28,15.22a.44.44,0,0,0-.62,0h0l-.37.37a.44.44,0,0,0,0,.61l0,0,.48.49a3.38,3.38,0,0,0-.42,1h-.69a.43.43,0,0,0-.44.42v.54a.46.46,0,0,0,.45.45h.7a3.35,3.35,0,0,0,.41,1l-.49.49a.44.44,0,0,0,0,.61l0,0,.36.37a.45.45,0,0,0,.63,0l.49-.49a3,3,0,0,0,1,.42v.69a.46.46,0,0,0,.44.45h.52a.45.45,0,0,0,.45-.45v-.69a3.35,3.35,0,0,0,1-.41l.48.49a.45.45,0,0,0,.64,0h0l.36-.36a.44.44,0,0,0,0-.62h0l-.48-.49a3.35,3.35,0,0,0,.41-1H34a.46.46,0,0,0,.44-.45v-.52a.44.44,0,0,0-.36-.51Zm-3.79,2.11a1.42,1.42,0,1,1,1.41-1.43v0a1.41,1.41,0,0,1-1.41,1.41Z"/><rect class="cls-6" x="42.22" y="15.2" width="4.57" height="4.57" rx="0.65"/><polyline class="cls-9" points="57.47 20.86 59.75 18.48 62.42 20.35 65.49 16.5"/><polyline class="cls-10" points="57.1 18.87 59.38 16.5 62.05 18.36 65.12 14.52"/></g></g></svg>