<svg xmlns="http://www.w3.org/2000/svg" viewBox="0 0 73.51 85.08"><defs><style>.cls-1{fill:#d3d7da;}.cls-2,.cls-3,.cls-4,.cls-6{fill:none;stroke-miterlimit:10;}.cls-2,.cls-4{stroke:#205081;}.cls-3{stroke:#ffd253;}.cls-3,.cls-4,.cls-6{stroke-linecap:round;}.cls-4{stroke-dasharray:4;}.cls-5{fill:#56d0fc;}.cls-6{stroke:#fff;stroke-width:3px;}</style></defs><title>55.delete</title><g id="Layer_2" data-name="Layer 2"><g id="Layer_1-2" data-name="Layer 1"><path class="cls-1" d="M57.67,81.08v1a3,3,0,0,1-3,3H3a3,3,0,0,1-3-3V13.75a3,3,0,0,1,3-3H4V78.08a3,3,0,0,0,3,3Z"/><rect class="cls-2" x="4" y="6.75" width="57.67" height="74.33" rx="3"/><line class="cls-2" x1="11.17" y1="31.25" x2="54.34" y2="31.25"/><line class="cls-2" x1="11.17" y1="35.58" x2="54.34" y2="35.58"/><line class="cls-2" x1="11.17" y1="39.92" x2="54.34" y2="39.92"/><line class="cls-2" x1="11.17" y1="44.25" x2="54.34" y2="44.25"/><line class="cls-2" x1="11.17" y1="48.58" x2="54.34" y2="48.58"/><line class="cls-2" x1="11.17" y1="52.92" x2="54.34" y2="52.92"/><line class="cls-2" x1="11.17" y1="57.25" x2="54.42" y2="57.25"/><line class="cls-2" x1="11.17" y1="61.58" x2="54.42" y2="61.58"/><line class="cls-2" x1="11.17" y1="65.92" x2="54.42" y2="65.92"/><line class="cls-3" x1="11.17" y1="17.27" x2="28.17" y2="17.27"/><line class="cls-3" x1="11.17" y1="21.87" x2="28.17" y2="21.87"/><line class="cls-3" x1="11.17" y1="26.52" x2="28.17" y2="26.52"/><line class="cls-4" x1="68.67" y1="33.08" x2="68.67" y2="76.84"/><circle class="cls-5" cx="59.09" cy="14.42" r="13.92"/><circle class="cls-2" cx="59.09" cy="14.42" r="13.92"/><line class="cls-6" x1="54.47" y1="9.81" x2="63.7" y2="19.03"/><line class="cls-6" x1="63.7" y1="9.81" x2="54.47" y2="19.03"/></g></g></svg>