<svg xmlns="http://www.w3.org/2000/svg" viewBox="0 0 68.8 65.77"><defs><style>.cls-1{fill:#d3d7da;}.cls-2{fill:#56d0fc;}.cls-3,.cls-4{fill:none;stroke-miterlimit:10;}.cls-3{stroke:#205081;}.cls-4{stroke:#ffd253;stroke-linecap:round;stroke-width:3px;}</style></defs><title>46.delete</title><g id="Layer_2" data-name="Layer 2"><g id="Layer_1-2" data-name="Layer 1"><path class="cls-1" d="M50.18,58.62a7.44,7.44,0,0,1-9.09-1.76L8.47,18.93A7.48,7.48,0,0,1,9.26,8.38h0l7-6.06a7.49,7.49,0,0,1,8.57-.85,7,7,0,0,0-1.46,1L16.32,8.53a7.49,7.49,0,0,0-.79,10.56L48.14,57A7.38,7.38,0,0,0,50.18,58.62Z"/><path class="cls-2" d="M34.64,41.22,53.05,25.39h0L66.91,41.51a6.85,6.85,0,0,1-.73,9.66h0l-8,6.89a6.84,6.84,0,0,1-9.66-.72Z"/><rect class="cls-3" x="28.84" y="-2.51" width="24.28" height="64.99" rx="7.49" transform="translate(-9.64 33.96) rotate(-40.69)"/><line class="cls-3" x1="53.43" y1="25.84" x2="34.49" y2="41.06"/><line class="cls-4" x1="56.39" y1="64.27" x2="1.5" y2="64.27"/></g></g></svg>