<svg xmlns="http://www.w3.org/2000/svg" viewBox="0 0 68.71 66.58"><defs><style>.cls-1,.cls-3{fill:#d3d7da;}.cls-1{opacity:0.4;isolation:isolate;}.cls-2,.cls-4{fill:none;stroke-miterlimit:10;}.cls-2{stroke:#ffd253;stroke-linecap:round;}.cls-4{stroke:#205081;}.cls-5{fill:#56d0fc;}.cls-6{fill:#fec72e;}</style></defs><title>43.diameter</title><g id="Layer_2" data-name="Layer 2"><g id="Layer_1-2" data-name="Layer 1"><circle class="cls-1" cx="36.39" cy="32.32" r="26.94"/><line class="cls-2" x1="6.6" y1="66.08" x2="66.18" y2="66.08"/><path class="cls-3" d="M34.38,64.07c-.66,0-1.33.06-2,.06A31.82,31.82,0,0,1,31.26.5c.37,0,.75,0,1.12,0,.67,0,1.34,0,2,.06a31.82,31.82,0,0,0,0,63.51Z"/><circle class="cls-4" cx="36.39" cy="32.32" r="31.82"/><circle class="cls-5" cx="36.39" cy="32.32" r="2.16"/><circle class="cls-4" cx="36.39" cy="32.32" r="2.16"/><line class="cls-4" x1="36.39" y1="32.32" x2="56.91" y2="7.99"/><circle class="cls-6" cx="56.91" cy="7.99" r="2.16"/><circle class="cls-4" cx="56.91" cy="7.99" r="2.16"/></g></g></svg>