<svg xmlns="http://www.w3.org/2000/svg" viewBox="0 0 75.35 71.48"><defs><style>.cls-1{fill:#d3d7da;}.cls-2{fill:none;stroke:#205081;stroke-miterlimit:10;}.cls-3{fill:#56d0fc;}.cls-4{fill:#fff;}.cls-5{fill:#fec72e;}</style></defs><title>03.edit</title><g id="Layer_2" data-name="Layer 2"><g id="Layer_1-2" data-name="Layer 1"><path class="cls-1" d="M30.69,30.87l11.46,4.28,27.29,27.6a4.85,4.85,0,0,1,0,6.82h0a4.85,4.85,0,0,1-6.82,0L35,42.28Z"/><polygon class="cls-1" points="17.8 58.02 17.8 61.69 7.84 61.69 7.84 50.46 10.94 50.46 10.94 58.02 17.8 58.02"/><polygon class="cls-1" points="10.94 50.46 10.94 51.01 7.84 54.13 0 54.13 0 4.5 3.11 4.5 3.11 50.46 10.94 50.46"/><polygon class="cls-1" points="64.31 54.47 64.31 54.95 64.04 67.09 14.69 67.38 14.69 58.02 17.8 58.02 17.8 63.71 55.3 63.71 57.27 61.69 57.46 61.49 64.31 54.47"/><rect class="cls-2" x="10.84" y="8.06" width="49.62" height="49.63"/><polyline class="cls-2" points="10.84 50.13 3 50.13 3 0.5 52.63 0.5 52.63 8.06"/><line class="cls-2" x1="36.37" y1="35.48" x2="39.16" y2="32.56"/><path class="cls-3" d="M52,55.57a21.43,21.43,0,0,1-3.26-2.83c-1-1.16-1.91-2.46-3-3.6A38.48,38.48,0,0,0,42.17,46a6.42,6.42,0,0,1-1.28-1.27c-.51-.73-.74-1.45-1.56-1.87A.23.23,0,0,1,39,42.8l0,0a16.7,16.7,0,0,1-.94-2.65c-.37-1.1-.88-2.15-1.31-3.23s-.66-2.07-1-3.09a23.8,23.8,0,0,1-1-2.48l-.38-.14a.25.25,0,0,1,.13-.48,2.46,2.46,0,0,1,.38.14.21.21,0,0,1,.26.1,11.24,11.24,0,0,0,1.64.79c.67.22,1.38.29,2.06.47a23.59,23.59,0,0,1,4.81,1.86c3.17,1.65,5.73,4.25,8.19,6.78,1.31,1.34,2.6,2.7,4,4a39.47,39.47,0,0,1,3.93,3.72c.6.72,1.47,1.26,2.1,1.95A20.89,20.89,0,0,0,64,52.78,16.55,16.55,0,0,1,65.92,55c.43.55,1,.64,1.49,1.19V13.69H17.69V63.32H60.16A70,70,0,0,0,52,55.57Z"/><polyline class="cls-2" points="67.32 50.94 67.32 63.38 55.19 63.38"/><polyline class="cls-2" points="55.19 63.38 17.69 63.38 17.69 13.75 67.32 13.75 67.32 50.94"/><line class="cls-2" x1="29.07" y1="23.5" x2="59.19" y2="23.5"/><line class="cls-2" x1="29.07" y1="29.12" x2="59.19" y2="29.12"/><line class="cls-2" x1="29.07" y1="34.75" x2="59.19" y2="34.75"/><line class="cls-2" x1="29.07" y1="40.37" x2="59.19" y2="40.37"/><line class="cls-2" x1="29.07" y1="46" x2="59.19" y2="46"/><line class="cls-2" x1="29.07" y1="51.62" x2="59.19" y2="51.62"/><path class="cls-4" d="M34.69,30.87l11.46,4.28,27.29,27.6a4.85,4.85,0,0,1,0,6.82h0a4.85,4.85,0,0,1-6.82,0L39,42.28Z"/><path class="cls-5" d="M73.44,62.75,46.32,35.33c-.56.64-1.19,1.21-1.8,1.82a23,23,0,0,1-2.31,2.21A19.44,19.44,0,0,0,39.34,42c-.11.12-.21.25-.31.38L66.6,69.59a4.85,4.85,0,0,0,6.82,0h0A4.84,4.84,0,0,0,73.44,62.75Z"/><polygon class="cls-5" points="35.27 31.44 35.93 33.65 37.47 32.23 35.27 31.44"/><line class="cls-2" x1="38.94" y1="42.33" x2="46.11" y2="35.15"/><line class="cls-2" x1="37.99" y1="32.27" x2="36.11" y2="34.09"/><polygon class="cls-4" points="68.52 58.3 62.28 65.05 65.66 68.34 72.24 61.57 68.52 58.3"/><path class="cls-2" d="M34.69,30.87l11.46,4.28,27.29,27.6a4.85,4.85,0,0,1,0,6.82h0a4.85,4.85,0,0,1-6.82,0L39,42.28Z"/><line class="cls-2" x1="68.76" y1="58.05" x2="61.86" y2="64.95"/><line class="cls-2" x1="72.52" y1="61.85" x2="65.67" y2="68.7"/></g></g></svg>