<svg xmlns="http://www.w3.org/2000/svg" viewBox="0 0 77 78.11"><defs><style>.cls-1,.cls-6{fill:none;stroke-miterlimit:10;}.cls-1{stroke:#205081;}.cls-2{fill:#fff;}.cls-3{fill:#56d0fc;}.cls-4{fill:#d3d7da;}.cls-5{fill:#fec72e;}.cls-6{stroke:#fff;stroke-linecap:round;}</style></defs><title>09.equipment</title><g id="Layer_2" data-name="Layer 2"><g id="Layer_1-2" data-name="Layer 1"><line class="cls-1" x1="4.22" y1="36.28" x2="12.13" y2="27.95"/><polyline class="cls-2" points="12.13 35.53 12.13 8.02 40.67 8.02 60.42 8.02 60.42 36.28"/><polyline class="cls-1" points="65.24 36.29 65.24 4.04 45.49 4.04 20.71 4.04 16.94 4.04 16.94 8.03"/><polyline class="cls-1" points="20.71 4.04 20.71 0.5 49.25 0.5 69 0.5 69 36.29"/><path class="cls-3" d="M12.13,36.51V8H60.42V36.28m-5.76,0v-23H17.16v23"/><path class="cls-1" d="M12.13,36.28V8H60.42V36.28m-5.76,0v-23H17.16v23"/><line class="cls-1" x1="23" y1="17.45" x2="49.25" y2="17.45"/><line class="cls-1" x1="23" y1="22.2" x2="49.25" y2="22.2"/><line class="cls-1" x1="23" y1="26.95" x2="49.25" y2="26.95"/><line class="cls-1" x1="23" y1="31.7" x2="49.25" y2="31.7"/><line class="cls-1" x1="76.36" y1="36.38" x2="69" y2="28.39"/><path class="cls-4" d="M72.5,74.31v1.3a2.5,2.5,0,0,1-2.5,2.5H2.5A2.5,2.5,0,0,1,0,75.61V41.18A1.6,1.6,0,0,1,.48,40l3.74-3.75V71.81a2.5,2.5,0,0,0,2.5,2.5Z"/><path class="cls-1" d="M4.22,36.28H76.11a.38.38,0,0,1,.39.39V71.61a2.5,2.5,0,0,1-2.5,2.5H6.5A2.5,2.5,0,0,1,4,71.61V36.51a.22.22,0,0,1,.21-.23Z"/><rect class="cls-5" x="23" y="44.87" width="35.83" height="20.75" rx="1.96"/><rect class="cls-1" x="23" y="44.87" width="35.83" height="20.75" rx="1.96"/><line class="cls-6" x1="33" y1="51.53" x2="48.58" y2="51.53"/><line class="cls-6" x1="32.91" y1="55.2" x2="48.5" y2="55.2"/><line class="cls-6" x1="32.83" y1="58.87" x2="48.41" y2="58.87"/></g></g></svg>