<svg xmlns="http://www.w3.org/2000/svg" viewBox="0 0 86.26 45.33"><defs><style>.cls-1,.cls-4{fill:none;}.cls-1{stroke:#205081;stroke-miterlimit:10;}.cls-2{fill:#d3d7da;}.cls-3{fill:#56d0fc;}.cls-5{fill:#fff;}.cls-6{fill:#fec72e;}</style></defs><title>38.free.hand</title><g id="Layer_2" data-name="Layer 2"><g id="Layer_1-2" data-name="Layer 1"><path class="cls-1" d="M4.06,39.16s-1.46-27,13.13-33S47.7,1,49.5,7.39,31.27,36.47,40.91,43.86"/><circle class="cls-2" cx="5.88" cy="40.37" r="3.38"/><circle class="cls-2" cx="21.79" cy="5.88" r="3.38"/><circle class="cls-2" cx="49.21" cy="14.54" r="3.38"/><circle class="cls-3" cx="3.88" cy="38.37" r="3.38"/><circle class="cls-1" cx="3.88" cy="38.37" r="3.38"/><circle class="cls-3" cx="19.79" cy="3.88" r="3.38"/><circle class="cls-1" cx="19.79" cy="3.88" r="3.38"/><circle class="cls-3" cx="47.21" cy="12.54" r="3.38"/><circle class="cls-1" cx="47.21" cy="12.54" r="3.38"/><path class="cls-2" d="M47.43,45.33l3.86-11.61L77.9,5.4a4.85,4.85,0,0,1,6.82-.23h0A4.84,4.84,0,0,1,85,12L58.73,40.61Z"/><path class="cls-2" d="M77.9,5.4,51.49,33.5c.66.54,1.25,1.15,1.88,1.73a22,22,0,0,1,2.3,2.23,18.88,18.88,0,0,0,2.74,2.77l.4.31L85,12a4.84,4.84,0,0,0-.27-6.82h0A4.85,4.85,0,0,0,77.9,5.4Z"/><polygon class="cls-2" points="47.97 44.69 50.16 43.95 48.68 42.46 47.97 44.69"/><line class="cls-4" x1="58.73" y1="40.62" x2="51.29" y2="33.72"/><line class="cls-4" x1="48.7" y1="41.94" x2="50.6" y2="43.75"/><polygon class="cls-2" points="73.6 10.48 80.57 16.47 83.74 12.97 76.74 6.64 73.6 10.48"/><path class="cls-2" d="M47.43,45.33l3.86-11.61L77.9,5.4a4.85,4.85,0,0,1,6.82-.23h0A4.84,4.84,0,0,1,85,12L58.73,40.61Z"/><line class="cls-4" x1="73.35" y1="10.25" x2="80.5" y2="16.89"/><line class="cls-4" x1="77" y1="6.36" x2="84.1" y2="12.95"/><path class="cls-5" d="M43.43,44.33l3.86-11.61L73.9,4.4a4.85,4.85,0,0,1,6.82-.23h0A4.84,4.84,0,0,1,81,11L54.73,39.61Z"/><path class="cls-6" d="M73.9,4.4,47.49,32.5c.66.54,1.25,1.15,1.88,1.73a22,22,0,0,1,2.3,2.23,18.88,18.88,0,0,0,2.74,2.77l.4.31L81,11a4.84,4.84,0,0,0-.27-6.82h0A4.85,4.85,0,0,0,73.9,4.4Z"/><polygon class="cls-6" points="43.97 43.69 46.16 42.95 44.68 41.46 43.97 43.69"/><line class="cls-1" x1="54.73" y1="39.62" x2="47.29" y2="32.72"/><line class="cls-1" x1="44.7" y1="40.94" x2="46.6" y2="42.75"/><polygon class="cls-5" points="69.6 9.48 76.57 15.47 79.74 11.97 72.74 5.64 69.6 9.48"/><path class="cls-1" d="M43.43,44.33l3.86-11.61L73.9,4.4a4.85,4.85,0,0,1,6.82-.23h0A4.84,4.84,0,0,1,81,11L54.73,39.61Z"/><line class="cls-1" x1="69.35" y1="9.25" x2="76.5" y2="15.89"/><line class="cls-1" x1="73" y1="5.36" x2="80.1" y2="11.95"/></g></g></svg>