<svg xmlns="http://www.w3.org/2000/svg" viewBox="0 0 98.85 103.38"><defs><style>.cls-1{fill:#56d0fc;}.cls-2{fill:#d3d7da;}.cls-3{fill:none;stroke:#205081;stroke-miterlimit:10;}</style></defs><title>34.ifc.ar.inven</title><g id="Layer_2" data-name="Layer 2"><g id="Layer_1-2" data-name="Layer 1"><path class="cls-1" d="M40.69,53.29V81.24L18.21,64,14.67,37.28a.33.33,0,0,1,.23-.4.34.34,0,0,1,.31.07Z"/><path class="cls-1" d="M87.21,35.81a.32.32,0,0,1,.5.31L83.49,63.29,59.57,82.1,60,53.24Z"/><path class="cls-1" d="M79.28,22v.08L51.74,38.71,24.21,22.09m0-.08L51.74,10.34Z"/><polygon class="cls-2" points="11.59 68.51 11.32 68.29 8.93 49.7 11.59 68.51"/><path class="cls-2" d="M5.15,20.28v.13a.07.07,0,0,1,0-.11Z"/><path class="cls-2" d="M5.15,20.41V23L8.92,49.71l2.4,18.59.26.22v.16l37.48,31.37-4,3.33L6.21,70.82.08,27.32a6.63,6.63,0,0,1,5-7.45h.07v.43A.08.08,0,0,0,5.15,20.41Z"/><path class="cls-3" d="M5.15,20.28h0L51.73.54,98.31,20.27a.08.08,0,0,1,0,.11l0,0-.68.41-45.9,27.7-.42-.25L5.15,20.41a.07.07,0,0,1,0-.11Z"/><path class="cls-3" d="M17.15,21.37a.07.07,0,0,0,0,.09h0l34.6,20.87L86.34,21.47v-.1L51.74,6.71Z"/><path class="cls-3" d="M11.43,31.82l4.43,33.43L43.94,86.79V51.84L12.05,31.44a.41.41,0,0,0-.56.11A.43.43,0,0,0,11.43,31.82Z"/><path class="cls-3" d="M91.13,30.52,85.87,64.36,56.08,87.79l.53-35.95,33.9-21.71a.4.4,0,0,1,.55.11A.4.4,0,0,1,91.13,30.52Z"/><polyline class="cls-3" points="5.15 20.41 8.93 49.7 11.32 68.29 11.59 68.51 50.18 100.83 89.02 68.29 97.65 20.82 97.74 20.27"/><line class="cls-3" x1="50.17" y1="100.83" x2="51.17" y2="48.52"/></g></g></svg>