<svg xmlns="http://www.w3.org/2000/svg" viewBox="0 0 78.11 81.7"><defs><style>.cls-1{fill:#56d0fc;}.cls-2{fill:#fec72e;}.cls-3{fill:#d3d7da;}.cls-4{fill:none;stroke:#205081;stroke-miterlimit:10;}</style></defs><title>32.ifc.ar.inven</title><g id="Layer_2" data-name="Layer 2"><g id="Layer_1-2" data-name="Layer 1"><path class="cls-1" d="M40.36,38.41,39.57,79.7,8.91,54,3.61,16.48l.74-.07ZM34.67,41,9.32,25.12,9,25.7l3.33,25.92,21.92,17,.33-.92Z"/><path class="cls-1" d="M40.81,38.41,77.12,16.54,70.24,54.06,39.57,79.74l.76-40.12ZM44.66,41l-.42,28.38,23.51-18.5L71.91,24.2h-1Z"/><path class="cls-2" d="M40.81.54,77.57,16.12s.05.05,0,.08a0,0,0,0,1,0,0L40.81,38.41,4,16.22a.06.06,0,0,1,0-.08l0,0ZM13.51,17.06l27.3,16.48,27.3-16.48m0-.08L40.81,5.41Z"/><path class="cls-3" d="M38.71,79.07,35.57,81.7,4.91,56,.06,21.68A5.24,5.24,0,0,1,4,15.8H4v2.44L9.13,54.33Z"/><path class="cls-4" d="M40.81.54,77.57,16.12s.05.05,0,.08a0,0,0,0,1,0,0L40.81,38.41,4,16.22a.06.06,0,0,1,0-.08l0,0ZM13.51,17.06l27.3,16.48,27.3-16.48m0-.08L40.81,5.41Z"/><path class="cls-4" d="M9,25.23l3.49,26.39,22.17,17V41L9.49,24.93a.31.31,0,0,0-.43.07A.32.32,0,0,0,9,25.23Z"/><path class="cls-4" d="M71.91,24.2,67.76,50.91,44.25,69.41,44.67,41,71.42,23.9a.32.32,0,0,1,.44.07A.28.28,0,0,1,71.91,24.2Z"/><polyline class="cls-4" points="4.04 16.22 8.9 54.02 39.57 79.7 70.24 54.02 77.12 16.11"/><line class="cls-4" x1="39.57" y1="79.7" x2="40.36" y2="38.41"/></g></g></svg>