<svg xmlns="http://www.w3.org/2000/svg" viewBox="0 0 98.82 103.38"><defs><style>.cls-1{fill:#56d0fc;}.cls-2{fill:#fec72e;}.cls-3{fill:#d3d7da;}.cls-4{fill:none;stroke:#205081;stroke-miterlimit:10;}</style></defs><title>33.ifc.ar.inven</title><g id="Layer_2" data-name="Layer 2"><g id="Layer_1-2" data-name="Layer 1"><path class="cls-1" d="M51.17,48.53l-1,52.31L11.28,68.3,4.58,20.74l.94-.09ZM44,51.85,11.81,31.69l-.41.74,4.21,32.83L43.38,86.8l.42-1.16Z"/><path class="cls-1" d="M51.7,48.53l46-27.76L89,68.3,50.17,100.84l1-50.83Zm4.88,3.32-.53,36L85.83,64.42,91.1,30.58H89.88Z"/><path class="cls-2" d="M51.7.54,98.28,20.28a.09.09,0,0,1,0,.09s0,0,0,0L51.69,48.53,5.17,20.41a.06.06,0,0,1,0-.09.08.08,0,0,1,0,0ZM17.17,21.37a.05.05,0,0,0-.05.05,0,0,0,0,0,.05,0L51.76,42.35l34.6-20.88a.06.06,0,0,0,0-.08s0,0,0,0L51.7,6.72Z"/><path class="cls-3" d="M49,100.05l-4,3.33L6.22,70.83.08,27.33a6.64,6.64,0,0,1,5-7.45h.08V23L11.6,68.69Z"/><path class="cls-4" d="M51.7.54,98.28,20.28a.09.09,0,0,1,0,.09s0,0,0,0L51.69,48.53,5.17,20.41a.06.06,0,0,1,0-.09.08.08,0,0,1,0,0ZM17.17,21.37a.05.05,0,0,0-.05.05,0,0,0,0,0,.05,0L51.76,42.35l34.6-20.88a.06.06,0,0,0,0-.08s0,0,0,0L51.7,6.72Z"/><path class="cls-4" d="M11.4,31.83l4.42,33.43L43.91,86.8V51.85L12,31.45a.41.41,0,0,0-.56.11A.43.43,0,0,0,11.4,31.83Z"/><path class="cls-4" d="M91.1,30.53,85.83,64.37,56.05,87.8l.53-35.95,33.9-21.71a.4.4,0,0,1,.55.11A.4.4,0,0,1,91.1,30.53Z"/><polyline class="cls-4" points="5.12 20.41 11.28 68.3 50.13 100.84 88.99 68.3 97.71 20.28"/><line class="cls-4" x1="50.13" y1="100.84" x2="51.13" y2="48.53"/></g></g></svg>