<svg xmlns="http://www.w3.org/2000/svg" viewBox="0 0 80.63 69.75"><defs><style>.cls-1{fill:#56d0fc;}.cls-2{fill:none;stroke:#205081;stroke-miterlimit:10;}.cls-3{fill:#d3d7da;}</style></defs><title>15.key.figures</title><g id="Layer_2" data-name="Layer 2"><g id="Layer_1-2" data-name="Layer 1"><path class="cls-1" d="M.84,35.4l17-16.53a3.12,3.12,0,0,1,4.29,0L39.56,35.06a.53.53,0,0,0,.72,0L68.51,8.46,62.7,2.77a1.33,1.33,0,0,1,0-1.88A1.31,1.31,0,0,1,63.63.5h16.5V17a1.32,1.32,0,0,1-1.32,1.32,1.3,1.3,0,0,1-.93-.38l-5.17-5.09L42.56,42a3.57,3.57,0,0,1-5,0l-17-16.28a.42.42,0,0,0-.59,0L5.26,40.22a1.12,1.12,0,0,1-1.58,0l0,0L.78,37A1.13,1.13,0,0,1,.84,35.4Z"/><path class="cls-2" d="M.84,35.4l17-16.53a3.12,3.12,0,0,1,4.29,0L39.56,35.06a.53.53,0,0,0,.72,0L68.51,8.46,62.7,2.77a1.33,1.33,0,0,1,0-1.88A1.31,1.31,0,0,1,63.63.5h16.5V17a1.32,1.32,0,0,1-1.32,1.32,1.3,1.3,0,0,1-.93-.38l-5.17-5.09L42.56,42a3.57,3.57,0,0,1-5,0l-17-16.28a.42.42,0,0,0-.59,0L5.26,40.22a1.12,1.12,0,0,1-1.58,0l0,0L.78,37A1.13,1.13,0,0,1,.84,35.4Z"/><path class="cls-3" d="M18.46,67.75a2.24,2.24,0,0,1-2.22,2h-8A2.23,2.23,0,0,1,6,67.58V46.39l2-2V65.51a2.23,2.23,0,0,0,2.23,2.23h8.28Z"/><path class="cls-3" d="M35.82,67.75a2.23,2.23,0,0,1-2.23,2h-8a2.23,2.23,0,0,1-2.23-2.23V39.06l2,1.87v24.6a2.23,2.23,0,0,0,2.23,2.23h8.23Z"/><path class="cls-3" d="M53.23,67.75a2.23,2.23,0,0,1-2.22,2H43a2.23,2.23,0,0,1-2.23-2.23V49.31a5,5,0,0,0,2-.91V65.49A2.23,2.23,0,0,0,45,67.72h8.21Z"/><path class="cls-3" d="M70.65,67.75a2.23,2.23,0,0,1-2.22,2h-8a2.23,2.23,0,0,1-2.23-2.23V33.72l2-1.93V65.52a2.23,2.23,0,0,0,2.23,2.23h8.22Z"/><path class="cls-3" d="M45.44,46l-2,2s-.26.21-.64.48V47.31A6.77,6.77,0,0,0,45.44,46Z"/><path class="cls-2" d="M20.26,32.31,8,44.39V65.53a2.23,2.23,0,0,0,2.23,2.23h8a2.23,2.23,0,0,0,2.23-2.23h0Z"/><path class="cls-2" d="M25.41,37.06V65.53a2.23,2.23,0,0,0,2.23,2.23h8a2.23,2.23,0,0,0,2.23-2.23V47.44a8.41,8.41,0,0,1-3.25-1.81C33.16,44.31,25.41,37.06,25.41,37.06Z"/><path class="cls-2" d="M42.78,47.36V65.53A2.23,2.23,0,0,0,45,67.76h8a2.23,2.23,0,0,0,2.23-2.23V36.23L45.43,46A6.91,6.91,0,0,1,42.78,47.36Z"/><path class="cls-2" d="M60.24,31.73v33.8a2.23,2.23,0,0,0,2.23,2.23h8a2.23,2.23,0,0,0,2.23-2.23V19.79Z"/></g></g></svg>