<svg xmlns="http://www.w3.org/2000/svg" viewBox="0 0 87.87 83.69"><defs><style>.cls-1{fill:#56d0fc;}.cls-2{fill:#d3d7da;}.cls-3{fill:none;stroke:#205081;stroke-miterlimit:10;}.cls-4{fill:#fff;}.cls-5{fill:#fec72e;}</style></defs><title>24.location.marker</title><g id="Layer_2" data-name="Layer 2"><g id="Layer_1-2" data-name="Layer 1"><ellipse class="cls-1" cx="46.96" cy="70.69" rx="35.07" ry="9.63"/><path class="cls-2" d="M18.18,79a.23.23,0,0,1-.27.18h-.05c-1.31-.52-3-.79-4.08-1.75a8,8,0,0,1-1.3-.67.27.27,0,0,1-.21-.17l-.08-.07a.18.18,0,0,1-.17.13c.09.32-.42.46-.55.13l-.2-.55L11.16,76a.29.29,0,0,1-.3.24.28.28,0,0,1-.2-.13c-.06-.1-.11-.21-.16-.31a.21.21,0,0,1-.19,0A.28.28,0,0,1,10,76a.26.26,0,0,1-.16-.15,3.06,3.06,0,0,1-.1-.41.28.28,0,0,1-.35.15.27.27,0,0,1-.17-.24v-.1A.32.32,0,0,1,8.9,75a.21.21,0,0,0-.07-.19.25.25,0,0,1-.22-.19c-.07-.34-.13-.68-.2-1a3.18,3.18,0,0,1-.1.52.28.28,0,0,1-.54,0,1.85,1.85,0,0,1-.07-1.68l-.27.16a.28.28,0,0,1-.38-.11l0-.06a2.12,2.12,0,0,1,0-.71.28.28,0,0,1-.21-.26,1.46,1.46,0,0,1,0-.51A.28.28,0,0,1,7,70.74v-.3a.29.29,0,0,1,.17-.23v-.29a.22.22,0,0,1,.08-.2.25.25,0,0,1,.16-.3v-.67a.28.28,0,0,1,.23-.26V67.11a.29.29,0,0,1,.57,0v.34a.28.28,0,0,1,.31.26v-.13a.29.29,0,0,1,.21-.25.23.23,0,0,1,.16-.1A1.66,1.66,0,0,1,9,66.85a.26.26,0,0,1,.12-.15.25.25,0,0,1,.28-.07,2,2,0,0,1,.29-.88.27.27,0,0,1,.38-.1.24.24,0,0,1,.1.1c0,.18.12.23.25.15s0,0,.07,0a1.34,1.34,0,0,1,.37-1.06.28.28,0,0,1,.4,0,.33.33,0,0,1,.07.13,5.4,5.4,0,0,0,.08.58,2.5,2.5,0,0,1,.91-.89.25.25,0,0,1,.34,0c.35-.24.7-.48,1.07-.7a13.55,13.55,0,0,0,2.19-1.32c.26-.24.63.13.41.37A58.09,58.09,0,0,1,29,59.51c2.51-.44,5.17-.78,8-1l-.21-.39c-2.86,0-5.64.17-8.29.39C12.12,59.91,0,64.8,0,70.62c0,6.9,17.1,12.5,38.18,12.5,1.43,0,2.86,0,4.25-.08C32.79,82.77,24.27,81.22,18.18,79Z"/><path class="cls-2" d="M24.58,26.34A23.32,23.32,0,0,1,43.43,3.42,21.94,21.94,0,0,0,38.93,3,23.34,23.34,0,0,0,15.59,26.32h0c0,7,7,21,13.29,32.24l.57,1c2.67-.44,5.48-.78,8.43-1-.08-.13-.14-.25-.22-.39C31.43,47,24.58,33.29,24.58,26.34Z"/><ellipse class="cls-3" cx="46.96" cy="70.69" rx="40.41" ry="12.5"/><path class="cls-4" d="M46.8,77.64a3.85,3.85,0,0,1-3.25-1.79c-5.42-8.57-23.12-37.43-23.12-49.52a26.34,26.34,0,0,1,52.68,0c0,12.08-17.68,41-23.1,49.52A3.83,3.83,0,0,1,46.8,77.64Zm0-60.83a9.52,9.52,0,1,0,9.52,9.52h0A9.52,9.52,0,0,0,46.8,16.81Z"/><path class="cls-3" d="M59.32,26.33A12.52,12.52,0,1,1,46.8,13.81,12.53,12.53,0,0,1,59.32,26.33ZM46.8,3A23.34,23.34,0,0,0,23.43,26.3v0c0,11.54,18.72,41.73,22.63,47.91a.84.84,0,0,0,1.14.28.93.93,0,0,0,.28-.28c3.91-6.18,22.63-36.37,22.63-47.91A23.33,23.33,0,0,0,46.8,3Z"/><circle class="cls-5" cx="46.8" cy="26.33" r="8.39"/></g></g></svg>