<svg xmlns="http://www.w3.org/2000/svg" viewBox="0 0 81.22 74.94"><defs><style>.cls-1{fill:#d3d7da;}.cls-2{fill:#fec72e;}.cls-3,.cls-5{fill:none;stroke:#205081;stroke-miterlimit:10;}.cls-4{fill:#fff;}.cls-5{stroke-dasharray:2 2;}.cls-6{fill:#56d0fc;}</style></defs><title>48.locations.text</title><g id="Layer_2" data-name="Layer 2"><g id="Layer_1-2" data-name="Layer 1"><polygon class="cls-1" points="49.48 48.89 28.43 74.94 15.02 64.1 16.84 61.85 28.43 71.22 47.66 47.42 49.48 48.89"/><rect class="cls-2" x="17.79" y="46.05" width="28.92" height="12.88" transform="matrix(0.63, -0.78, 0.78, 0.63, -28.84, 44.56)"/><rect class="cls-3" x="15.5" y="43.87" width="33.49" height="17.24" transform="matrix(0.63, -0.78, 0.78, 0.63, -28.85, 44.56)"/><circle class="cls-4" cx="23.49" cy="58.72" r="1.28"/><path class="cls-5" d="M32.26,4.57S10.09-4.11,2,13.72C-4.79,28.83,13,50.47,18.85,55.37"/><path class="cls-6" d="M44.92,13.27H38.28l-1,2.44H32.84L39.54.84h4.24l6.65,14.87h-4.5ZM41.61,5,39.7,9.74h3.84Z"/><path class="cls-6" d="M59.19.84c3,0,5.4,1.32,5.4,4.16A2.9,2.9,0,0,1,63,7.89,3.94,3.94,0,0,1,65,11.35c0,3.34-3,4.34-5.75,4.36H51.59V.84ZM55.73,6.51h3.36c.87,0,1.33-.44,1.33-1.1a1.18,1.18,0,0,0-1.15-1.18H55.73Zm0,5.93h3.55c1.06,0,1.57-.58,1.57-1.4A1.4,1.4,0,0,0,59.49,9.6H55.73Z"/><path class="cls-6" d="M80.54,13.77a8.14,8.14,0,0,1-6,2.32c-5.84,0-8.11-3.67-8.13-7.71C66.41,4.56,69,.5,74.54.5a8,8,0,0,1,5.75,2.38L77.77,5.45a4.42,4.42,0,0,0-3.16-1.3,3.93,3.93,0,0,0-4,3.84,3,3,0,0,0,0,.43c0,1.93,1,4.12,4,4.12A5.1,5.1,0,0,0,78.11,11Z"/><path class="cls-3" d="M44.92,13.27H38.28l-1,2.44H32.84L39.54.84h4.24l6.65,14.87h-4.5ZM41.61,5,39.7,9.74h3.84Z"/><path class="cls-3" d="M59.19.84c3,0,5.4,1.32,5.4,4.16A2.9,2.9,0,0,1,63,7.89,3.94,3.94,0,0,1,65,11.35c0,3.34-3,4.34-5.75,4.36H51.59V.84ZM55.73,6.51h3.36c.87,0,1.33-.44,1.33-1.1a1.18,1.18,0,0,0-1.15-1.18H55.73Zm0,5.93h3.55c1.06,0,1.57-.58,1.57-1.4A1.4,1.4,0,0,0,59.49,9.6H55.73Z"/><path class="cls-3" d="M80.54,13.77a8.14,8.14,0,0,1-6,2.32c-5.84,0-8.11-3.67-8.13-7.71C66.41,4.56,69,.5,74.54.5a8,8,0,0,1,5.75,2.38L77.77,5.45a4.42,4.42,0,0,0-3.16-1.3,3.93,3.93,0,0,0-4,3.84,3,3,0,0,0,0,.43c0,1.93,1,4.12,4,4.12A5.1,5.1,0,0,0,78.11,11Z"/></g></g></svg>