<svg xmlns="http://www.w3.org/2000/svg" viewBox="0 0 80.78 83.13"><defs><style>.cls-1,.cls-3,.cls-4{fill:none;stroke-miterlimit:10;}.cls-1,.cls-3{stroke:#205081;}.cls-1,.cls-4{stroke-linecap:round;}.cls-1{stroke-dasharray:4;}.cls-2{fill:#d3d7da;}.cls-4{stroke:#ffd253;}.cls-5{fill:#56d0fc;}.cls-6{fill:#fff;}.cls-7{fill:#fec72e;}</style></defs><title>16.make.as.loss</title><g id="Layer_2" data-name="Layer 2"><g id="Layer_1-2" data-name="Layer 1"><line class="cls-1" x1="80.28" y1="32.53" x2="80.28" y2="76.29"/><path class="cls-2" d="M67.51,79.13v1a3,3,0,0,1-3,3H12.84a3,3,0,0,1-3-3V11.8a3,3,0,0,1,3-3h1V76.13a3,3,0,0,0,3,3Z"/><rect class="cls-3" x="13.84" y="4.8" width="57.67" height="74.33" rx="3"/><path class="cls-3" d="M17.58,4.79V3.5a3,3,0,0,1,3-3H72.25a3,3,0,0,1,3,3V71.84a3,3,0,0,1-3,3h-.74"/><line class="cls-3" x1="21.01" y1="29.3" x2="64.18" y2="29.3"/><line class="cls-3" x1="21.01" y1="33.63" x2="64.18" y2="33.63"/><line class="cls-3" x1="26.36" y1="38.13" x2="64.18" y2="38.13"/><line class="cls-3" x1="30.65" y1="42.38" x2="64.18" y2="42.38"/><line class="cls-3" x1="33.18" y1="46.63" x2="64.18" y2="46.63"/><line class="cls-3" x1="34.16" y1="50.96" x2="64.18" y2="50.96"/><line class="cls-3" x1="34.16" y1="55.3" x2="64.26" y2="55.3"/><line class="cls-3" x1="32.39" y1="59.63" x2="64.26" y2="59.63"/><line class="cls-3" x1="29.99" y1="63.96" x2="64.26" y2="63.96"/><line class="cls-4" x1="21.01" y1="15.32" x2="64.18" y2="15.32"/><line class="cls-4" x1="21.01" y1="19.92" x2="64.18" y2="19.92"/><line class="cls-4" x1="21.01" y1="24.57" x2="64.18" y2="24.57"/><circle class="cls-5" cx="15.45" cy="53.13" r="14.95"/><circle class="cls-3" cx="15.45" cy="53.13" r="14.95"/><path class="cls-6" d="M11.87,50.65s4.07-2.77,4.07-5.17V42.73a.66.66,0,0,1,.35-.68c.68-.32,2.61.7,2.61,3.53v3a.1.1,0,0,0,.07.13h5.11a1.31,1.31,0,0,1,1.29,1,1.62,1.62,0,0,1,0,.44,1.44,1.44,0,0,1-.78,1.35.19.19,0,0,0,0,.27l0,0a1.34,1.34,0,0,1,.41,1A1.6,1.6,0,0,1,24.33,54a.14.14,0,0,0,0,.19,1.37,1.37,0,0,1,.32.91,1.58,1.58,0,0,1-.72,1.23.21.21,0,0,0-.06.28h0a1.85,1.85,0,0,1,.26,1A1.53,1.53,0,0,1,22.6,59H15.23a7.87,7.87,0,0,1-3.24-.7h0a.61.61,0,0,1-.34-.55V51.19A.62.62,0,0,1,11.87,50.65Z"/><path class="cls-6" d="M11.87,50.65s4.07-2.77,4.07-5.17V42.73a.66.66,0,0,1,.35-.68c.68-.32,2.61.7,2.61,3.53v3a.1.1,0,0,0,.07.13h5.11a1.31,1.31,0,0,1,1.29,1,1.62,1.62,0,0,1,0,.44,1.44,1.44,0,0,1-.78,1.35.19.19,0,0,0,0,.27l0,0a1.34,1.34,0,0,1,.41,1A1.6,1.6,0,0,1,24.33,54a.14.14,0,0,0,0,.19,1.37,1.37,0,0,1,.32.91,1.58,1.58,0,0,1-.72,1.23.21.21,0,0,0-.06.28h0a1.85,1.85,0,0,1,.26,1A1.53,1.53,0,0,1,22.6,59H15.23a7.87,7.87,0,0,1-3.24-.7h0a.61.61,0,0,1-.34-.55V51.19A.62.62,0,0,1,11.87,50.65Z"/><path class="cls-3" d="M11.87,50.65s4.07-2.77,4.07-5.17V42.73a.66.66,0,0,1,.35-.68c.68-.32,2.61.7,2.61,3.53v3a.1.1,0,0,0,.07.13h5.11a1.31,1.31,0,0,1,1.29,1,1.62,1.62,0,0,1,0,.44,1.44,1.44,0,0,1-.78,1.35.19.19,0,0,0,0,.27l0,0a1.34,1.34,0,0,1,.41,1A1.6,1.6,0,0,1,24.33,54a.14.14,0,0,0,0,.19,1.37,1.37,0,0,1,.32.91,1.58,1.58,0,0,1-.72,1.23.21.21,0,0,0-.06.28h0a1.85,1.85,0,0,1,.26,1A1.53,1.53,0,0,1,22.6,59H15.23a7.87,7.87,0,0,1-3.24-.7h0a.61.61,0,0,1-.34-.55V51.19A.62.62,0,0,1,11.87,50.65Z"/><rect class="cls-7" x="4.58" y="49.06" width="7.41" height="10.88" rx="1.58"/><rect class="cls-3" x="4.58" y="49.06" width="7.41" height="10.88" rx="1.58"/></g></g></svg>