<svg xmlns="http://www.w3.org/2000/svg" viewBox="0 0 67.16 71.66"><defs><style>.cls-1{fill:#d3d7da;}.cls-2{fill:#56d0fc;}.cls-3,.cls-8,.cls-9{fill:#fff;}.cls-4{fill:#fec72e;}.cls-5,.cls-6{fill:none;stroke-miterlimit:10;}.cls-5{stroke:#205081;}.cls-6{stroke:#fff;stroke-linecap:round;stroke-width:1.5px;}.cls-7,.cls-8,.cls-9{isolation:isolate;}.cls-8,.cls-9{font-size:9.94px;font-family:ArialMT, Arial;}.cls-9{letter-spacing:-0.04em;}</style></defs><title>10.materials</title><g id="Layer_2" data-name="Layer 2"><g id="Layer_1-2" data-name="Layer 1"><path class="cls-1" d="M67.16,25.52l-2.78,41.9a4.54,4.54,0,0,1-4.53,4.24H10.6a4.55,4.55,0,0,1-4.49-4.25L4,35.24a3.77,3.77,0,0,1,3.55-4H34.51A2.55,2.55,0,0,0,37,29.42l1.56-5.33a3.71,3.71,0,0,1,3.6-2.71H63.32a3.88,3.88,0,0,1,3.84,3.91Z"/><path class="cls-2" d="M8.37,26.83V8.3a2.38,2.38,0,0,1,2.37-2.38H50.59a1.2,1.2,0,0,1,1.2,1.2h0V17H38.37a3.63,3.63,0,0,0-3.55,3.4L33.47,25s-.06,1.83-3.66,1.83Z"/><path class="cls-3" d="M1,28.27a15.3,15.3,0,0,1,0-4.68c.45-1.58,3.6-2.44,5.18-2.12a6.85,6.85,0,0,0,2.07.22l.36,4.78-3.33.36Z"/><path class="cls-3" d="M12.69,5.62,14,1.24A1,1,0,0,1,15.1.54L38.37,5.31,37.86,6Z"/><path class="cls-3" d="M52.11,8.27,55.72,9a1.28,1.28,0,0,1,1,1.48.29.29,0,0,0,0,.09L55,17,52,16.74Z"/><path class="cls-3" d="M63.68,21.13,60.91,63a4.54,4.54,0,0,1-4.53,4.24H7.11A4.51,4.51,0,0,1,2.59,63L.51,30.84a3.78,3.78,0,0,1,3.57-4H31A2.55,2.55,0,0,0,33.46,25L35,19.68A3.72,3.72,0,0,1,38.59,17H59.81a3.88,3.88,0,0,1,3.87,3.88Z"/><circle class="cls-4" cx="29.99" cy="46.52" r="15.78"/><path class="cls-3" d="M45.77,46.52A15.77,15.77,0,0,1,21.77,60,15.78,15.78,0,0,0,35.19,31.63,15.78,15.78,0,0,1,45.77,46.52Z"/><circle class="cls-5" cx="29.99" cy="46.52" r="15.78"/><path class="cls-5" d="M.75,29.29h0L.52,25.65a3.77,3.77,0,0,1,3.55-4h4.3"/><path class="cls-5" d="M8.37,26.83V8.3a2.38,2.38,0,0,1,2.37-2.38H50.59a1.2,1.2,0,0,1,1.2,1.2h0V17"/><path class="cls-5" d="M51.79,8.06l4.08.83a1.28,1.28,0,0,1,1,1.49.44.44,0,0,0,0,.1L55.07,17"/><path class="cls-5" d="M12.69,5.92,13.9,1.25A1,1,0,0,1,15.11.53L41.43,5.92"/><line class="cls-6" x1="16.23" y1="11.81" x2="33.05" y2="11.81"/><line class="cls-6" x1="16.23" y1="17.88" x2="35.58" y2="17.88"/><line class="cls-6" x1="16.23" y1="23.94" x2="33.5" y2="23.94"/><path class="cls-5" d="M63.68,21.13,60.91,63a4.54,4.54,0,0,1-4.53,4.24H7.11A4.51,4.51,0,0,1,2.59,63L.51,30.84a3.78,3.78,0,0,1,3.57-4H31A2.55,2.55,0,0,0,33.46,25L35,19.68A3.72,3.72,0,0,1,38.59,17H59.81a3.88,3.88,0,0,1,3.87,3.88Z"/><g class="cls-7"><text class="cls-8" transform="translate(19.78 49.81)">DC</text><text class="cls-9" transform="translate(34.18 49.81)">P</text></g></g></g></svg>