<svg xmlns="http://www.w3.org/2000/svg" viewBox="0 0 73.48 73.22"><defs><style>.cls-1{fill:#fec72e;}.cls-2{fill:#d3d7da;}.cls-3{fill:none;stroke:#205081;stroke-miterlimit:10;}.cls-4{fill:#56d0fc;}.cls-5{fill:#205081;}</style></defs><title>04.new.offer</title><g id="Layer_2" data-name="Layer 2"><g id="Layer_1-2" data-name="Layer 1"><path class="cls-1" d="M8.5,69.92H3.63A.63.63,0,0,1,3,69.29H3V42.34a.63.63,0,0,1,.63-.63H8.5a.63.63,0,0,0-.63.63v27A.62.62,0,0,0,8.5,69.92Z"/><path class="cls-2" d="M15.5,69.76v2.52a.63.63,0,0,1-.63.63H.63A.63.63,0,0,1,0,72.28H0v-27a.63.63,0,0,1,.63-.63H2.75V69.08a.63.63,0,0,0,.63.63h0Z"/><path class="cls-2" d="M47.76,55.66h-.54l1.44-.48v.38A3.94,3.94,0,0,1,47.76,55.66Z"/><path class="cls-2" d="M69.87,52.64a4.1,4.1,0,0,1-1.82,2.57L40.47,72.62a3.81,3.81,0,0,1-3.15.44l-15-4.44L18.24,69V66.15l6.83-.68,15,4.43a3.81,3.81,0,0,0,3.15-.43Z"/><path class="cls-2" d="M18.25,69v.1a.63.63,0,0,1-.63.63H15.5V69.3Z"/><path class="cls-2" d="M50.27,54.65a3.51,3.51,0,0,1-2.51,1h-.54l1.44-.48Z"/><rect class="cls-3" x="3" y="41.71" width="15.5" height="28.21" rx="0.63"/><path class="cls-3" d="M18.5,45.51c0-.09,11.89-4.36,16.92,3H48a3.65,3.65,0,0,1,3.65,3.63v0h0A3.64,3.64,0,0,1,48,55.82H36.16a1.83,1.83,0,0,0-1.83,1.83h0v.06a1.83,1.83,0,0,0,1.83,1.83h0"/><path class="cls-3" d="M50.53,54.8l16.18-9.65a4.14,4.14,0,0,1,5.67,1.41h0a4.15,4.15,0,0,1-1.33,5.66L43.47,69.62a3.81,3.81,0,0,1-3.15.44l-15-4.44-6.83.68"/><path class="cls-2" d="M37.5,11.22c3.17-2.44,7.39-4.38,11.5-4.3L47.19,5.08a10.23,10.23,0,0,0-3.41.71L41.33,8.3l-1.52-.42a22.86,22.86,0,0,0-3,2.26c-1.56,1.46-2.76,3.15-4.5,4.4S31.14,18.08,31,20a22.47,22.47,0,0,0-.13,2.45c0,.21-.07.8.08,1s.45.13.73.06a.2.2,0,0,1-.11-.19,14.91,14.91,0,0,1,1.09-6.79A16.36,16.36,0,0,1,37.5,11.22Z"/><path class="cls-2" d="M58.1,12.44l-1-3.68a21.76,21.76,0,0,0-2.73-1.58l-1.8.5A13.5,13.5,0,0,1,58.1,12.44Z"/><path class="cls-2" d="M59.83,29.74C59.69,31.07,61.16,31,62.06,31h1l-.32-1.17,4.59-4.58-4.59-4.53,1.52-5.54c-.22-.32-.46-.61-.7-.92l-5.17-1.34c.22.34.42.68.6,1a20.15,20.15,0,0,1,1.84,6.35,16.79,16.79,0,0,1,0,6.16A33,33,0,0,0,59.83,29.74Z"/><path class="cls-2" d="M63.2,31.4c-.29,0-.57.06-.86.06-.88,0-2.71.11-3-1a1.61,1.61,0,0,1,0-.69c-.34-.08-.67-.19-1-.29A13.16,13.16,0,0,1,32.73,25.2a8.66,8.66,0,0,1,.07-1.35h-.38c-.49.07-1.25.49-1.68,0s-.27-1.16-.27-1.58c0-.93.1-1.85.16-2.77s0-2,.07-3a3,3,0,0,1,1-2.1,21.85,21.85,0,0,0,3.08-2.77,22,22,0,0,1,4.5-4L35.2,6.56,33.58,12.8l-6.25,1.62L29,20.64l-4.71,4.57,4.59,4.53L27.21,36l6.25,1.62,1.62,6.25,6.22-1.71,4.53,4.59,4.53-4.59,6.22,1.71,1.62-6.25L64.45,36Z"/><path class="cls-2" d="M37.5,11.22c3.17-2.44,7.39-4.38,11.5-4.3L47.19,5.08a10.23,10.23,0,0,0-3.41.71L41.33,8.3l-1.52-.42a22.86,22.86,0,0,0-3,2.26c-1.56,1.46-2.76,3.15-4.5,4.4S31.14,18.08,31,20a22.47,22.47,0,0,0-.13,2.45c0,.21-.07.8.08,1s.45.13.73.06a.2.2,0,0,1-.11-.19,14.91,14.91,0,0,1,1.09-6.79A16.36,16.36,0,0,1,37.5,11.22Z"/><path class="cls-2" d="M63.33,31.84a.2.2,0,0,1-.18.06,19,19,0,0,1-4.36-.74,10,10,0,0,1-1-.41,13.16,13.16,0,0,1-25.1-5.54,13.61,13.61,0,0,1,.1-1.56h-.27a.17.17,0,0,1-.16.14c-.49.07-1.25.49-1.68.05s-.27-1.16-.27-1.58c0-.93.1-1.85.16-2.77s0-2,.07-3a3,3,0,0,1,1-2.1,21.85,21.85,0,0,0,3.08-2.77,22,22,0,0,1,4.5-4L35.14,6.5l-1.62,6.24-6.25,1.62L29,20.58l-4.65,4.63,4.59,4.53L27.21,36l6.25,1.62,1.62,6.25,6.22-1.71,4.53,4.59,4.53-4.59,6.22,1.71,1.62-6.25L64.45,36Z"/><path class="cls-2" d="M59.83,29.74C59.69,31.07,61.16,31,62.06,31h1l-.32-1.17,4.59-4.58-4.59-4.53,1.52-5.54c-.22-.32-.46-.61-.7-.92l-5.17-1.34c.22.34.42.68.6,1a20.15,20.15,0,0,1,1.84,6.35,16.79,16.79,0,0,1,0,6.16A33,33,0,0,0,59.83,29.74Z"/><path class="cls-2" d="M58.1,12.44l-1-3.68a21.76,21.76,0,0,0-2.73-1.58l-1.8.5A13.5,13.5,0,0,1,58.1,12.44Z"/><circle class="cls-1" cx="42.7" cy="17.91" r="2.46"/><circle class="cls-1" cx="51" cy="26.54" r="2.46"/><path class="cls-4" d="M60,22.21A13.17,13.17,0,1,1,46.83,9h0A13.17,13.17,0,0,1,60,22.21Zm3.74-4.53,1.71-6.23L59.2,9.83,57.58,3.59,51.33,5.3,46.83.71,42.33,5.3,36.11,3.59,34.49,9.83l-6.25,1.62L30,17.67l-4.62,4.54,4.59,4.53L28.21,33l6.25,1.62,1.62,6.25,6.22-1.71,4.53,4.59,4.53-4.59,6.22,1.71,1.62-6.25L65.45,33l-1.71-6.22,4.59-4.53Z"/><path class="cls-3" d="M60,22.21A13.17,13.17,0,1,1,46.83,9h0A13.17,13.17,0,0,1,60,22.21Zm3.74-4.53,1.71-6.23L59.2,9.83,57.58,3.59,51.33,5.3,46.83.71,42.33,5.3,36.11,3.59,34.49,9.83l-6.25,1.62L30,17.67l-4.62,4.54,4.59,4.53L28.21,33l6.25,1.62,1.62,6.25,6.22-1.71,4.53,4.59,4.53-4.59,6.22,1.71,1.62-6.25L65.45,33l-1.71-6.22,4.59-4.53Z"/><path class="cls-5" d="M42.71,14.68a3.25,3.25,0,0,0-3.46,3,2.09,2.09,0,0,0,0,.25,3.5,3.5,0,1,0,7,0A3.26,3.26,0,0,0,43,14.67Zm0,5.12a1.89,1.89,0,1,1,2-1.86,1.87,1.87,0,0,1-1.86,1.87h-.14Z"/><path class="cls-5" d="M53,14.66l-10.78,15H40.5c3.39-4.79,7.39-10.14,10.8-15Z"/><path class="cls-5" d="M51,23.33a3.24,3.24,0,1,0,.3,0Zm0,5.16a2,2,0,0,1-2.07-1.92v-.08a1.91,1.91,0,0,1,1.89-1.93h.11A2,2,0,0,1,53,26.49v.07a1.89,1.89,0,0,1-1.85,2H51Z"/><line class="cls-3" x1="8.14" y1="41.77" x2="8.14" y2="69.92"/></g></g></svg>