<svg xmlns="http://www.w3.org/2000/svg" viewBox="0 0 143.59 97.99"><defs><style>.cls-1,.cls-6,.cls-7{fill:none;stroke-miterlimit:10;}.cls-1,.cls-6{stroke:#205081;}.cls-2{fill:#56d0fc;}.cls-3{fill:#fec72e;}.cls-4{fill:#3ed6ca;}.cls-5{fill:#d3d7da;}.cls-6,.cls-7{stroke-linecap:round;}.cls-7{stroke:#56d0fc;}</style></defs><title>27.online.meeting</title><g id="Layer_2" data-name="Layer 2"><g id="Layer_1-2" data-name="Layer 1"><line class="cls-1" x1="6.9" y1="97.49" x2="143.59" y2="97.49"/><line class="cls-1" y1="92.42" x2="24.16" y2="92.42"/><line class="cls-1" x1="39.23" y1="92.42" x2="54.95" y2="92.42"/><line class="cls-1" x1="63.19" y1="92.42" x2="100.56" y2="92.42"/><line class="cls-1" x1="108.03" y1="92.42" x2="124.45" y2="92.42"/><path class="cls-2" d="M24,39.91S22.36,34,25.38,31.52s4.73-1.84,4.73-1.84l4.43,1.07s1.8,1.36,3.38,1.07A10.26,10.26,0,0,0,41,30.63s.95,6-5,7.28c0,0-3.82-.84-5.45-.28s-1.3,3.12-1.3,3.12-1.38-2.37-2.39-2.35S24,39.31,24,39.91Z"/><path class="cls-2" d="M25.14,52.25l-.82,2s3.76,3.07,11.22,2.82l-1.45-2.42S28.41,54.63,25.14,52.25Z"/><path class="cls-3" d="M89,55.25a17,17,0,0,0,9.73-3l.69,1.49s-2.33,3-11.21,3.34Z"/><path class="cls-3" d="M94.54,41.25s.93-3-2-3.3-5.38.93-7.09-.18S82.82,33,82.82,33,85.53,30,89,29.73s8-.51,10.82,3-.34,7.6-.34,7.6-.77-1.91-2.08-1.71S94.54,41.25,94.54,41.25Z"/><path class="cls-4" d="M55.54,45.37a2.25,2.25,0,0,1-1.29-2.11c0-1.59.14-7.32,3-9.51,0,0,1.35-5.52,5.85-5.39s4.75,5,4.75,5,4,3.18,3.66,6.76S71,44.49,71,44.49h-.68s-.91-7.11-7.76-7.33S55.54,45.37,55.54,45.37Z"/><path class="cls-2" d="M44.4,73.12v8.32s3.9.28,3.9,0S48,78.53,48,78.53V74s-.22-.83-.94-.83Z"/><polygon class="cls-3" points="75.95 75.15 75.95 81.44 79.41 81.75 79.53 74.75 75.95 75.15"/><path class="cls-2" d="M73.18,74.43l2.65-4-2.15-1.26-3,4.5S71.3,74.75,73.18,74.43Z"/><path class="cls-3" d="M67.67,2a19.76,19.76,0,0,1,6,1c3,1,8.86,4.77,9.57,8.15s.24,4.34-.55,6.13S79,21.18,79,21.18s.48,5.88,1.72,6.78c0,0-5.22,0-7.21-3.75a21,21,0,0,1-6.16.8c-3.07-.14-3.54-.49-3.54-.49s3.26-1.19,3.46-1.23a9.67,9.67,0,0,0,4.37-2.35c1.48-1.63,3.94-3.84,4-7.49A10.56,10.56,0,0,0,72.2,5.18C70.33,3.74,67.67,2,67.67,2Z"/><path class="cls-5" d="M45.27,81.33a1,1,0,0,1-.45.1H18.46c-2.81-10.52,3.26-26.83,4.11-29l.6-1.87-.33-6.63c-1.12-1.07-1-3.44-1-3.44S19.22,32.8,25,30.29a6.43,6.43,0,0,1,3.59-.54,8.06,8.06,0,0,0-1.26.41c-5.73,2.52-3.12,10.21-3.12,10.21h.2a1.1,1.1,0,0,0,.23.2h-.86l.81,2.18.66,1.39.16,7.18-1,1.76.14.07C23,57.22,18.13,71.7,20.71,81.33Z"/><path class="cls-1" d="M40,73.12c0-7.32-5.57-18.34-5.57-18.34A18.81,18.81,0,0,1,25,52.15s-7.24,18-4.22,29.29H47.12a1,1,0,0,0,1-1l-.18-6.24a1,1,0,0,0-1-1h-6.8"/><line class="cls-1" x1="44.4" y1="73.12" x2="44.4" y2="81.44"/><path class="cls-1" d="M25.7,63.75v11.7a5.89,5.89,0,0,0,5.89,5.89h3.1"/><path class="cls-1" d="M33.1,62v7.07a4,4,0,0,0,4,4h2.65"/><path class="cls-1" d="M48,74.91s6.6-2.5,7.08-1-2.62,3.34.18,4.24,6,.12,5.13,3"/><path class="cls-1" d="M77,71.09s1-4.37.35-7.32-2-6.78-8.4-9a.36.36,0,0,0-.45.24.62.62,0,0,0,0,.13c.1,1-.33,4.23-5.16,6-4.84-1.79-5.27-5.07-5.17-6a.36.36,0,0,0-.31-.39.39.39,0,0,0-.15,0c-6.45,2.19-7.82,6.11-8.4,9s.36,7.32.36,7.32"/><path class="cls-1" d="M55.06,64.09s-.79,4.93-.24,6.77"/><path class="cls-1" d="M70.82,70.86s.79-4.94.23-6.77"/><path class="cls-1" d="M83.54,74.75c0-7.16,5.53-19.65,5.53-19.65s6.37-.24,9.87-3c0,0,6.76,17.59,3.9,29.29H20.76"/><path class="cls-1" d="M90.31,62v7.64a5.09,5.09,0,0,1-5.09,5.09H76.63a.8.8,0,0,0-.8.8h0v5.89"/><line class="cls-1" x1="79.41" y1="74.75" x2="79.41" y2="81.44"/><path class="cls-1" d="M69.78,81.44s-3.1-1.59-3-3,2-3.26,3-4.21,5.81,1.11,5.81,1.11"/><polyline class="cls-1" points="70.52 73.95 73.92 69.18 75.83 70.44 72.99 74.37"/><line class="cls-1" x1="66.97" y1="79.16" x2="65.09" y2="81.44"/><path class="cls-1" d="M97.48,63.75V74.06a7.38,7.38,0,0,1-7.36,7.36H83.07"/><line class="cls-1" x1="25.38" y1="52.15" x2="25.38" y2="43.74"/><path class="cls-1" d="M29,41.67s.36-3.34-2.75-3.34S23,45.17,28.8,44.55"/><path class="cls-1" d="M29.05,40.75s-.13-2.75,1.54-3,5.25,1.37,8.12-.77S41,30.77,41,30.77c-5.14,3.58-8-3-13.73-.48S24.14,40.5,24.14,40.5"/><path class="cls-1" d="M38.71,37s3.38,10.5-.92,13.48-7.6-2.59-7.6-2.59"/><line class="cls-1" x1="34.69" y1="51.28" x2="34.45" y2="54.78"/><path class="cls-1" d="M57.46,34s.86-5.77,5.56-5.61,4.85,5.2,4.85,5.2"/><path class="cls-1" d="M55.68,46.29a1.88,1.88,0,0,1-1.33-1.93s-1.76-12.25,8.69-12c10.88.24,8.26,12.1,8.26,12.1-.73,1-1,.79-1,.79"/><ellipse class="cls-1" cx="62.86" cy="45.23" rx="7.48" ry="8.28"/><line class="cls-1" x1="89.2" y1="54.78" x2="89.2" y2="51.36"/><path class="cls-6" d="M99.7,39.93c1.38-4.09,1.28-9.1-5.72-10.38A12.38,12.38,0,0,0,82.83,33s-.16,5.5,5.65,5c5.57-.44,6.45,0,6,3.22"/><path class="cls-6" d="M94.54,41.25a4,4,0,0,1,3.19-2.54c2.3-.16,2.94,4.93-2.23,5.73"/><path class="cls-6" d="M84.67,37.11s-1.44,8.12.39,13.13c1.11,3,7.8.56,8.28-2.22"/><path class="cls-1" d="M98.25,52.65s-.37-7.34-.41-9.07"/><path class="cls-5" d="M57.46,25c-.59,0-1.19.07-1.8.07s-1.2,0-1.8-.08c.13-.15.25-.3.37-.46A21.86,21.86,0,0,0,57.46,25Z"/><path class="cls-5" d="M47.62,21.54a15,15,0,0,1-1,6.5,19,19,0,0,1-3.31,1.51.43.43,0,0,1-.56-.26.41.41,0,0,1,0-.36,15,15,0,0,0,1.43-7.39c-3.07-2.22-5-5.32-5-8.76C39.2,6,46.57.54,55.67.54A16.48,16.48,0,0,1,57.4.6c-8.28.66-14.74,5.86-14.74,12.18C42.65,16.22,44.54,19.32,47.62,21.54Z"/><path class="cls-1" d="M75.59,12.75C75.59,19.5,68.22,25,59.12,25a21.69,21.69,0,0,1-4.89-.55,16.28,16.28,0,0,1-7.5,5.08.45.45,0,0,1-.54-.62,14.86,14.86,0,0,0,1.42-7.4c-3.06-2.21-5-5.32-5-8.74C42.61,6,50,.5,59.08.5S75.59,6,75.59,12.75Z"/><path class="cls-1" d="M66.86,2C76,2,83.34,7.14,83.34,13.5a9.91,9.91,0,0,1-4.24,7.71A14.33,14.33,0,0,0,80.53,28a9.36,9.36,0,0,1-7.15-3.89,22.51,22.51,0,0,1-6.52,1,23.31,23.31,0,0,1-4-.34"/><path class="cls-1" d="M24.22,54.21s3.86,3.18,11.32,2.9"/><path class="cls-1" d="M88.48,57.13s8.07-.24,11-3.34"/><line class="cls-7" x1="49.8" y1="8.73" x2="66.65" y2="8.73"/><line class="cls-7" x1="49.8" y1="12.56" x2="66.65" y2="12.56"/><line class="cls-7" x1="49.8" y1="16.38" x2="66.65" y2="16.38"/></g></g></svg>