<svg xmlns="http://www.w3.org/2000/svg" viewBox="0 0 93.23 60.72"><defs><style>.cls-1{fill:#56d0fc;}.cls-2{fill:none;stroke:#205081;stroke-miterlimit:10;}.cls-3{fill:#fec72e;}.cls-4{fill:#fff;}</style></defs><title>23.payroll</title><g id="Layer_2" data-name="Layer 2"><g id="Layer_1-2" data-name="Layer 1"><rect class="cls-1" x="0.5" y="40.42" width="8.59" height="19.8"/><rect class="cls-2" x="0.5" y="40.42" width="8.59" height="19.8"/><path class="cls-2" d="M9.08,43.39h2.81l7.42-7.09a9.77,9.77,0,0,1,7.88-2.7L41.4,35.19s1.88,5.93-3.51,5.93H30.55"/><path class="cls-2" d="M40.55,40.3l7.61-5.19a4.33,4.33,0,0,1,6,1.18h0l.11.16-6.5,5H30.57"/><path class="cls-2" d="M54.34,36.49l3.18-2.18a2.93,2.93,0,0,1,4.07.75h0a2.93,2.93,0,0,1-.74,4.08l-.05,0-13,8.59s-22.61,6.73-24.75,6.73H8.77"/><path class="cls-3" d="M45.36,25.69a2.42,2.42,0,0,1-1.71-1.15c-.51-1,0-2,.09-3h0a4,4,0,0,1,2-2.09c1.23-.55,2.41-1.2,3.63-1.8a9.32,9.32,0,1,0-2.44,8.42A12.37,12.37,0,0,1,45.36,25.69Z"/><path class="cls-2" d="M49.45,17.78a9.14,9.14,0,0,0-1.67-3.86,9.32,9.32,0,1,0-1.94,13,9.19,9.19,0,0,0,1.35-1.22"/><rect class="cls-1" x="84.04" y="2.36" width="8.69" height="20.05"/><rect class="cls-2" x="84.04" y="2.36" width="8.69" height="20.05"/><path class="cls-2" d="M47.61,14l5.92-4.59h5.22a3.86,3.86,0,1,1,0,7.72H54a17.47,17.47,0,0,0-3.68.37h0c-4.2.87-6.45,3.16-6.83,4.84-.48,2.14.47,3.87,5.85,3.16a16.74,16.74,0,0,1,2.83-.09c4.22.23,8.29,1.9,14.64,1.13,7.74-1,7.43-3.48,11.46-5s5.77-1,5.77-1"/><path class="cls-2" d="M40.3,10.17C42.93,7.34,49.92.67,56.53.52c6.8-.16,5.45.55,13.13,2.29A55.16,55.16,0,0,0,84,4.08"/><path class="cls-4" d="M43.42,24.3a.16.16,0,0,1-.07-.16v-.35A10.12,10.12,0,0,1,43.53,22h-.8a1.86,1.86,0,0,1-1.49,1.65V20.39c2-.64,3.18-1.47,3.18-3.25A3.32,3.32,0,0,0,41.24,14V12.77H40V14a3.45,3.45,0,0,0-3.34,3.21h2.11A1.7,1.7,0,0,1,40,15.56v3c-2.44.77-3.41,1.75-3.41,3.49S38,24.94,40,25.12v1.22h1.28v-1.2a4,4,0,0,0,2.17-.78S43.43,24.3,43.42,24.3Zm-2.15-8.7a1.31,1.31,0,0,1,1.13,1.34,1.41,1.41,0,0,1-1.13,1.36ZM40,23.6a1.3,1.3,0,0,1-1.28-1.32v-.06c0-.67.3-1.19,1.28-1.55Z"/></g></g></svg>