<svg xmlns="http://www.w3.org/2000/svg" viewBox="0 0 65.9 72.73"><defs><style>.cls-1{fill:#d3d7da;}.cls-2{fill:#56d0fc;}.cls-3,.cls-5{fill:none;stroke-miterlimit:10;}.cls-3{stroke:#ffd253;stroke-linecap:round;stroke-width:2px;}.cls-4{fill:#fff;opacity:0.77;isolation:isolate;}.cls-5{stroke:#205081;}</style></defs><title>36.picker</title><g id="Layer_2" data-name="Layer 2"><g id="Layer_1-2" data-name="Layer 1"><path class="cls-1" d="M64.07,66.9,45.14,47.46l10.8-6.21A.93.93,0,0,0,56.27,40a.9.9,0,0,0-.49-.41L18.93,26.87a.21.21,0,0,0-.26.14.24.24,0,0,0,0,.12l12.27,37a.94.94,0,0,0,1.18.58,1,1,0,0,0,.5-.41L39,53.58l19.2,19.15Z"/><path class="cls-2" d="M65.2,59.9,46.3,40.46l10.8-6.22a.92.92,0,0,0-.16-1.67L20.09,19.87a.21.21,0,0,0-.26.14.24.24,0,0,0,0,.12l12.27,37a.92.92,0,0,0,1.18.58.9.9,0,0,0,.5-.4l6.33-10.73L59.3,65.75Z"/><line class="cls-3" x1="21.24" y1="12.67" x2="20.3" y2="1"/><line class="cls-3" x1="14.87" y1="15.93" x2="5.95" y2="8.35"/><line class="cls-3" x1="12.67" y1="22.75" x2="1" y2="23.69"/><line class="cls-3" x1="15.93" y1="29.13" x2="8.34" y2="38.04"/><line class="cls-3" x1="28.06" y1="14.87" x2="35.65" y2="5.96"/><path class="cls-4" d="M57.07,34.27,52.35,37a.92.92,0,0,0,0-1.31.78.78,0,0,0-.33-.21L21.38,24.91,19.8,20.15a.21.21,0,0,1,.14-.26.24.24,0,0,1,.12,0l36.85,12.7a.94.94,0,0,1,.57,1.19A1,1,0,0,1,57.07,34.27Z"/><path class="cls-5" d="M65.2,59.9,46.3,40.46l10.8-6.22a.92.92,0,0,0-.16-1.67L20.09,19.87a.21.21,0,0,0-.26.14.24.24,0,0,0,0,.12l12.27,37a.92.92,0,0,0,1.18.58.9.9,0,0,0,.5-.4l6.33-10.73L59.3,65.75Z"/></g></g></svg>