<svg xmlns="http://www.w3.org/2000/svg" viewBox="0 0 88.12 65.08"><defs><style>.cls-1{fill:#d3d7da;}.cls-2,.cls-4{fill:none;stroke:#205081;stroke-miterlimit:10;}.cls-3{fill:#fec72e;}.cls-4{stroke-linecap:round;}.cls-5{fill:#56d0fc;}</style></defs><title>26.pipeline</title><g id="Layer_2" data-name="Layer 2"><g id="Layer_1-2" data-name="Layer 1"><path class="cls-1" d="M83,58.66a8.75,8.75,0,0,1-8.43,6.42H8.75A8.75,8.75,0,0,1,0,56.33V14.66A8.72,8.72,0,0,1,4.66,6.92a8.73,8.73,0,0,0-.32,2.33V50.9a8.74,8.74,0,0,0,8.74,8.74H78.89A8.57,8.57,0,0,0,83,58.66Z"/><rect class="cls-2" x="4.33" y="0.5" width="83.29" height="59.14" rx="8.75"/><path class="cls-3" d="M36.58,46.21c0-5.76-5.57-10.43-11.72-10.43S13.24,40.45,13.24,46.21Z"/><path class="cls-4" d="M38.74,47.88a13.88,13.88,0,1,0-27.76,0Z"/><path class="cls-5" d="M42.28,18.14H79.09a1.34,1.34,0,0,1,1.35,1.35h0a1.34,1.34,0,0,1-1.35,1.34H42.28a1.34,1.34,0,0,1-1.35-1.34h0A1.34,1.34,0,0,1,42.28,18.14Z"/><path class="cls-5" d="M42.28,26.13H79.09a1.34,1.34,0,0,1,1.35,1.35h0a1.34,1.34,0,0,1-1.35,1.34H42.28a1.34,1.34,0,0,1-1.35-1.34h0A1.34,1.34,0,0,1,42.28,26.13Z"/><path class="cls-5" d="M42.28,34.11H79.09a1.34,1.34,0,0,1,1.35,1.35h0a1.34,1.34,0,0,1-1.35,1.34H42.28a1.34,1.34,0,0,1-1.35-1.34h0A1.34,1.34,0,0,1,42.28,34.11Z"/><path class="cls-5" d="M42.28,42.1H79.09a1.34,1.34,0,0,1,1.35,1.35h0a1.34,1.34,0,0,1-1.35,1.34H42.28a1.34,1.34,0,0,1-1.35-1.34h0A1.34,1.34,0,0,1,42.28,42.1Z"/><circle class="cls-3" cx="24.86" cy="24.56" r="7.2"/><circle class="cls-2" cx="24.86" cy="24.56" r="9.26"/></g></g></svg>