<svg xmlns="http://www.w3.org/2000/svg" viewBox="0 0 75.15 80.67"><defs><style>.cls-1{fill:#56d0fc;}.cls-2{fill:#d3d7da;}.cls-3,.cls-6{fill:none;stroke-miterlimit:10;}.cls-3{stroke:#205081;}.cls-4{fill:#3ed6ca;}.cls-5{fill:#fec72e;}.cls-6{stroke:#fff;}</style></defs><title>08.resources</title><g id="Layer_2" data-name="Layer 2"><g id="Layer_1-2" data-name="Layer 1"><path class="cls-1" d="M55.25,8.82V69.38a.24.24,0,0,1-.24.24.22.22,0,0,1-.21-.12h-29l36,7.17,12.75-64Z"/><polygon class="cls-2" points="58.73 76.04 57.81 80.67 20.83 73.3 20.78 73.29 22.76 69.32 25.02 69.32 44.99 73.3 58.73 76.04"/><polygon class="cls-2" points="44.99 73.3 0 73.3 0 4.5 4.19 4.5 4.19 69.32 25.02 69.32 44.99 73.3"/><polyline class="cls-3" points="55 8.77 74.56 12.67 61.81 76.67 24.78 69.29"/><rect class="cls-1" x="9.75" y="8.56" width="4.38" height="16.81"/><rect class="cls-1" x="16.56" y="16.75" width="4.38" height="8.63"/><rect class="cls-1" x="23.38" y="13.25" width="4.38" height="12.13"/><line class="cls-3" x1="30.38" y1="18.19" x2="52.5" y2="18.19"/><line class="cls-3" x1="41.81" y1="15.19" x2="52.5" y2="15.19"/><line class="cls-3" x1="41.81" y1="12.19" x2="52.5" y2="12.19"/><line class="cls-3" x1="30.38" y1="21.75" x2="52.5" y2="21.75"/><line class="cls-3" x1="30.38" y1="25.32" x2="52.5" y2="25.32"/><circle class="cls-4" cx="15.92" cy="34.9" r="3.16"/><circle class="cls-3" cx="15.92" cy="34.9" r="5.83"/><circle class="cls-4" cx="30.38" cy="34.9" r="3.16"/><circle class="cls-3" cx="30.38" cy="34.9" r="5.83"/><circle class="cls-4" cx="44.83" cy="34.9" r="3.16"/><circle class="cls-3" cx="44.83" cy="34.9" r="5.83"/><polygon class="cls-5" points="33.53 53.65 23.42 61.29 16.56 54.54 8.33 62.04 8.09 57.22 16.56 49.5 23.42 56.25 30.75 50.71 28.19 48.15 38.17 46 35.33 55.5 33.53 53.65"/><polygon class="cls-3" points="33.53 53.65 23.42 61.29 16.56 54.54 8.33 62.04 8.09 57.22 16.56 49.5 23.42 56.25 30.75 50.71 28.19 48.15 38.17 46 35.33 55.5 33.53 53.65"/><line class="cls-3" x1="40.53" y1="51.38" x2="50.67" y2="51.38"/><line class="cls-3" x1="40.53" y1="55.25" x2="50.67" y2="55.25"/><line class="cls-3" x1="40.53" y1="58.78" x2="50.67" y2="58.78"/><line class="cls-6" x1="57" y1="15.19" x2="69.38" y2="17.69"/><line class="cls-6" x1="56.33" y1="18.57" x2="68.71" y2="21.07"/><line class="cls-6" x1="55.66" y1="21.94" x2="68.04" y2="24.44"/><line class="cls-6" x1="54.99" y1="25.32" x2="67.37" y2="27.82"/><line class="cls-6" x1="66.7" y1="31.19" x2="55" y2="28.83"/><line class="cls-6" x1="66.03" y1="34.56" x2="55" y2="32.33"/><line class="cls-6" x1="65.36" y1="37.94" x2="55" y2="35.85"/><line class="cls-6" x1="64.7" y1="41.31" x2="55" y2="39.35"/><line class="cls-6" x1="64.03" y1="44.69" x2="55" y2="42.87"/><line class="cls-6" x1="63.36" y1="48.06" x2="55" y2="46.37"/><line class="cls-6" x1="62.69" y1="51.44" x2="55" y2="49.89"/><line class="cls-6" x1="62.02" y1="54.81" x2="55" y2="53.39"/><line class="cls-6" x1="61.35" y1="58.19" x2="55" y2="56.91"/><line class="cls-6" x1="60.68" y1="61.56" x2="55" y2="60.41"/><line class="cls-6" x1="60.02" y1="64.94" x2="55" y2="63.93"/><line class="cls-6" x1="59.35" y1="68.31" x2="55" y2="67.43"/><rect class="cls-3" x="4" y="0.5" width="51" height="68.79"/></g></g></svg>