<svg xmlns="http://www.w3.org/2000/svg" viewBox="0 0 78.75 72.55"><defs><style>.cls-1{fill:#d3d7da;}.cls-2,.cls-3{fill:none;stroke:#205081;stroke-miterlimit:10;}.cls-3{stroke-linecap:round;}.cls-4{isolation:isolate;font-size:23.05px;font-family:Roboto-Bold, Roboto;font-weight:700;}.cls-4,.cls-7{fill:#fec72e;}.cls-5{fill:#56d0fc;}.cls-6{fill:#fff;}</style></defs><title>29.sales.budget</title><g id="Layer_2" data-name="Layer 2"><g id="Layer_1-2" data-name="Layer 1"><path class="cls-1" d="M75.25,68.31v1.47a2.77,2.77,0,0,1-2.77,2.77H18.67a2.77,2.77,0,0,1-2.78-2.76h0V45.72h3.18V65.53a2.77,2.77,0,0,0,2.76,2.78H75.25Z"/><path class="cls-1" d="M19.07,45.72V50H3.15A3.15,3.15,0,0,1,0,46.82V11.57A3.15,3.15,0,0,1,3.15,8.45h0V42.6a3.15,3.15,0,0,0,3.14,3.14h0Z"/><path class="cls-2" d="M78.25,58.64v7.14a2.77,2.77,0,0,1-2.76,2.78H21.67a2.77,2.77,0,0,1-2.78-2.76V3.27A2.77,2.77,0,0,1,21.66.5H73a5.21,5.21,0,0,1,5.21,5.21h0V54.56"/><line class="cls-3" x1="24.81" y1="49.52" x2="40.81" y2="49.52"/><line class="cls-3" x1="24.81" y1="54.1" x2="40.81" y2="54.1"/><line class="cls-3" x1="24.81" y1="59.1" x2="40.81" y2="59.1"/><path class="cls-3" d="M50.39,40.45a13.62,13.62,0,1,1-2.57,3.77"/><text class="cls-4" transform="translate(52.8 57.86) scale(1.23 1)">$</text><rect class="cls-5" x="3" y="4.43" width="36" height="41.54" rx="3.14"/><rect class="cls-2" x="3" y="4.43" width="36" height="41.54" rx="3.14"/><rect class="cls-6" x="8.17" y="9.97" width="25.67" height="7.38" rx="1.42"/><rect class="cls-6" x="8.17" y="23.72" width="5.5" height="5.75" rx="0.9"/><rect class="cls-6" x="18.75" y="23.72" width="5.5" height="5.75" rx="0.9"/><rect class="cls-6" x="29.34" y="23.72" width="5.5" height="5.75" rx="0.9"/><rect class="cls-6" x="8.17" y="34.28" width="5.5" height="5.75" rx="0.9"/><rect class="cls-6" x="18.75" y="34.28" width="5.5" height="5.75" rx="0.9"/><rect class="cls-6" x="29.34" y="34.28" width="5.5" height="5.75" rx="0.9"/><rect class="cls-2" x="8.17" y="9.97" width="25.67" height="7.38" rx="1.42"/><rect class="cls-2" x="8.17" y="23.72" width="5.5" height="5.75" rx="0.9"/><rect class="cls-2" x="18.75" y="23.72" width="5.5" height="5.75" rx="0.9"/><rect class="cls-2" x="29.34" y="23.72" width="5.5" height="5.75" rx="0.9"/><rect class="cls-2" x="8.17" y="34.28" width="5.5" height="5.75" rx="0.9"/><rect class="cls-2" x="18.75" y="34.28" width="5.5" height="5.75" rx="0.9"/><rect class="cls-2" x="29.34" y="34.28" width="5.5" height="5.75" rx="0.9"/><polyline class="cls-3" points="39 29.56 48.57 19.47 57.89 27.16 69.97 15.2"/><polyline class="cls-3" points="65.06 14.52 70.67 14.58 70.67 19.91"/><circle class="cls-7" cx="48.57" cy="19.47" r="3.43"/><circle class="cls-7" cx="57.92" cy="26.61" r="3.43"/><circle class="cls-3" cx="48.57" cy="19.47" r="3.43"/><circle class="cls-3" cx="57.92" cy="26.61" r="3.43"/></g></g></svg>