<svg xmlns="http://www.w3.org/2000/svg" viewBox="0 0 68.63 72.27"><defs><style>.cls-1{fill:#56d0fc;}.cls-2{fill:#d3d7da;}.cls-3{fill:none;stroke:#205081;stroke-miterlimit:10;}.cls-4{fill:#fff;}.cls-5{fill:#3ed6ca;}.cls-6{fill:#fec72e;}</style></defs><title>02.save</title><g id="Layer_2" data-name="Layer 2"><g id="Layer_1-2" data-name="Layer 1"><path class="cls-1" d="M14.17,67.28V36.42A2.83,2.83,0,0,1,17,33.59H55.17A2.83,2.83,0,0,1,58,36.42h0V67.28"/><path class="cls-2" d="M64.12,67.58V69a3.26,3.26,0,0,1-3.25,3.27H3.27A3.26,3.26,0,0,1,0,69V11.81A3.26,3.26,0,0,1,3.25,8.54H4V64.31a3.26,3.26,0,0,0,3.25,3.27H64.12Z"/><path class="cls-3" d="M68.13,15.91V64a3.28,3.28,0,0,1-3.28,3.28H7.27A3.26,3.26,0,0,1,4,64H4V6.81A3.26,3.26,0,0,1,7.26,3.53H55.54a2.36,2.36,0,0,1,1.65.68l10.23,10A2.37,2.37,0,0,1,68.13,15.91Z"/><path class="cls-4" d="M53,14.14v9a3.62,3.62,0,0,1-3.65,3.59H17.83a3.62,3.62,0,0,1-3.66-3.58h0V.5H53Z"/><path class="cls-3" d="M53,14.14v9a3.62,3.62,0,0,1-3.65,3.59H17.83a3.62,3.62,0,0,1-3.66-3.58h0V.5H53Z"/><path class="cls-3" d="M14.17,67.28V36.42A2.83,2.83,0,0,1,17,33.59H55.17A2.83,2.83,0,0,1,58,36.42h0V67.28"/><line class="cls-3" x1="19.78" y1="40.59" x2="52.34" y2="40.59"/><line class="cls-3" x1="19.78" y1="46.09" x2="52.34" y2="46.09"/><line class="cls-3" x1="19.78" y1="51.59" x2="52.34" y2="51.59"/><line class="cls-3" x1="19.78" y1="57.09" x2="52.34" y2="57.09"/><line class="cls-3" x1="19.78" y1="62.59" x2="52.34" y2="62.59"/><circle class="cls-5" cx="63.08" cy="57.09" r="2.21"/><circle class="cls-3" cx="63.08" cy="57.09" r="2.21"/><rect class="cls-4" x="39.73" y="9.48" width="9.1" height="12.11" rx="0.89"/><rect class="cls-6" x="39.73" y="9.48" width="9.1" height="12.11" rx="0.89"/><rect class="cls-3" x="39.73" y="9.48" width="9.1" height="12.11" rx="0.89"/></g></g></svg>