<svg xmlns="http://www.w3.org/2000/svg" viewBox="0 0 83.62 57.56"><defs><style>.cls-1{fill:none;stroke:#205081;stroke-miterlimit:10;}.cls-2{fill:#d3d7da;}.cls-3{fill:#56d0fc;}.cls-4{fill:#fec72e;}</style></defs><title>39.several.points</title><g id="Layer_2" data-name="Layer 2"><g id="Layer_1-2" data-name="Layer 1"><path class="cls-1" d="M3.88,44.42S9.65,17.11,15.26,15.5s21.92-.59,30.52,1.41-2.1,8.47,0,24.48,13,12.59,23.06,7.8S79.78,32.7,76.59,18.8,63.88,4.41,63.88,4.41"/><circle class="cls-2" cx="5.88" cy="45.42" r="3.38"/><circle class="cls-2" cx="16.63" cy="16.92" r="3.38"/><circle class="cls-2" cx="51.16" cy="20.3" r="3.38"/><circle class="cls-2" cx="55.57" cy="54.18" r="3.38"/><circle class="cls-2" cx="80.24" cy="38.18" r="3.38"/><circle class="cls-2" cx="65.74" cy="4.88" r="3.38"/><circle class="cls-3" cx="3.88" cy="44.42" r="3.38"/><circle class="cls-1" cx="3.88" cy="44.42" r="3.38"/><circle class="cls-4" cx="14.63" cy="15.92" r="3.38"/><circle class="cls-1" cx="14.63" cy="15.92" r="3.38"/><circle class="cls-3" cx="49.16" cy="19.3" r="3.38"/><circle class="cls-1" cx="49.16" cy="19.3" r="3.38"/><circle class="cls-3" cx="53.57" cy="53.18" r="3.38"/><circle class="cls-1" cx="53.57" cy="53.18" r="3.38"/><circle class="cls-3" cx="78.24" cy="37.18" r="3.38"/><circle class="cls-1" cx="78.24" cy="37.18" r="3.38"/><circle class="cls-4" cx="63.74" cy="3.88" r="3.38"/><circle class="cls-1" cx="63.74" cy="3.88" r="3.38"/></g></g></svg>