<svg xmlns="http://www.w3.org/2000/svg" viewBox="0 0 93.22 54.94"><defs><style>.cls-1{fill:#d3d7da;}.cls-2,.cls-3{fill:none;stroke:#205081;stroke-miterlimit:10;}.cls-3{stroke-linecap:square;stroke-dasharray:2 3;}.cls-4{fill:#56d0fc;}.cls-5{fill:#fec72e;}.cls-6{fill:#606060;opacity:0.25;isolation:isolate;}.cls-7{fill:#fff;}</style></defs><title>41.square.marker</title><g id="Layer_2" data-name="Layer 2"><g id="Layer_1-2" data-name="Layer 1"><polygon class="cls-1" points="73.17 50.53 9.29 50.53 9.29 6.43 7.36 6.43 7.36 52.61 73.17 52.61 73.17 50.53"/><line class="cls-2" x1="9.29" y1="50.53" x2="9.29"/><line class="cls-2" x1="73.62" y1="50.53" x2="73.62"/><line class="cls-2" y1="6.43" x2="82.47" y2="6.43"/><line class="cls-3" x1="10.58" y1="50.53" x2="72.39" y2="50.53"/><circle class="cls-1" cx="7.29" cy="51.53" r="3.41"/><circle class="cls-1" cx="71.62" cy="51.53" r="3.41"/><circle class="cls-4" cx="9.29" cy="50.53" r="3.41"/><circle class="cls-2" cx="9.29" cy="50.53" r="3.41"/><circle class="cls-4" cx="73.62" cy="50.53" r="3.41"/><circle class="cls-2" cx="73.62" cy="50.53" r="3.41"/><rect class="cls-5" x="12.7" y="9.82" width="57.51" height="35.56"/><path class="cls-6" d="M90.72,22.34v10a1.42,1.42,0,0,1-1.41,1.4H25.49a1.42,1.42,0,0,1-1.41-1.4v-10a1.41,1.41,0,0,1,1.41-1.41H89.31a1.41,1.41,0,0,1,1.41,1.41Z"/><rect id="_Rectangle_" data-name=" Rectangle " class="cls-7" x="26.09" y="17.93" width="66.63" height="12.86" rx="1.4"/><path id="_Path_" data-name=" Path " class="cls-4" d="M26.09,25.44v4a1.42,1.42,0,0,0,1.4,1.41H91.32a1.42,1.42,0,0,0,1.4-1.41v-4Z"/><path id="_Path_2" data-name=" Path 2" class="cls-2" d="M92.72,29.39a1.42,1.42,0,0,1-1.4,1.41H27.49a1.42,1.42,0,0,1-1.4-1.41v-10a1.4,1.4,0,0,1,1.4-1.4h64a1.23,1.23,0,0,1,1.23,1.23Z"/><line id="_Path_3" data-name=" Path 3" class="cls-2" x1="86.14" y1="30.8" x2="86.14" y2="22.93"/><line id="_Path_4" data-name=" Path 4" class="cls-2" x1="80.61" y1="30.8" x2="80.61" y2="26.87"/><line id="_Path_5" data-name=" Path 5" class="cls-2" x1="75.08" y1="30.8" x2="75.08" y2="26.87"/><line id="_Path_6" data-name=" Path 6" class="cls-2" x1="69.55" y1="30.8" x2="69.55" y2="26.87"/><line id="_Path_7" data-name=" Path 7" class="cls-2" x1="64.02" y1="30.8" x2="64.02" y2="22.93"/><line id="_Path_8" data-name=" Path 8" class="cls-2" x1="58.49" y1="30.8" x2="58.49" y2="26.87"/><line id="_Path_9" data-name=" Path 9" class="cls-2" x1="52.96" y1="30.8" x2="52.96" y2="26.87"/><line id="_Path_10" data-name=" Path 10" class="cls-2" x1="47.43" y1="30.8" x2="47.43" y2="26.87"/><line id="_Path_11" data-name=" Path 11" class="cls-2" x1="41.9" y1="30.61" x2="41.9" y2="22.94"/><line id="_Path_12" data-name=" Path 12" class="cls-2" x1="36.37" y1="30.42" x2="36.37" y2="26.49"/><line id="_Path_13" data-name=" Path 13" class="cls-2" x1="30.84" y1="30.23" x2="30.84" y2="26.3"/></g></g></svg>