<svg xmlns="http://www.w3.org/2000/svg" viewBox="0 0 95.29 31.43"><defs><style>.cls-1{fill:#d3d7da;}.cls-2{fill:#56d0fc;}.cls-3{fill:none;stroke:#205081;stroke-miterlimit:10;}</style></defs><title>49.text</title><g id="Layer_2" data-name="Layer 2"><g id="Layer_1-2" data-name="Layer 1"><path class="cls-1" d="M23.19,26H10.43L8.56,30.68H0L12.81,2.16H21L33.71,30.68H25.06ZM16.81,10.14l-3.67,9.09h7.3Z"/><path class="cls-1" d="M50.57,2.16c5.7,0,10.35,2.52,10.35,8,0,2.16-.65,4.4-3.14,5.54a7.48,7.48,0,0,1,3.95,6.65c0,6.39-5.82,8.31-11,8.35H36V2.16ZM43.92,13.09h6.44c1.67,0,2.57-.86,2.57-2.12a2.22,2.22,0,0,0-2.2-2.25,1.38,1.38,0,0,0-.29,0H43.92Zm0,11.37h6.81c2,0,3-1.1,3-2.69s-1-2.73-3-2.73H43.92Z"/><path class="cls-1" d="M91.6,27a15.58,15.58,0,0,1-11.45,4.45c-11.21,0-15.57-7.06-15.61-14.8,0-7.33,4.89-15.12,15.61-15.12a15.27,15.27,0,0,1,11,4.57l-5,4.89a8.37,8.37,0,0,0-6.07-2.49c-5.5,0-7.66,4.48-7.62,8.19s2,7.91,7.62,7.91a9.88,9.88,0,0,0,6.72-2.89Z"/><path class="cls-2" d="M26.19,25H13.43l-1.87,4.68H3L15.81,1.16H24L36.71,29.68H28.07ZM19.81,9.14l-3.67,9.09h7.3Z"/><path class="cls-2" d="M53.57,1.16c5.7,0,10.35,2.52,10.35,8,0,2.16-.65,4.4-3.14,5.54a7.48,7.48,0,0,1,4,6.65c0,6.39-5.82,8.31-11,8.35H39V1.16ZM46.92,12.09h6.44c1.67,0,2.57-.86,2.57-2.12a2.22,2.22,0,0,0-2.2-2.25,1.38,1.38,0,0,0-.29,0H46.92Zm0,11.37h6.81c2,0,3-1.1,3-2.69s-1-2.73-3-2.73H46.92Z"/><path class="cls-2" d="M94.6,26a15.58,15.58,0,0,1-11.45,4.45c-11.21,0-15.57-7.06-15.61-14.8C67.54,8.29,72.43.5,83.15.5a15.27,15.27,0,0,1,11,4.57l-5,4.89a8.37,8.37,0,0,0-6.07-2.49c-5.5,0-7.66,4.48-7.62,8.19s2,7.91,7.62,7.91a9.88,9.88,0,0,0,6.72-2.89Z"/><path class="cls-3" d="M26.19,25H13.43l-1.87,4.68H3L15.81,1.16H24L36.71,29.68H28.07ZM19.81,9.14l-3.67,9.09h7.3Z"/><path class="cls-3" d="M53.57,1.16c5.7,0,10.35,2.52,10.35,8,0,2.16-.65,4.4-3.14,5.54a7.48,7.48,0,0,1,4,6.65c0,6.39-5.82,8.31-11,8.35H39V1.16ZM46.92,12.09h6.44c1.67,0,2.57-.86,2.57-2.12a2.22,2.22,0,0,0-2.2-2.25,1.38,1.38,0,0,0-.29,0H46.92Zm0,11.37h6.81c2,0,3-1.1,3-2.69s-1-2.73-3-2.73H46.92Z"/><path class="cls-3" d="M94.6,26a15.58,15.58,0,0,1-11.45,4.45c-11.21,0-15.57-7.06-15.61-14.8C67.54,8.29,72.43.5,83.15.5a15.27,15.27,0,0,1,11,4.57l-5,4.89a8.37,8.37,0,0,0-6.07-2.49c-5.5,0-7.66,4.48-7.62,8.19s2,7.91,7.62,7.91a9.88,9.88,0,0,0,6.72-2.89Z"/></g></g></svg>