<svg xmlns="http://www.w3.org/2000/svg" viewBox="0 0 89.47 64.25"><defs><style>.cls-1{fill:#d3d7da;}.cls-2{fill:#56d0fc;}.cls-3{fill:none;stroke:#205081;stroke-miterlimit:10;}.cls-4{fill:#fec72e;}</style></defs><title>51.upload</title><g id="Layer_2" data-name="Layer 2"><g id="Layer_1-2" data-name="Layer 1"><path class="cls-1" d="M81.35,56.25a17.69,17.69,0,0,1-14.77,8H20A20,20,0,0,1,8.58,27.83,19.76,19.76,0,0,0,5,39.22a20,20,0,0,0,20,20H71.6A17.64,17.64,0,0,0,81.35,56.25Z"/><path class="cls-2" d="M61.06,55.28h6.85a14.56,14.56,0,1,0,1-29.1h-.73c-.15-10.55-9.08-19.1-20-19.1A20.4,20.4,0,0,0,34.86,11.9a19.28,19.28,0,0,0-6.37,10.56h-.2c-9.36,0-17,7.36-17,16.41s7.62,16.41,17,16.41Z"/><path class="cls-3" d="M63.52,59.2h8a17.72,17.72,0,0,0,.26-35.43,23.57,23.57,0,0,0-46.64-4.52h-.22a20,20,0,0,0,0,40H63.47Z"/><path class="cls-4" d="M41.79,30.12l4.32-3.87V48.37a1.8,1.8,0,0,0,3.6,0V26.25L54,30.12a1.8,1.8,0,0,0,2.4-2.68l-6.54-5.85a3,3,0,0,0-4,0l-6.54,5.85a1.8,1.8,0,0,0,2.4,2.68Z"/><path class="cls-3" d="M41.79,30.12l4.32-3.87V48.37a1.8,1.8,0,0,0,3.6,0V26.25L54,30.12a1.8,1.8,0,0,0,2.4-2.68l-6.54-5.85a3,3,0,0,0-4,0l-6.54,5.85a1.8,1.8,0,0,0,2.4,2.68Z"/></g></g></svg>