<svg xmlns="http://www.w3.org/2000/svg" viewBox="0 0 69.89 80.29"><defs><style>.cls-1{fill:#56d0fc;}.cls-2{fill:#d3d7da;}.cls-3,.cls-4{fill:none;stroke-miterlimit:10;}.cls-3{stroke:#205081;}.cls-4{stroke:#fff;stroke-linecap:round;}.cls-5{fill:#fff;}.cls-6{fill:#fec72e;}</style></defs><title>21.variations.order.list</title><g id="Layer_2" data-name="Layer 2"><g id="Layer_1-2" data-name="Layer 1"><path class="cls-1" d="M18.36.5H66.13a3.26,3.26,0,0,1,3.26,3.26v60.3A3.44,3.44,0,0,1,66,67.5H20.12a4.69,4.69,0,0,1-4.69-4.67V3.43A2.92,2.92,0,0,1,18.34.5Z"/><path class="cls-2" d="M13.35,3.5h2.14v7.05h-5V6.43A2.93,2.93,0,0,1,13.35,3.5Z"/><path class="cls-2" d="M53.88,77.55a3.44,3.44,0,0,1-3.37,2.74H4.68A4.69,4.69,0,0,1,0,75.61H0V16.21a2.94,2.94,0,0,1,2.92-2.93H5V72.83a4.67,4.67,0,0,0,4.66,4.68h0Z"/><path class="cls-3" d="M18.36.5H66.13a3.26,3.26,0,0,1,3.26,3.26v60.3A3.44,3.44,0,0,1,66,67.5H20.12a4.69,4.69,0,0,1-4.69-4.67V3.43A2.92,2.92,0,0,1,18.34.5Z"/><line class="cls-4" x1="33.59" y1="12.32" x2="65.86" y2="12.32"/><line class="cls-3" x1="34.12" y1="17.14" x2="49.7" y2="17.14"/><line class="cls-4" x1="54.6" y1="17.14" x2="62.6" y2="17.14"/><line class="cls-4" x1="34.16" y1="25.6" x2="66.61" y2="25.6"/><line class="cls-3" x1="34.12" y1="30.07" x2="49.9" y2="30.07"/><line class="cls-4" x1="54.6" y1="30.07" x2="63.04" y2="30.07"/><line class="cls-4" x1="34.16" y1="38.44" x2="66.61" y2="38.44"/><line class="cls-3" x1="34.12" y1="42.91" x2="49.9" y2="42.91"/><line class="cls-4" x1="54.6" y1="42.91" x2="63.04" y2="42.91"/><polyline class="cls-3" points="21.6 15.4 24.51 18.66 29.8 11.43"/><polyline class="cls-3" points="21.6 28.63 24.34 31.71 29.8 23.95"/><path class="cls-5" d="M7.92,10.28H55.69A3.26,3.26,0,0,1,59,13.54V73.83a3.44,3.44,0,0,1-3.44,3.44H9.68A4.69,4.69,0,0,1,5,72.58H5V13.2a2.92,2.92,0,0,1,2.92-2.92Z"/><path class="cls-3" d="M7.92,10.28H55.69A3.26,3.26,0,0,1,59,13.54V73.83a3.44,3.44,0,0,1-3.44,3.44H9.68A4.69,4.69,0,0,1,5,72.58H5V13.2a2.92,2.92,0,0,1,2.92-2.92Z"/><circle class="cls-6" cx="15.43" cy="24.66" r="3.83"/><circle class="cls-3" cx="15.43" cy="24.66" r="3.83"/><circle class="cls-6" cx="15.43" cy="38.44" r="3.83"/><circle class="cls-6" cx="15.43" cy="52.22" r="3.83"/><circle class="cls-6" cx="15.43" cy="66" r="3.83"/><circle class="cls-3" cx="15.43" cy="38.44" r="3.83"/><circle class="cls-3" cx="15.43" cy="52.22" r="3.83"/><circle class="cls-3" cx="15.43" cy="66" r="3.83"/><line class="cls-3" x1="24.27" y1="23.95" x2="51.61" y2="23.95"/><line class="cls-3" x1="24.27" y1="38.44" x2="51.61" y2="38.44"/><line class="cls-3" x1="24.27" y1="52.22" x2="51.61" y2="52.22"/><line class="cls-3" x1="24.27" y1="66" x2="51.61" y2="66"/></g></g></svg>