<svg xmlns="http://www.w3.org/2000/svg" viewBox="0 0 79.84 79.53"><defs><style>.cls-1{fill:#56d0fc;}.cls-2{fill:#d3d7da;}.cls-3,.cls-6,.cls-7,.cls-8{fill:none;stroke-miterlimit:10;}.cls-3{stroke:#205081;}.cls-4{fill:#fec72e;}.cls-5{fill:#4ebbf6;}.cls-6{stroke:#ffd253;stroke-linecap:round;}.cls-7{stroke:#56d0fc;}.cls-8{stroke:#3fa9f5;stroke-linecap:square;stroke-dasharray:1 3;}.cls-9{fill:#fff;}.cls-10{fill:#535463;}</style></defs><title>13.visual.plan</title><g id="Layer_2" data-name="Layer 2"><g id="Layer_1-2" data-name="Layer 1"><polyline class="cls-1" points="66.09 0.52 66.09 13.09 78.92 13.09"/><path class="cls-2" d="M75.75,75.59v2.33a1.61,1.61,0,0,1-1.61,1.61H20.85a1.61,1.61,0,0,1-1.62-1.6h0V6a1.61,1.61,0,0,1,1.61-1.61h2V74a1.61,1.61,0,0,0,1.61,1.61H75.75Z"/><path class="cls-3" d="M22.82,2.08V74a1.61,1.61,0,0,0,1.61,1.61h53.3A1.61,1.61,0,0,0,79.34,74h0V13.11a1.6,1.6,0,0,0-.52-1.19l-12-11A1.61,1.61,0,0,0,65.73.5H24.43A1.61,1.61,0,0,0,22.82,2.08Z"/><polyline class="cls-3" points="66.09 0.52 66.09 13.09 78.92 13.09"/><circle class="cls-4" cx="54.78" cy="14.22" r="4.75"/><circle class="cls-3" cx="54.78" cy="14.22" r="4.75"/><line class="cls-3" x1="29.01" y1="6.81" x2="41.34" y2="6.81"/><line class="cls-3" x1="29.01" y1="13.09" x2="36.47" y2="13.09"/><path class="cls-5" d="M63.06,34.47a2.06,2.06,0,0,1-1.22.41,2,2,0,0,1-1.59-.78l-3.59-4.7c-.59,8.37-3.32,14.88-8.13,19.39a25.23,25.23,0,0,1-16.8,6.48H31a2,2,0,0,1,.24-4c.15,0,8.44.39,14.59-5.42,4-3.81,6.33-9.43,6.84-16.77l-4.08,4.6a2,2,0,0,1-3-2.66l9.3-10.48,8.54,11.13A2,2,0,0,1,63.06,34.47Z"/><line class="cls-6" x1="59.53" y1="42.51" x2="68.51" y2="51.68"/><line class="cls-6" x1="59.53" y1="51.75" x2="68.51" y2="42.59"/><line class="cls-7" x1="34.31" y1="32.81" x2="43.29" y2="41.97"/><line class="cls-7" x1="34.31" y1="42.05" x2="43.29" y2="32.88"/><line class="cls-8" x1="30.34" y1="61.16" x2="72.51" y2="61.16"/><line class="cls-3" x1="30.34" y1="68.05" x2="72.51" y2="68.05"/><path class="cls-9" d="M17.81,31.75c10.65.14,15.7-6.33,17.14-8.62a1.37,1.37,0,0,0,0-1.55c-1.52-2.19-6.72-8.39-17.11-8.76C7.45,13.19,2.25,19.39.73,21.58a1.41,1.41,0,0,0,0,1.55C2.12,25.42,7.16,31.89,17.81,31.75Z"/><path class="cls-3" d="M17.81,31.75c10.65.14,15.7-6.33,17.14-8.62a1.37,1.37,0,0,0,0-1.55c-1.52-2.19-6.72-8.39-17.11-8.76C7.45,13.19,2.25,19.39.73,21.58a1.41,1.41,0,0,0,0,1.55C2.12,25.42,7.16,31.89,17.81,31.75Z"/><circle class="cls-5" cx="17.81" cy="22.28" r="7.17"/><circle class="cls-10" cx="17.81" cy="22.28" r="3.58"/><circle class="cls-9" cx="15.45" cy="24.88" r="1.2"/><circle class="cls-9" cx="19.61" cy="20.7" r="1.84"/></g></g></svg>