<svg xmlns="http://www.w3.org/2000/svg" viewBox="0 0 72.75 63.18"><defs><style>.cls-1{fill:#fec72e;}.cls-2{fill:#d3d7da;}.cls-3,.cls-7{fill:none;stroke-miterlimit:10;}.cls-3{stroke:#205081;}.cls-4{fill:#fff;}.cls-5{fill:#56d0fc;}.cls-6{fill:#205081;}.cls-7{stroke:#fff;stroke-linecap:round;}</style></defs><title>07.offers</title><g id="Layer_2" data-name="Layer 2"><g id="Layer_1-2" data-name="Layer 1"><path class="cls-1" d="M3.21,21.59V16.42s-.5-2.05,2.06-2.05H59.63s2,0,2.2,2.87a19.34,19.34,0,0,1-.1,4.3v.17Z"/><path class="cls-2" d="M59.05,59.57v1.29a2.3,2.3,0,0,1-2.3,2.32H2.32A2.32,2.32,0,0,1,0,60.86V20.25a2.3,2.3,0,0,1,2.31-2.31H3V57.26a2.3,2.3,0,0,0,2.29,2.31H59.05Z"/><rect class="cls-3" x="2.96" y="14.34" width="59.04" height="45.24" rx="2.31"/><line class="cls-3" x1="62" y1="21.92" x2="2.96" y2="21.92"/><circle class="cls-4" cx="6.78" cy="17.59" r="1.44"/><circle class="cls-4" cx="10.97" cy="17.59" r="1.44"/><path class="cls-5" d="M72.25,4.8V35.91a4.32,4.32,0,0,1-4.3,4.3H62.5l-9.56,8.84a1.3,1.3,0,0,1-2.19-1V40.16H21.59a4.32,4.32,0,0,1-4.3-4.3V4.8A4.31,4.31,0,0,1,21.59.5H68A4.3,4.3,0,0,1,72.25,4.8Z"/><path class="cls-2" d="M69.08,40.12A4.3,4.3,0,0,1,65,43.2H59.5l-9.56,8.85a1.3,1.3,0,0,1-2.19-1V43.16H18.59a4.31,4.31,0,0,1-4.3-4.3h0V7.79a4.32,4.32,0,0,1,3.17-4.15,4.6,4.6,0,0,0-.17,1.22V36a4.32,4.32,0,0,0,4.3,4.3H50.75v7.89A1.31,1.31,0,0,0,52,49.5a1.28,1.28,0,0,0,.91-.34l9.56-8.85H68A4.37,4.37,0,0,0,69.08,40.12Z"/><path class="cls-5" d="M72.25,4.86V36a4.3,4.3,0,0,1-4.3,4.3H62.5l-9.56,8.85A1.3,1.3,0,0,1,51.09,49a1.28,1.28,0,0,1-.34-.91V40.27H21.59a4.32,4.32,0,0,1-4.3-4.3V4.86a4.6,4.6,0,0,1,.17-1.22A4.3,4.3,0,0,1,21.59.56H68A4.3,4.3,0,0,1,72.25,4.86Z"/><path class="cls-3" d="M72.25,4.8V35.91a4.32,4.32,0,0,1-4.3,4.3H62.5l-9.56,8.84a1.3,1.3,0,0,1-2.19-1V40.16H21.59a4.32,4.32,0,0,1-4.3-4.3V4.8A4.31,4.31,0,0,1,21.59.5H68A4.3,4.3,0,0,1,72.25,4.8Z"/><path class="cls-5" d="M52,19.65a7.19,7.19,0,1,1-7.19-7.19A7.19,7.19,0,0,1,52,19.65Zm2-2.48.94-3.39-3.41-.89-.89-3.41-3.4.94L44.77,7.91,42.3,10.42l-3.4-.94L38,12.89l-3.41.89.94,3.39L33,19.65l2.51,2.47-.94,3.4,3.43.85.89,3.41,3.4-.93,2.47,2.51,2.47-2.51,3.4.93.89-3.41,3.41-.88L54,22.09l2.51-2.47Z"/><circle class="cls-1" cx="41.85" cy="16.61" r="1.74"/><circle class="cls-1" cx="47.73" cy="22.72" r="1.74"/><path class="cls-4" d="M54.1,19.65a9.33,9.33,0,1,1-9.38-9.28h.05A9.34,9.34,0,0,1,54.1,19.65Zm2.65-3.21L58,12l-4.43-1.15L52.42,6.45,48,7.67l-3.23-3.3L41.56,7.63,37.15,6.41,36,10.88,31.57,12l1.22,4.41-3.26,3.21,3.26,3.21-1.22,4.41L36,28.42l1.15,4.43,4.41-1.22,3.21,3.26L48,31.63l4.41,1.22,1.15-4.43L58,27.27l-1.22-4.41L60,19.65Z"/><path class="cls-3" d="M54.1,19.65a9.33,9.33,0,1,1-9.38-9.28h.05A9.34,9.34,0,0,1,54.1,19.65Zm2.65-3.21L58,12l-4.43-1.15L52.42,6.45,48,7.67l-3.23-3.3L41.56,7.63,37.15,6.41,36,10.88,31.57,12l1.22,4.41-3.26,3.21,3.26,3.21-1.22,4.41L36,28.42l1.15,4.43,4.41-1.22,3.21,3.26L48,31.63l4.41,1.22,1.15-4.43L58,27.27l-1.22-4.41L60,19.65Z"/><path class="cls-6" d="M41.85,14.31a2.29,2.29,0,0,0-2.45,2.13,1.09,1.09,0,0,0,0,.18,2.48,2.48,0,0,0,4.94,0A2.32,2.32,0,0,0,42,14.3Zm0,3.63a1.34,1.34,0,1,1,1.42-1.32A1.32,1.32,0,0,1,42,17.94h-.1Z"/><path class="cls-6" d="M49.16,14.3,41.52,24.92H40.28c2.4-3.4,5.24-7.19,7.66-10.62Z"/><path class="cls-6" d="M47.72,20.44a2.28,2.28,0,0,0-2.45,2.09,1.34,1.34,0,0,0,0,.2,2.48,2.48,0,0,0,4.94,0,2.3,2.3,0,0,0-2.28-2.3Zm0,3.66a1.39,1.39,0,0,1-1.47-1.29V22.7a1.36,1.36,0,0,1,1.36-1.34h.11a1.37,1.37,0,0,1,1.46,1.28v.11a1.34,1.34,0,0,1-1.36,1.34h-.1Z"/><rect class="cls-1" x="17.67" y="45.92" width="26.66" height="9.33" rx="2.19"/><rect class="cls-3" x="17.67" y="45.92" width="26.66" height="9.33" rx="2.19"/><line class="cls-7" x1="21.78" y1="50.17" x2="41.17" y2="50.17"/></g></g></svg>