<svg xmlns="http://www.w3.org/2000/svg" viewBox="0 0 70.28 70.3"><defs><style>.cls-1{fill:#d3d7da;}.cls-2{fill:#56d0fc;}.cls-3{fill:none;stroke:#205081;stroke-miterlimit:10;}.cls-4{fill:#3ed6ca;}.cls-5,.cls-6{fill:#fec72e;}.cls-6{isolation:isolate;font-size:10.85px;font-family:Arial-BoldMT, Arial;font-weight:700;}</style></defs><title>14.profit.risk.cost.planner</title><g id="Layer_2" data-name="Layer 2"><g id="Layer_1-2" data-name="Layer 1"><path class="cls-1" d="M67.3,52.72A3.22,3.22,0,0,1,64.21,55h-61A3.21,3.21,0,0,1,0,51.77V13.07A3.21,3.21,0,0,1,2.5,10a3.36,3.36,0,0,0-.14,1v38.7a3.21,3.21,0,0,0,3.21,3.21h61A3.1,3.1,0,0,0,67.3,52.72Z"/><path class="cls-2" d="M34.21,52.75v.06a.28.28,0,0,1-.38.1.27.27,0,0,1-.13-.17c-.16.15-.35,0-.42-.13l-13.07,14a1.91,1.91,0,0,0,1.4,3.21h0A2,2,0,0,0,23,69.18L35,56.18,34.43,53A.24.24,0,0,1,34.21,52.75Z"/><path class="cls-2" d="M51.94,66.59,39.27,52.77H38.09a.26.26,0,0,1-.25.21h-.41l-.24,3.19,11.94,13a1.92,1.92,0,0,0,1.41.62h0a1.91,1.91,0,0,0,1.4-3.2Z"/><path class="cls-2" d="M36,.5h0a1.77,1.77,0,0,1,1.77,1.77V7.69H34.21V2.28A1.77,1.77,0,0,1,36,.5Z"/><path class="cls-3" d="M36,.5h0a1.77,1.77,0,0,1,1.77,1.77V7.69H34.21V2.28A1.77,1.77,0,0,1,36,.5Z"/><path class="cls-3" d="M33,52.81,20.21,66.59a1.91,1.91,0,0,0,1.4,3.21h0A2,2,0,0,0,23,69.18L35,56.18"/><path class="cls-3" d="M39.15,52.81,51.94,66.59a1.91,1.91,0,0,1-1.4,3.21h0a1.92,1.92,0,0,1-1.41-.62l-11.94-13"/><path class="cls-2" d="M34.67,52.81V68.54a1.25,1.25,0,0,0,1.26,1.26h0a1.27,1.27,0,0,0,1.26-1.26V52.81"/><path class="cls-3" d="M34.67,52.81V68.54a1.25,1.25,0,0,0,1.26,1.26h0a1.27,1.27,0,0,0,1.26-1.26V52.81"/><path class="cls-2" d="M59.13,22.57a9.28,9.28,0,1,1-9.28-9.28h0v9.28Z"/><path class="cls-3" d="M59.13,22.57a9.28,9.28,0,1,1-9.28-9.28h0v9.28Z"/><path class="cls-4" d="M52.07,10.29v9.79h9.54S61.52,12.35,52.07,10.29Z"/><path class="cls-3" d="M52.07,10.29v9.79h9.54S61.52,12.35,52.07,10.29Z"/><rect class="cls-2" x="14.93" y="16.82" width="14.64" height="1.13"/><rect class="cls-5" x="8.3" y="15.52" width="4.46" height="4.05" rx="0.75"/><rect class="cls-5" x="8.3" y="22.96" width="4.46" height="4.05" rx="0.75"/><rect class="cls-5" x="8.3" y="30.4" width="4.46" height="4.05" rx="0.75"/><rect class="cls-5" x="8.3" y="37.84" width="4.46" height="4.05" rx="0.75"/><rect class="cls-3" x="8.3" y="15.52" width="4.46" height="4.05" rx="0.75"/><rect class="cls-2" x="14.93" y="24.26" width="14.64" height="1.13"/><rect class="cls-3" x="8.3" y="22.96" width="4.46" height="4.05" rx="0.75"/><rect class="cls-2" x="14.93" y="31.7" width="14.64" height="1.13"/><rect class="cls-3" x="8.3" y="30.4" width="4.46" height="4.05" rx="0.75"/><rect class="cls-2" x="14.93" y="39.14" width="14.64" height="1.13"/><rect class="cls-3" x="8.3" y="37.84" width="4.46" height="4.05" rx="0.75"/><path class="cls-3" d="M51.09,49.06h6.72a1.33,1.33,0,0,0,1.31-1.35,1.25,1.25,0,0,0-.18-.65l-7.4-12.15a.53.53,0,0,0-.73-.18.52.52,0,0,0-.18.18L43.21,47.05a1.32,1.32,0,0,0,1.12,2Z"/><text class="cls-6" transform="translate(49.02 46.88)">!</text><rect class="cls-3" x="2.36" y="7.7" width="67.42" height="45.12" rx="3.21"/></g></g></svg>