<svg xmlns="http://www.w3.org/2000/svg" viewBox="0 0 85.42 82.85"><defs><style>.cls-1{fill:#fff;}.cls-2{fill:#d3d7da;}.cls-3{fill:none;stroke:#205081;stroke-miterlimit:10;}.cls-4{fill:#4ebbf6;}.cls-5{fill:#ffd253;}</style></defs><title>12.subcontractors</title><g id="Layer_2" data-name="Layer 2"><g id="Layer_1-2" data-name="Layer 1"><path class="cls-1" d="M44.6,66c6,0,7.55-6.84,7.55-6.84,1.91.41,2.21-4.82,1.46-5.16a1.14,1.14,0,0,0-.75-.08.44.44,0,0,1-.52-.34.13.13,0,0,1,0-.06c-.21-2-2-7.86-7.92-7.86h-.19c-5.88,0-7,5.85-7.2,7.86a.45.45,0,0,1-.49.41h0a1.17,1.17,0,0,0-.76.08c-.74.34-.44,5.57,1.46,5.16,0,0,1.5,6.84,7.56,6.84Z"/><path class="cls-2" d="M13.51,57.49s.38-8.17,7.21-7.86,8.07,7.65,8.07,7.65-.65.67-1.56-.19-1.88-2.78-3.21-2.5-2.73,3.32-4.91,3.84S13.51,57.49,13.51,57.49Z"/><path class="cls-2" d="M37,53.62s.34-8,7.44-8,7.92,7.86,7.92,7.86-.36.29-1.19-.21-2-2.78-3.78-2.62S45,54.57,41,54.65,37,53.62,37,53.62Z"/><path class="cls-2" d="M59.05,57.49s.58-7.86,7.21-7.86,8,7.44,8,7.44a1.6,1.6,0,0,1-1.19.2c-.77-.13-2-2.76-3.57-2.62-1.76.17-2.31,4.48-6.89,4A18.31,18.31,0,0,1,59.05,57.49Z"/><path class="cls-1" d="M44.67,70.07a7.22,7.22,0,0,0,6.21-3.74s12,1.12,12,12H26.5c0-10.92,12-12,12-12A7.22,7.22,0,0,0,44.67,70.07Z"/><path class="cls-3" d="M44.67,70.07a7.22,7.22,0,0,0,6.21-3.74s12,1.12,12,12H26.5c0-10.92,12-12,12-12A7.22,7.22,0,0,0,44.67,70.07Z"/><path class="cls-2" d="M19.84,69.76a7,7,0,0,1-1.71.21c-6,0-7.48-6.84-7.48-6.84-1.91.41-2.21-4.82-1.46-5.16a1.14,1.14,0,0,1,.75-.08.44.44,0,0,0,.52-.34.13.13,0,0,0,0-.06c.21-2,1.32-7.86,7.21-7.86h.19a7.09,7.09,0,0,1,1.59.16c-4.52.93-5.45,5.88-5.64,7.7a.45.45,0,0,1-.49.41h0a1.17,1.17,0,0,0-.76.08c-.74.34-.44,5.57,1.46,5.16C14,63.13,15.23,68.62,19.84,69.76Z"/><path class="cls-2" d="M12.36,71c-3.54,1.11-9,4-9,11.4H0c0-10.92,12-12,12-12A6,6,0,0,0,12.36,71Z"/><path class="cls-2" d="M44,.65c-6.63,1.12-6.63,8.6-6.63,8.6H34S34,1,41.67.52A9.25,9.25,0,0,1,44,.65Z"/><path class="cls-2" d="M45,21.41a7.64,7.64,0,0,1-1.61.48,8.9,8.9,0,0,1-1.63.14h0a8.36,8.36,0,0,1-3.31-.62c-3.8-1.63-4.09-5.91-4.09-5.91s-2.14,0-2.19-1.7,0-3.18,0-3.18.1-1.21,1.93-1.36a7.83,7.83,0,0,0,2.46.19,1.53,1.53,0,0,0-1,1.17V13.8c0,1.64,2.2,1.7,2.2,1.7s.29,4.28,4.09,5.91Z"/><path class="cls-2" d="M45.21,21.41V22h-.16a9.34,9.34,0,0,1-1.67-.14,8.9,8.9,0,0,1-1.63.14v2.6H38.52a7.3,7.3,0,0,0-7.3,7.3h0v3.6a2.06,2.06,0,0,0,2,2H29.93a2,2,0,0,1-2-2V32a7.29,7.29,0,0,1,7.28-7.3h3.24V21.41Z"/><path class="cls-3" d="M21.13,70c6.06,0,7.55-6.84,7.55-6.84,1.91.41,2.21-4.82,1.46-5.16a1.14,1.14,0,0,0-.75-.08.44.44,0,0,1-.52-.36.06.06,0,0,1,0,0c-.21-2-2-7.86-7.92-7.86h-.18c-5.89,0-7,5.85-7.21,7.86a.45.45,0,0,1-.49.41h0a1.14,1.14,0,0,0-.75.08c-.75.34-.45,5.57,1.46,5.16,0,0,1.49,6.84,7.55,6.84Z"/><path class="cls-3" d="M13.51,57.49a6.76,6.76,0,0,0,5.19,1c3.36-.5,3.36-4,5.49-3.92s1.69,2.89,4.63,2.9"/><path class="cls-4" d="M21.13,74.09a7.23,7.23,0,0,0,6.2-3.74s12,1.12,12,12H3c0-10.92,12-12,12-12A7.23,7.23,0,0,0,21.13,74.09Z"/><path class="cls-3" d="M21.13,74.09a7.23,7.23,0,0,0,6.2-3.74s12,1.12,12,12H3c0-10.92,12-12,12-12A7.23,7.23,0,0,0,21.13,74.09Z"/><path class="cls-3" d="M66.63,70c6.06,0,7.56-6.84,7.56-6.84,1.9.41,2.2-4.82,1.46-5.16a1.17,1.17,0,0,0-.76-.08.44.44,0,0,1-.52-.36.06.06,0,0,1,0,0c-.2-2-2-7.86-7.91-7.86h-.19c-5.88,0-7,5.85-7.21,7.86a.44.44,0,0,1-.47.41h-.06a1.14,1.14,0,0,0-.75.08c-.74.34-.45,5.57,1.46,5.16,0,0,1.5,6.84,7.55,6.84Z"/><path class="cls-3" d="M59.05,57.49a6.8,6.8,0,0,0,5.19,1c3.37-.5,3.37-4,5.5-3.92s1.68,2.89,4.62,2.9"/><path class="cls-5" d="M66.71,74.09a7.22,7.22,0,0,0,6.21-3.74s12,1.12,12,12H48.54c0-10.92,12-12,12-12A7.22,7.22,0,0,0,66.71,74.09Z"/><path class="cls-3" d="M66.71,74.09a7.22,7.22,0,0,0,6.21-3.74s12,1.12,12,12H48.54c0-10.92,12-12,12-12A7.22,7.22,0,0,0,66.71,74.09Z"/><path class="cls-3" d="M44.6,66c6,0,7.55-6.84,7.55-6.84,1.91.41,2.21-4.82,1.46-5.16a1.14,1.14,0,0,0-.75-.08.44.44,0,0,1-.52-.34.13.13,0,0,1,0-.06c-.21-2-2-7.86-7.92-7.86h-.19c-5.88,0-7,5.85-7.2,7.86a.45.45,0,0,1-.49.41h0a1.17,1.17,0,0,0-.76.08c-.74.34-.44,5.57,1.46,5.16,0,0,1.5,6.84,7.56,6.84Z"/><path class="cls-3" d="M37,53.47a6.77,6.77,0,0,0,5.18,1c3.37-.5,3.37-4,5.5-3.92s1.68,2.89,4.63,2.9"/><line class="cls-3" x1="33.92" y1="34.91" x2="20.9" y2="49.63"/><line class="cls-3" x1="44.67" y1="34.94" x2="44.67" y2="45.61"/><line class="cls-3" x1="55.42" y1="34.91" x2="68.44" y2="49.63"/><path class="cls-2" d="M39.93,9.28a12.59,12.59,0,0,0,3.56-1,7.9,7.9,0,0,0,2.94-2.53c.29-.4.7-1.14,1.28-1.15s.71.41.89.76A13,13,0,0,1,49,6.7a4.9,4.9,0,0,0,1.26,1.63,3,3,0,0,0,2.06.85l.08-2S52.12.38,44.66.56c-6.73.17-7.51,7.14-7.6,8.5A7.32,7.32,0,0,0,39.93,9.28Z"/><path class="cls-3" d="M52.34,9.25c.55-4-1.43-9.11-7.68-8.73C37,1,37,9.25,37,9.25"/><path class="cls-3" d="M37,9.26c.63.17,6,1.39,10.75-4.77,0,0,1.29,4.83,4.64,5,1.28,0,1.69,0,1.76.25s0,4.69,0,4.69-.26,1.31-2.18,1c0,0-.35,6.57-7.3,6.57a7.08,7.08,0,0,1-7.4-6.53s-2.14,0-2.19-1.7,0-3.18,0-3.18S35.21,9.38,37,9.23H37"/><path class="cls-4" d="M40.06,24.63l5.39,5.3,4.08-5.3,2.9.07s6,1.13,6.27,6.8v4a2.06,2.06,0,0,1-2,2H32.92a2.06,2.06,0,0,1-2.05-2V31.32s.72-5.35,5.54-6.48Z"/><path class="cls-3" d="M41.4,21.41v3.22H38.13a7.3,7.3,0,0,0-7.3,7.3h0v3.6a2.06,2.06,0,0,0,2.05,2H56.62a2.06,2.06,0,0,0,2.05-2V32a7.3,7.3,0,0,0-7.3-7.3h-3.2V21.41"/></g></g></svg>