<svg xmlns="http://www.w3.org/2000/svg" viewBox="0 0 71.25 62.21"><defs><style>.cls-1{fill:#56d0fc;}.cls-2{fill:none;stroke:#205081;stroke-miterlimit:10;}.cls-3{fill:#d3d7da;}.cls-4{fill:#fec72e;}.cls-5{fill:#fff;}</style></defs><title>05.timeline</title><g id="Layer_2" data-name="Layer 2"><g id="Layer_1-2" data-name="Layer 1"><path class="cls-1" d="M5,12.59H70.75V2.76S70.29.5,67,.5H8.13S5.29,1,5,3.63A89.26,89.26,0,0,0,5,12.59Z"/><line class="cls-2" x1="9.13" y1="34.69" x2="66.75" y2="34.69"/><line class="cls-2" x1="9.13" y1="46.86" x2="66.75" y2="46.86"/><path class="cls-3" d="M65.75,57.21v1.87a3.13,3.13,0,0,1-3.13,3.13H3.13A3.13,3.13,0,0,1,0,59.08H0V8.63A3.13,3.13,0,0,1,3.13,5.5H5.06V54.08a3.13,3.13,0,0,0,3.13,3.13H65.75Z"/><rect class="cls-2" x="5" y="0.5" width="65.75" height="56.71" rx="3.13"/><line class="cls-2" x1="5" y1="12.92" x2="70.75" y2="12.92"/><line class="cls-2" x1="9.13" y1="22.52" x2="66.75" y2="22.52"/><rect class="cls-4" x="19.5" y="19.42" width="17.08" height="5.67" rx="2.83"/><rect class="cls-1" x="26.5" y="31.59" width="22.67" height="5.67" rx="2.83"/><rect class="cls-4" x="39.5" y="43.75" width="21.42" height="5.67" rx="2.83"/><rect class="cls-2" x="19.5" y="19.42" width="17.08" height="5.67" rx="2.83"/><rect class="cls-2" x="26.5" y="31.59" width="22.67" height="5.67" rx="2.83"/><rect class="cls-2" x="39.5" y="43.75" width="21.42" height="5.67" rx="2.83"/><rect class="cls-5" x="10.42" y="5.02" width="3.95" height="3.95"/><rect class="cls-5" x="17.53" y="5.02" width="3.95" height="3.95"/><rect class="cls-5" x="24.63" y="5.02" width="3.95" height="3.95"/></g></g></svg>